SplineFontDB: 3.2
FontName: ZeldasYour
FullName: Zelda is Your
FamilyName: Zelda is Your
Weight: Regular
Copyright: Basic alphanumerics and punctuation designed by Nintendo, 1991\nRussian Cyrillic character designs incorporated from Chief-NET, 2009\nAll other character design/synthesis & font creation AmzRigh, 2023
UComments: "2019-5-22: Created with FontForge (http://fontforge.org)+AAoA-Replica and extension of the font used in Zelda 3 and various localizations thereof"
FontLog: "Basic alphanumerics and punctuation designed by Nintendo+AAoA-Russian Cyrillic characters designed by Chief-NET+AAoA-All other characters designed/synthesized by AmzRigh+AAoA-Font created by AmzRigh"
Version: 0.1
ItalicAngle: 0
UnderlinePosition: 0
UnderlineWidth: 0
Ascent: 11
Descent: 2
InvalidEm: 0
LayerCount: 2
Layer: 0 0 "Back" 1
Layer: 1 0 "Fore" 0
XUID: [1021 193 -1182615352 15297]
StyleMap: 0x0000
FSType: 0
OS2Version: 0
OS2_WeightWidthSlopeOnly: 0
OS2_UseTypoMetrics: 1
CreationTime: 1558511510
ModificationTime: 1684834824
OS2TypoAscent: 0
OS2TypoAOffset: 1
OS2TypoDescent: 0
OS2TypoDOffset: 1
OS2TypoLinegap: 1
OS2WinAscent: 0
OS2WinAOffset: 1
OS2WinDescent: 0
OS2WinDOffset: 1
HheadAscent: 0
HheadAOffset: 1
HheadDescent: 0
HheadDOffset: 1
OS2Vendor: 'PfEd'
MarkAttachClasses: 1
DEI: 91125
LangName: 1033
Encoding: UnicodeBmp
UnicodeInterp: none
NameList: AGL For New Fonts
DisplaySize: -128
AntiAlias: 1
FitToEm: 1
WinInfo: 728 8 6
BeginPrivate: 0
EndPrivate
TeXData: 1 0 0 322638 161319 107546 645278 1048576 107546 783286 444596 497025 792723 393216 433062 380633 303038 157286 324010 404750 52429 2506097 1059062 262144
BeginChars: 65536 1145

StartChar: exclam
Encoding: 33 33 0
Width: 3
VWidth: 0
Flags: W
HStem: -9 20G<1 2> 0 2<1 2>
VStem: 1 1<0 2 3 11>
LayerCount: 2
Fore
SplineSet
1 3 m 1xa0
 1 11 l 1
 2 11 l 1
 2 3 l 1
 1 3 l 1xa0
1 0 m 1x60
 1 2 l 1
 2 2 l 1
 2 0 l 1
 1 0 l 1x60
EndSplineSet
Validated: 1
EndChar

StartChar: numbersign
Encoding: 35 35 2
Width: 9
VWidth: 0
Flags: W
HStem: -11 20G<3 4 6 7> 1 21G<2 3 5 6> 2 1<1 2 3 5 6 7> 7 1<2 3 4 6 7 8>
VStem: 2 1<1 2 3 5> 3 1<5 7 8 9> 5 1<1 2 3 5> 6 1<5 7 8 9>
LayerCount: 2
Fore
SplineSet
2 8 m 1x18
 3 8 l 1x14
 3 9 l 1
 4 9 l 1x84
 4 8 l 1
 6 8 l 1x15
 6 9 l 1
 7 9 l 1x85
 7 8 l 1
 8 8 l 1
 8 7 l 1
 7 7 l 1
 7 5 l 1x15
 6 5 l 1x12
 6 7 l 1
 4 7 l 1
 4 5 l 1x15
 3 5 l 1x18
 3 7 l 1x14
 2 7 l 1
 2 8 l 1x18
1 2 m 1x2a
 1 3 l 1
 2 3 l 1
 2 5 l 1
 3 5 l 1
 3 3 l 1
 5 3 l 1
 5 5 l 1
 6 5 l 1
 6 3 l 1x2a
 7 3 l 1
 7 2 l 1x21
 6 2 l 1x22
 6 1 l 1
 5 1 l 1x42
 5 2 l 1
 3 2 l 1x2a
 3 1 l 1
 2 1 l 1x4a
 2 2 l 1
 1 2 l 1x2a
EndSplineSet
Validated: 5
EndChar

StartChar: dollar
Encoding: 36 36 3
Width: 7
VWidth: 0
Flags: W
HStem: -9 20G<3 4> 0 21G<3 4> 1 1<2 3 4 5> 2 1<1 2> 4 1<4 5> 6 1<2 3> 7 2<1 2> 8 1<5 6> 9 1<2 3 4 5>
VStem: 1 1<2 3 7 9> 3 2<4 5> 3 1<0 1 2 4 5 6 7 9 10 11> 5 1<2 4 8 9>
LayerCount: 2
Fore
SplineSet
1 3 m 1x1040
 2 3 l 1x1040
 2 2 l 1x2040
 1 2 l 1
 1 3 l 1x1040
5 2 m 1x2048
 5 4 l 1x2860
 6 4 l 1
 6 2 l 1x1848
 5 2 l 1x2048
5 2 m 1x28d8
 5 1 l 1
 4 1 l 1x28d8
 4 0 l 1
 3 0 l 1x4058
 3 1 l 1
 2 1 l 1
 2 2 l 1
 3 2 l 1
 3 6 l 1
 2 6 l 1
 2 7 l 1
 3 7 l 1
 3 9 l 1x24d8
 2 9 l 1x0258
 2 10 l 1
 3 10 l 1x00d8
 3 11 l 1
 4 11 l 1x8058
 4 10 l 1
 5 10 l 1x00d8
 5 9 l 1x0158
 4 9 l 1
 4 5 l 1x08d8
 5 5 l 1
 5 4 l 1x08e0
 4 4 l 1
 4 2 l 1
 5 2 l 1x28d8
5 9 m 1x0148
 6 9 l 1
 6 8 l 1
 5 8 l 1
 5 9 l 1x0148
2 9 m 1x0240
 2 7 l 1x0440
 1 7 l 1
 1 9 l 1
 2 9 l 1x0240
EndSplineSet
Validated: 5
EndChar

StartChar: percent
Encoding: 37 37 4
Width: 9
VWidth: 0
Flags: W
HStem: -13 20G<4 5> 1 1<6 7> 2 1<5 6 7 8> 7 1<2 3> 8 1<1 2 3 4>
VStem: 1 1<8 9> 2 1<7 8 9 10> 3 1<1 4 8 9> 5 1<2 3 7 10> 6 1<1 2 3 4>
LayerCount: 2
Fore
SplineSet
8 3 m 1x2040
 8 2 l 1x2040
 7 2 l 1
 7 1 l 1
 6 1 l 1x4040
 6 2 l 1x4080
 7 2 l 1x4040
 7 3 l 1
 8 3 l 1x2040
4 9 m 1x09
 4 8 l 1x09
 3 8 l 1
 3 7 l 1
 2 7 l 1x12
 2 8 l 1x14
 3 8 l 1x12
 3 9 l 1x0a
 4 9 l 1x09
3 1 m 1x41
 3 4 l 1
 4 4 l 1
 4 1 l 1
 3 1 l 1x41
6 2 m 1x4080
 5 2 l 1
 5 3 l 1
 6 3 l 1x2080
 6 4 l 1
 7 4 l 1
 7 3 l 1x2040
 6 3 l 1x2080
 6 2 l 1x4080
2 8 m 1x14
 1 8 l 1
 1 9 l 1
 2 9 l 1x0c
 2 10 l 1
 3 10 l 1
 3 9 l 1x0a
 2 9 l 1x0c
 2 8 l 1x14
5 7 m 1x8080
 5 10 l 1
 6 10 l 1
 6 7 l 1x1080
 5 7 l 1x8080
5 7 m 1x8180
 5 4 l 1
 4 4 l 1
 4 7 l 1
 5 7 l 1x8180
EndSplineSet
Validated: 5
EndChar

StartChar: ampersand
Encoding: 38 38 5
Width: 7
VWidth: 0
Flags: W
HStem: 0 2<5 6> 1 1<2 4> 4 1<5 6> 6 1<2 4> 7 2<1 2> 8 1<4 5> 9 1<2 4>
VStem: 1 1<2 6 7 9> 2 2<1 2 6 7 9 10> 4 1<2 4 8 9>
LayerCount: 2
Fore
SplineSet
4 2 m 1x6080
 4 1 l 1
 2 1 l 1x6080
 2 2 l 1x61
 4 2 l 1x6080
4 2 m 1
 4 5 l 1
 6 5 l 1
 6 4 l 1
 5 4 l 1
 5 2 l 1xa040
 4 2 l 1
5 2 m 1
 6 2 l 1
 6 0 l 1
 5 0 l 1
 5 2 l 1
2 2 m 1x71
 1 2 l 1
 1 6 l 1
 2 6 l 1
 2 2 l 1x71
2 6 m 1
 2 7 l 1x31
 4 7 l 1
 4 6 l 1x3080
 2 6 l 1
2 7 m 1
 1 7 l 1
 1 9 l 1
 2 9 l 1x29
 2 7 l 1
4 9 m 1x2480
 5 9 l 1
 5 8 l 1
 4 8 l 1x2440
 4 9 l 1x2480
4 9 m 1x2480
 2 9 l 1x29
 2 10 l 1
 4 10 l 1x2280
 4 9 l 1x2480
EndSplineSet
Validated: 5
EndChar

StartChar: quotesingle
Encoding: 39 39 6
Width: 4
VWidth: 0
Flags: W
HStem: 7 1<1 2> 8 21G<2 3> 9 2<1 2>
VStem: 1 1<7 8> 2 1<8 9>
LayerCount: 2
Fore
SplineSet
1 11 m 1xb0
 3 11 l 1xa8
 3 8 l 1x48
 2 8 l 1x90
 2 9 l 1xa8
 1 9 l 1
 1 11 l 1xb0
2 8 m 1x90
 2 7 l 1
 1 7 l 1
 1 8 l 1
 2 8 l 1x90
EndSplineSet
Validated: 5
EndChar

StartChar: parenleft
Encoding: 40 40 7
Width: 6
VWidth: 0
Flags: W
HStem: -9 20G<4 5> -2 21G<4 5>
VStem: 1 3<1 2 7 8> 2 3<0 1 8 9> 3 2<-1 0 9 10> 4 1<-2 -1 10 11>
LayerCount: 2
Fore
SplineSet
1 8 m 1x60
 2 8 l 1
 2 9 l 1x50
 3 9 l 1
 3 10 l 1x48
 4 10 l 1
 4 11 l 1
 5 11 l 1x84
 5 8 l 1x90
 4 8 l 1
 4 7 l 1xa0
 3 7 l 1
 3 2 l 1x88
 4 2 l 1
 4 1 l 1xa0
 5 1 l 1x90
 5 -2 l 1
 4 -2 l 1
 4 -1 l 1x44
 3 -1 l 1
 3 0 l 1x48
 2 0 l 1
 2 1 l 1x50
 1 1 l 1
 1 8 l 1x60
EndSplineSet
Validated: 1
EndChar

StartChar: asterisk
Encoding: 42 42 9
Width: 7
VWidth: 0
Flags: W
HStem: -9 20G<3 4> 7 1<1 2 5 6> 8 1<2 3 4 5> 9 1<1 2 5 6>
VStem: 1 1<7 8 9 10> 3 1<6 8 9 11> 5 1<7 8 9 10>
CounterMasks: 1 0e
LayerCount: 2
Fore
SplineSet
3 11 m 1x8e
 4 11 l 1x8e
 4 9 l 1
 5 9 l 1x2e
 5 8 l 1x4e
 4 8 l 1
 4 6 l 1
 3 6 l 1
 3 8 l 1x2e
 2 8 l 1x4e
 2 9 l 1
 3 9 l 1x2e
 3 11 l 1x8e
2 9 m 1x2e
 1 9 l 1
 1 10 l 1
 2 10 l 1x1e
 2 9 l 1x2e
2 8 m 1x4e
 2 7 l 1
 1 7 l 1
 1 8 l 1
 2 8 l 1x4e
5 8 m 1
 6 8 l 1
 6 7 l 1
 5 7 l 1
 5 8 l 1
5 9 m 1x2e
 5 10 l 1
 6 10 l 1
 6 9 l 1x1e
 5 9 l 1x2e
EndSplineSet
Validated: 5
EndChar

StartChar: plus
Encoding: 43 43 10
Width: 7
VWidth: 0
Flags: W
HStem: -12 20G<3 4> 5 1<1 3 4 6>
VStem: 3 1<3 5 6 8>
LayerCount: 2
Fore
SplineSet
1 6 m 1x60
 3 6 l 1x60
 3 8 l 1
 4 8 l 1xa0
 4 6 l 1
 6 6 l 1
 6 5 l 1
 4 5 l 1
 4 3 l 1
 3 3 l 1
 3 5 l 1
 1 5 l 1
 1 6 l 1x60
EndSplineSet
Validated: 1
EndChar

StartChar: hyphen
Encoding: 45 45 12
Width: 5
VWidth: 0
Flags: W
HStem: 5 1<1 4>
VStem: 1 3<5 6>
LayerCount: 2
Fore
SplineSet
1 6 m 1
 4 6 l 1
 4 5 l 1
 1 5 l 1
 1 6 l 1
EndSplineSet
Validated: 1
EndChar

StartChar: period
Encoding: 46 46 13
Width: 4
VWidth: 0
Flags: W
HStem: 0 2<1 3>
VStem: 1 2<0 2>
LayerCount: 2
Fore
SplineSet
1 0 m 1
 1 2 l 1
 3 2 l 1
 3 0 l 1
 1 0 l 1
EndSplineSet
Validated: 1
EndChar

StartChar: slash
Encoding: 47 47 14
Width: 5
VWidth: 0
Flags: W
HStem: -13 20G<2 3> -9 20G<3 4> 0 21G<1 2> 7 21G<3 4>
VStem: 1 1<0 4> 2 1<4 7> 3 1<7 11>
LayerCount: 2
Fore
SplineSet
1 0 m 1x28
 1 4 l 1
 2 4 l 1
 2 0 l 1
 1 0 l 1x28
3 7 m 1x84
 3 11 l 1
 4 11 l 1x42
 4 7 l 1x12
 3 7 l 1x84
3 7 m 1x84
 3 4 l 1x84
 2 4 l 1x88
 2 7 l 1
 3 7 l 1x84
EndSplineSet
EndChar

StartChar: zero
Encoding: 48 48 15
Width: 6
VWidth: 0
Flags: W
HStem: -10 20G<1 2 4 5> 0 1<2 4> 1 21G<1 2 4 5> 10 1<2 4>
VStem: 1 1<1 10> 2 2<0 1 10 11>
LayerCount: 2
Fore
SplineSet
2 10 m 1x88
 2 11 l 1
 4 11 l 1x14
 4 10 l 1x84
 2 10 l 1x88
2 10 m 1x88
 2 1 l 1x48
 1 1 l 1x28
 1 10 l 1
 2 10 l 1x88
4 10 m 1x84
 5 10 l 1x84
 5 1 l 1x24
 4 1 l 1x44
 4 10 l 1x84
2 1 m 1x48
 4 1 l 1
 4 0 l 1
 2 0 l 1x44
 2 1 l 1x48
EndSplineSet
Validated: 5
EndChar

StartChar: one
Encoding: 49 49 16
Width: 4
VWidth: 0
Flags: W
HStem: -9 20G<2 3> 0 21G<2 3> 9 1<1 2>
VStem: 1 2<9 10> 2 1<0 9 10 11>
LayerCount: 2
Fore
SplineSet
1 10 m 1x30
 2 10 l 1x28
 2 11 l 1
 3 11 l 1x88
 3 0 l 1
 2 0 l 1x48
 2 9 l 1x28
 1 9 l 1
 1 10 l 1x30
EndSplineSet
Validated: 1
EndChar

StartChar: two
Encoding: 50 50 17
Width: 6
VWidth: 0
Flags: W
HStem: 0 1<2 5> 3 2<2 3> 5 2<3 4> 7 21G<4 5> 8 2<1 2> 10 1<2 4>
VStem: 1 1<1 3 8 10> 3 1<5 7> 4 1<7 10>
LayerCount: 2
Fore
SplineSet
1 0 m 1xc280
 1 3 l 1
 2 3 l 1
 2 1 l 1
 5 1 l 1
 5 0 l 1
 1 0 l 1xc280
2 10 m 1x8a80
 2 11 l 1
 4 11 l 1
 4 10 l 1x8680
 2 10 l 1x8a80
2 10 m 1x8a
 2 8 l 1
 1 8 l 1
 1 10 l 1
 2 10 l 1x8a
4 10 m 1xa680
 5 10 l 1xa680
 5 7 l 1x9280
 4 7 l 1xa3
 4 10 l 1xa680
4 7 m 1xa3
 4 5 l 1xa3
 3 5 l 1xc3
 3 7 l 1
 4 7 l 1xa3
3 5 m 1xc3
 3 3 l 1
 2 3 l 1
 2 5 l 1
 3 5 l 1xc3
EndSplineSet
Validated: 5
EndChar

StartChar: three
Encoding: 51 51 18
Width: 6
VWidth: 0
Flags: W
HStem: 0 1<2 4> 1 2<1 2> 5 1<2 4> 8 2<1 2> 10 1<2 4>
VStem: 1 1<1 3 8 10> 2 2<0 1 5 6 10 11> 4 1<1 5 6 10>
LayerCount: 2
Fore
SplineSet
2 1 m 1xa4
 1 1 l 1
 1 3 l 1
 2 3 l 1x64
 2 1 l 1xa4
2 1 m 1xa4
 4 1 l 1
 4 0 l 1
 2 0 l 1xa2
 2 1 l 1xa4
4 1 m 1
 4 5 l 1xa2
 5 5 l 1
 5 1 l 1x61
 4 1 l 1
4 5 m 1
 2 5 l 1
 2 6 l 1
 4 6 l 1
 4 5 l 1
4 6 m 1
 4 10 l 1x2a
 5 10 l 1
 5 6 l 1x29
 4 6 l 1
4 10 m 1
 2 10 l 1
 2 8 l 1
 1 8 l 1
 1 10 l 1
 2 10 l 1x34
 2 11 l 1
 4 11 l 1
 4 10 l 1
EndSplineSet
Validated: 5
EndChar

StartChar: four
Encoding: 52 52 19
Width: 6
VWidth: 0
Flags: W
HStem: 0 21G<3 4> 3 1<2 3 4 5> 9 2<2 3>
VStem: 1 1<4 9> 2 2<9 11> 3 1<0 3 4 9>
LayerCount: 2
Fore
SplineSet
2 11 m 1x68
 4 11 l 1x68
 4 4 l 1
 5 4 l 1
 5 3 l 1
 4 3 l 1x64
 4 0 l 1
 3 0 l 1x84
 3 3 l 1
 1 3 l 1
 1 9 l 1
 2 9 l 1x74
 2 11 l 1x68
3 9 m 1x74
 2 9 l 1
 2 4 l 1
 3 4 l 1
 3 9 l 1x74
EndSplineSet
Validated: 5
EndChar

StartChar: five
Encoding: 53 53 20
Width: 6
VWidth: 0
Flags: W
HStem: 0 1<2 4> 1 1<1 2> 6 1<2 4> 10 1<2 5>
VStem: 1 1<1 2 5 6 7 10> 4 1<1 6>
LayerCount: 2
Fore
SplineSet
1 11 m 1x3c
 5 11 l 1
 5 10 l 1
 2 10 l 1
 2 7 l 1
 4 7 l 1
 4 6 l 1
 2 6 l 1
 2 5 l 1
 1 5 l 1
 1 11 l 1x3c
2 1 m 1xbc
 4 1 l 1
 4 0 l 1
 2 0 l 1
 2 1 l 1xbc
2 1 m 1
 1 1 l 1
 1 2 l 1
 2 2 l 1x7c
 2 1 l 1
4 1 m 1xbc
 4 6 l 1
 5 6 l 1
 5 1 l 1x7c
 4 1 l 1xbc
EndSplineSet
Validated: 5
EndChar

StartChar: six
Encoding: 54 54 21
Width: 6
VWidth: 0
Flags: W
HStem: 0 1<2 4> 1 21G<1 2 4 5> 6 1<2 4> 8 2<4 5> 10 1<2 4>
VStem: 1 1<1 6 7 10> 2 2<0 1 10 11> 4 1<1 6 8 10>
LayerCount: 2
Fore
SplineSet
4 1 m 1x82
 4 6 l 1
 5 6 l 1xa1
 5 1 l 1x41
 4 1 l 1x82
4 1 m 1x82
 4 0 l 1
 2 0 l 1x82
 2 1 l 1x84
 4 1 l 1x82
2 1 m 1xad
 1 1 l 1x45
 1 10 l 1
 2 10 l 1
 2 7 l 1
 4 7 l 1
 4 6 l 1
 2 6 l 1
 2 1 l 1xad
4 10 m 1x12
 5 10 l 1
 5 8 l 1
 4 8 l 1x11
 4 10 l 1x12
4 10 m 1x12
 2 10 l 1x0c
 2 11 l 1
 4 11 l 1x0a
 4 10 l 1x12
EndSplineSet
Validated: 5
EndChar

StartChar: seven
Encoding: 55 55 22
Width: 6
VWidth: 0
Flags: W
HStem: -13 20G<3 4> 0 21G<2 3> 7 21G<4 5> 10 1<1 4>
VStem: 2 1<0 4> 3 1<4 7> 4 1<7 10>
LayerCount: 2
Fore
SplineSet
1 11 m 1x92
 5 11 l 1x92
 5 7 l 1x22
 4 7 l 1x84
 4 10 l 1
 1 10 l 1
 1 11 l 1x92
3 4 m 1x88
 3 7 l 1
 4 7 l 1
 4 4 l 1x84
 3 4 l 1x88
3 4 m 1x48
 3 0 l 1
 2 0 l 1
 2 4 l 1
 3 4 l 1x48
EndSplineSet
Validated: 5
EndChar

StartChar: eight
Encoding: 56 56 23
Width: 6
VWidth: 0
Flags: W
HStem: -10 20G<1 2 4 5> 0 1<2 4> 1 21G<1 2 4 5> 5 1<2 4> 10 1<2 4>
VStem: 1 1<1 5 6 10> 2 2<0 1 5 6 10 11> 4 1<1 5 6 10>
LayerCount: 2
Fore
SplineSet
2 10 m 1x84
 2 11 l 1
 4 11 l 1x0a
 4 10 l 1x82
 2 10 l 1x84
2 10 m 1x84
 2 6 l 1
 1 6 l 1x14
 1 10 l 1
 2 10 l 1x84
2 1 m 1x54
 1 1 l 1x24
 1 5 l 1
 2 5 l 1
 2 1 l 1x54
2 1 m 1x44
 4 1 l 1
 4 0 l 1
 2 0 l 1x42
 2 1 l 1x44
4 1 m 1
 4 5 l 1x52
 5 5 l 1x51
 5 1 l 1x21
 4 1 l 1
4 10 m 1x82
 5 10 l 1x81
 5 6 l 1x11
 4 6 l 1x12
 4 10 l 1x82
2 6 m 1x14
 4 6 l 1
 4 5 l 1x12
 2 5 l 1
 2 6 l 1x14
EndSplineSet
Validated: 5
EndChar

StartChar: nine
Encoding: 57 57 24
Width: 6
VWidth: 0
Flags: W
HStem: -10 20G<1 2 4 5> 0 1<2 4> 1 2<1 2> 4 1<2 4> 10 1<2 4>
VStem: 1 1<1 3 5 10> 2 2<0 1 10 11> 4 1<1 4 5 10>
LayerCount: 2
Fore
SplineSet
2 10 m 1x84
 2 11 l 1
 4 11 l 1x0a
 4 10 l 1x82
 2 10 l 1x84
2 10 m 1x84
 2 5 l 1
 1 5 l 1x14
 1 10 l 1
 2 10 l 1x84
4 10 m 1x82
 5 10 l 1x81
 5 1 l 1x21
 4 1 l 1x42
 4 4 l 1x51
 2 4 l 1x52
 2 5 l 1
 4 5 l 1x55
 4 10 l 1x82
2 1 m 1x44
 1 1 l 1
 1 3 l 1
 2 3 l 1x24
 2 1 l 1x44
2 1 m 1x44
 4 1 l 1
 4 0 l 1
 2 0 l 1x42
 2 1 l 1x44
EndSplineSet
EndChar

StartChar: colon
Encoding: 58 58 25
Width: 4
VWidth: 0
Flags: W
HStem: 0 2<1 3> 6 2<1 3>
VStem: 1 2<0 2 6 8>
LayerCount: 2
Back
SplineSet
1 0 m 1
 1 2 l 1
 3 2 l 1
 3 0 l 1
 1 0 l 1
1 8 m 1
 3 8 l 1
 3 6 l 1
 1 6 l 1
 1 8 l 1
EndSplineSet
Fore
Refer: 13 46 N 1 0 0 1 0 6 2
Refer: 13 46 N 1 0 0 1 0 0 2
EndChar

StartChar: semicolon
Encoding: 59 59 26
Width: 4
VWidth: 0
Flags: W
HStem: -2 1<1 2> -1 21G<2 3> 0 2<1 2> 6 2<1 3>
VStem: 1 1<-2 -1> 1 2<6 8> 2 1<-1 0>
LayerCount: 2
Back
SplineSet
1 0 m 1xf0
 1 2 l 1xf0
 3 2 l 1
 3 -1 l 1xe8
 2 -1 l 1
 2 -2 l 1
 1 -2 l 1
 1 -1 l 1
 2 -1 l 1xf0
 2 0 l 1xe8
 1 0 l 1xf0
1 8 m 1
 3 8 l 1
 3 6 l 1xe8
 1 6 l 1
 1 8 l 1
EndSplineSet
Fore
Refer: 11 44 N 1 0 0 1 0 0 2
Refer: 13 46 N 1 0 0 1 0 6 2
EndChar

StartChar: less
Encoding: 60 60 27
Width: 7
VWidth: 0
Flags: W
HStem: 3 1<4 6> 4 1<2 4> 5 1<1 2> 6 1<2 4> 7 1<4 6>
VStem: 1 1<5 6> 2 2<4 5 6 7> 4 2<3 4 7 8>
LayerCount: 2
Fore
SplineSet
4 4 m 1x82
 6 4 l 1
 6 3 l 1
 4 3 l 1x81
 4 4 l 1x82
4 4 m 1x82
 2 4 l 1x42
 2 5 l 1x44
 4 5 l 1x42
 4 4 l 1x82
2 5 m 1x44
 1 5 l 1
 1 6 l 1
 2 6 l 1x24
 2 5 l 1x44
2 6 m 1
 2 7 l 1
 4 7 l 1
 4 6 l 1x12
 2 6 l 1
4 7 m 1
 4 8 l 1
 6 8 l 1
 6 7 l 1x09
 4 7 l 1
EndSplineSet
EndChar

StartChar: equal
Encoding: 61 61 28
Width: 6
VWidth: 0
Flags: W
HStem: 3 1<1 5> 6 1<1 5>
LayerCount: 2
Fore
SplineSet
1 7 m 1
 5 7 l 1
 5 6 l 1
 1 6 l 1
 1 7 l 1
1 4 m 1
 5 4 l 1
 5 3 l 1
 1 3 l 1
 1 4 l 1
EndSplineSet
Validated: 1
EndChar

StartChar: question
Encoding: 63 63 30
Width: 7
VWidth: 0
Flags: W
HStem: -10 20G<1 2 5 6> 0 2<3 4> 3 2<3 4> 5 1<4 5> 10 1<2 5>
VStem: 1 1<6 10> 3 1<0 2 3 5> 5 1<6 10>
CounterMasks: 1 07
LayerCount: 2
Fore
SplineSet
3 2 m 1x47
 4 2 l 1
 4 0 l 1
 3 0 l 1
 3 2 l 1x47
4 5 m 1x27
 4 3 l 1
 3 3 l 1
 3 5 l 1
 4 5 l 1x27
4 5 m 1
 4 6 l 1
 5 6 l 1
 5 5 l 1x17
 4 5 l 1
5 6 m 1
 5 10 l 1
 6 10 l 1x87
 6 6 l 1
 5 6 l 1
5 10 m 1
 2 10 l 1x87
 2 11 l 1
 5 11 l 1x0f
 5 10 l 1
2 10 m 1
 2 6 l 1
 1 6 l 1x17
 1 10 l 1
 2 10 l 1
EndSplineSet
EndChar

StartChar: at
Encoding: 64 64 31
Width: 7
VWidth: 0
Flags: W
HStem: -13 20G<3 4> -10 20G<1 2 5 6> 0 1<2 5> 1 1<5 6> 3 1<4 5> 7 1<4 5> 10 1<2 5>
VStem: 1 1<1 10> 2 3<0 1 10 11> 4 2<7 8> 5 1<1 2 4 7 8 10>
LayerCount: 2
Fore
SplineSet
5 1 m 1x2080
 5 2 l 1
 6 2 l 1
 6 1 l 1x1020
 5 1 l 1x2080
5 1 m 1x2080
 5 0 l 1
 2 0 l 1x2080
 2 1 l 1x21
 5 1 l 1x2080
2 1 m 1x21
 1 1 l 1x11
 1 10 l 1
 2 10 l 1x41
 2 1 l 1x21
2 10 m 1x41
 2 11 l 1
 5 11 l 1x0280
 5 10 l 1x4080
 2 10 l 1x41
5 10 m 1x4080
 6 10 l 1x4020
 6 3 l 1
 3 3 l 1x0820
 3 7 l 1
 4 7 l 1x8040
 4 4 l 1x0840
 5 4 l 1
 5 7 l 1x0c20
 4 7 l 1x8040
 4 8 l 1x0440
 5 8 l 1x0420
 5 10 l 1x4080
EndSplineSet
EndChar

StartChar: A
Encoding: 65 65 32
Width: 6
VWidth: 0
Flags: W
HStem: -10 20G<4 5> 0 21G<1 2 4 5> 5 1<2 4> 10 1<2 4>
VStem: 1 1<0 5 6 10> 4 1<0 5 6 10>
LayerCount: 2
Fore
SplineSet
1 0 m 1x4c
 1 10 l 1
 2 10 l 1
 2 11 l 1
 4 11 l 1x1c
 4 10 l 1x8c
 2 10 l 1
 2 6 l 1
 4 6 l 1x3c
 4 10 l 1
 5 10 l 1x8c
 5 0 l 1
 4 0 l 1x4c
 4 5 l 1
 2 5 l 1x2c
 2 0 l 1
 1 0 l 1x4c
EndSplineSet
Validated: 5
EndChar

StartChar: B
Encoding: 66 66 33
Width: 6
VWidth: 0
Flags: W
HStem: -10 20G<4 5> 0 1<2 4> 1 21G<4 5> 5 1<2 4> 10 1<2 4>
VStem: 1 3<0 1 5 6 10 11> 1 1<1 5 6 10> 4 1<1 5 6 10>
LayerCount: 2
Fore
SplineSet
1 11 m 1x5c
 4 11 l 1x5c
 4 10 l 1x84
 2 10 l 1
 2 6 l 1x1a
 4 6 l 1
 4 5 l 1x1c
 2 5 l 1
 2 1 l 1x5a
 4 1 l 1
 4 0 l 1
 1 0 l 1
 1 11 l 1x5c
4 1 m 1
 4 5 l 1x54
 5 5 l 1x51
 5 1 l 1x21
 4 1 l 1
4 6 m 1
 4 10 l 1x84
 5 10 l 1x81
 5 6 l 1x11
 4 6 l 1
EndSplineSet
EndChar

StartChar: C
Encoding: 67 67 34
Width: 6
VWidth: 0
Flags: W
HStem: -10 20G<1 2 4 5> 0 1<2 4> 1 21G<1 2 4 5> 10 1<2 4>
VStem: 1 1<1 10> 2 2<0 1 10 11> 4 1<1 4 7 10>
LayerCount: 2
Fore
SplineSet
4 1 m 1x44
 4 0 l 1
 2 0 l 1x44
 2 1 l 1x48
 4 1 l 1x44
4 1 m 1
 4 4 l 1
 5 4 l 1
 5 1 l 1x22
 4 1 l 1
2 1 m 1x48
 1 1 l 1x28
 1 10 l 1
 2 10 l 1x88
 2 1 l 1x48
2 10 m 1x88
 2 11 l 1
 4 11 l 1x14
 4 10 l 1x84
 2 10 l 1x88
4 10 m 1x84
 5 10 l 1
 5 7 l 1
 4 7 l 1x82
 4 10 l 1x84
EndSplineSet
EndChar

StartChar: D
Encoding: 68 68 35
Width: 6
VWidth: 0
Flags: W
HStem: -10 20G<4 5> 0 1<2 4> 1 21G<4 5> 10 1<2 4>
VStem: 1 3<0 1 10 11> 4 1<1 10>
LayerCount: 2
Fore
SplineSet
1 11 m 1x58
 4 11 l 1x58
 4 10 l 1x88
 2 10 l 1
 2 1 l 1
 4 1 l 1
 4 0 l 1
 1 0 l 1
 1 11 l 1x58
4 1 m 1
 4 10 l 1x88
 5 10 l 1x84
 5 1 l 1x24
 4 1 l 1
EndSplineSet
EndChar

StartChar: E
Encoding: 69 69 36
Width: 6
VWidth: 0
Flags: W
HStem: 0 1<2 5> 5 1<2 4> 10 1<2 5>
VStem: 1 1<1 5 6 10>
CounterMasks: 1 e0
LayerCount: 2
Fore
SplineSet
1 11 m 1
 5 11 l 1
 5 10 l 1
 2 10 l 1
 2 6 l 1
 4 6 l 1
 4 5 l 1
 2 5 l 1
 2 1 l 1
 5 1 l 1
 5 0 l 1
 1 0 l 1
 1 11 l 1
EndSplineSet
Validated: 1
EndChar

StartChar: F
Encoding: 70 70 37
Width: 6
VWidth: 0
Flags: W
HStem: 0 21G<1 2> 5 1<2 4> 10 1<2 5>
VStem: 1 1<0 5 6 10>
LayerCount: 2
Fore
SplineSet
1 11 m 1x30
 5 11 l 1
 5 10 l 1
 2 10 l 1
 2 6 l 1
 4 6 l 1
 4 5 l 1
 2 5 l 1x70
 2 0 l 1
 1 0 l 1x90
 1 11 l 1x30
EndSplineSet
Validated: 1
EndChar

StartChar: G
Encoding: 71 71 38
Width: 6
VWidth: 0
Flags: W
HStem: -10 20G<1 2 4 5> 0 1<2 4> 1 21G<1 2 4 5> 4 1<3 4> 7 21G<4 5> 10 1<2 4>
VStem: 1 1<1 10> 2 2<0 1 10 11> 4 1<1 4 7 10>
LayerCount: 2
Fore
SplineSet
4 1 m 1x41
 4 0 l 1
 2 0 l 1x41
 2 1 l 1x42
 4 1 l 1x41
4 1 m 1
 4 4 l 1
 3 4 l 1
 3 5 l 1
 5 5 l 1x5080
 5 1 l 1x2080
 4 1 l 1
2 1 m 1x42
 1 1 l 1x22
 1 10 l 1
 2 10 l 1x82
 2 1 l 1x42
2 10 m 1x82
 2 11 l 1
 4 11 l 1x05
 4 10 l 1x81
 2 10 l 1x82
4 10 m 1x81
 5 10 l 1x8080
 5 7 l 1
 4 7 l 1x0880
 4 10 l 1x81
EndSplineSet
EndChar

StartChar: H
Encoding: 72 72 39
Width: 6
VWidth: 0
Flags: W
HStem: -9 20G<1 2 4 5> 0 21G<1 2 4 5> 5 1<2 4>
VStem: 1 1<0 5 6 11> 4 1<0 5 6 11>
LayerCount: 2
Fore
SplineSet
1 11 m 1x98
 2 11 l 1x98
 2 6 l 1
 4 6 l 1x38
 4 11 l 1
 5 11 l 1x98
 5 0 l 1
 4 0 l 1x58
 4 5 l 1
 2 5 l 1x38
 2 0 l 1
 1 0 l 1x58
 1 11 l 1x98
EndSplineSet
Validated: 1
EndChar

StartChar: I
Encoding: 73 73 40
Width: 3
VWidth: 0
Flags: W
HStem: -9 20G<1 2> 0 21G<1 2>
VStem: 1 1<0 11>
LayerCount: 2
Fore
SplineSet
1 11 m 1xa0
 2 11 l 1xa0
 2 0 l 1
 1 0 l 1x60
 1 11 l 1xa0
EndSplineSet
Validated: 1
EndChar

StartChar: J
Encoding: 74 74 41
Width: 6
VWidth: 0
Flags: W
HStem: -9 20G<4 5> 0 1<2 4> 1 2<1 2>
VStem: 1 1<1 3> 2 2<0 1> 4 1<1 11>
LayerCount: 2
Fore
SplineSet
1 3 m 1x30
 2 3 l 1x30
 2 1 l 1x50
 4 1 l 1
 4 0 l 1
 2 0 l 1x48
 2 1 l 1x50
 1 1 l 1
 1 3 l 1x30
4 1 m 1x48
 4 11 l 1
 5 11 l 1x84
 5 1 l 1x24
 4 1 l 1x48
EndSplineSet
EndChar

StartChar: K
Encoding: 75 75 42
Width: 6
VWidth: 0
Flags: W
HStem: 0 21G<1 2 4 5> 3 2<3 4> 7 2<3 4> 9 2<4 5>
VStem: 1 2<5 7> 1 1<0 5 7 11> 3 1<3 5 7 9> 4 1<0 3 9 11>
LayerCount: 2
Fore
SplineSet
1 11 m 1x14
 2 11 l 1x14
 2 7 l 1x24
 3 7 l 1
 3 5 l 1x68
 2 5 l 1x64
 2 0 l 1
 1 0 l 1x84
 1 11 l 1x14
4 3 m 1x42
 3 3 l 1x42
 3 5 l 1x48
 4 5 l 1
 4 3 l 1x42
4 3 m 1
 5 3 l 1x41
 5 0 l 1
 4 0 l 1x81
 4 3 l 1
4 9 m 1x22
 4 7 l 1x22
 3 7 l 1x28
 3 9 l 1
 4 9 l 1x22
4 9 m 1
 4 11 l 1
 5 11 l 1
 5 9 l 1x11
 4 9 l 1
EndSplineSet
EndChar

StartChar: L
Encoding: 76 76 43
Width: 6
VWidth: 0
Flags: W
HStem: -9 20G<1 2> 0 1<2 5>
VStem: 1 1<1 11>
LayerCount: 2
Fore
SplineSet
1 11 m 1xa0
 2 11 l 1xa0
 2 1 l 1
 5 1 l 1
 5 0 l 1
 1 0 l 1x60
 1 11 l 1xa0
EndSplineSet
Validated: 1
EndChar

StartChar: M
Encoding: 77 77 44
Width: 7
VWidth: 0
Flags: W
HStem: -11 20G<3 4> -9 20G<1 2 5 6> 0 21G<1 2 3 4 5 6> 9 1<2 3 4 5>
VStem: 1 2<9 10> 1 1<0 9 10 11> 4 2<9 10> 5 1<0 9 10 11>
LayerCount: 2
Fore
SplineSet
1 0 m 1x24
 1 11 l 1
 2 11 l 1x44
 2 10 l 1x14
 3 10 l 1x18
 3 9 l 1x88
 2 9 l 1x14
 2 0 l 1
 1 0 l 1x24
4 9 m 1x8a
 4 0 l 1
 3 0 l 1x2a
 3 9 l 1
 4 9 l 1x8a
4 9 m 1x82
 4 10 l 1x12
 5 10 l 1x11
 5 11 l 1
 6 11 l 1x41
 6 0 l 1
 5 0 l 1x21
 5 9 l 1x11
 4 9 l 1x82
EndSplineSet
EndChar

StartChar: N
Encoding: 78 78 45
Width: 6
VWidth: 0
Flags: W
HStem: -9 20G<1 2 4 5> 0 21G<1 2 4 5>
VStem: 1 2<6 9> 1 1<0 6 9 11> 4 1<0 3 6 11>
LayerCount: 2
Fore
SplineSet
1 0 m 1x58
 1 11 l 1
 2 11 l 1
 2 9 l 1x98
 3 9 l 1
 3 6 l 1xa8
 2 6 l 1
 2 0 l 1
 1 0 l 1x58
3 6 m 1x68
 4 6 l 1
 4 11 l 1
 5 11 l 1xa8
 5 0 l 1
 4 0 l 1
 4 3 l 1
 3 3 l 1
 3 6 l 1x68
EndSplineSet
EndChar

StartChar: O
Encoding: 79 79 46
Width: 6
VWidth: 0
Flags: W
HStem: -10 20G<1 2 4 5> 0 1<2 4> 1 21G<1 2 4 5> 10 1<2 4>
VStem: 1 1<1 10> 2 2<0 1 10 11>
LayerCount: 2
Fore
SplineSet
2 10 m 1x88
 2 11 l 1
 4 11 l 1x14
 4 10 l 1x84
 2 10 l 1x88
2 10 m 1x88
 2 1 l 1x48
 1 1 l 1x28
 1 10 l 1
 2 10 l 1x88
2 1 m 1
 4 1 l 1
 4 0 l 1
 2 0 l 1x44
 2 1 l 1
4 1 m 1
 4 10 l 1
 5 10 l 5x84
 5 1 l 1x24
 4 1 l 1
EndSplineSet
EndChar

StartChar: P
Encoding: 80 80 47
Width: 6
VWidth: 0
Flags: W
HStem: -10 20G<4 5> 0 21G<1 2> 5 1<2 4> 10 1<2 4>
VStem: 1 3<5 6 10 11> 1 1<0 5 6 10>
LayerCount: 2
Fore
SplineSet
1 0 m 1x44
 1 11 l 1
 4 11 l 1x18
 4 10 l 1x88
 2 10 l 1
 2 6 l 1x34
 4 6 l 1
 4 5 l 1x38
 2 5 l 1x34
 2 0 l 1
 1 0 l 1x44
4 6 m 1x28
 4 10 l 1
 5 10 l 1x88
 5 6 l 1
 4 6 l 1x28
EndSplineSet
EndChar

StartChar: Q
Encoding: 81 81 48
Width: 7
VWidth: 0
Flags: W
HStem: -10 20G<1 2 4 5> 0 1<2 4 5 6> 2 1<3 4> 10 1<2 4>
VStem: 1 1<1 10> 2 2<0 1 10 11> 4 1<1 2 3 10>
LayerCount: 2
Fore
SplineSet
2 10 m 1x88
 2 11 l 1
 4 11 l 1x14
 4 10 l 1x84
 2 10 l 1x88
2 10 m 1x88
 2 1 l 1
 1 1 l 1x48
 1 10 l 1
 2 10 l 1x88
2 1 m 1
 4 1 l 1
 4 0 l 1
 2 0 l 1x44
 2 1 l 1
4 10 m 1x84
 5 10 l 1x82
 5 3 l 1
 4 3 l 1x22
 4 10 l 1x84
4 3 m 1x22
 4 2 l 1
 3 2 l 1
 3 3 l 1
 4 3 l 1x22
4 2 m 1
 5 2 l 1
 5 1 l 1x62
 4 1 l 1x64
 4 2 l 1
5 1 m 1
 6 1 l 1
 6 0 l 1
 5 0 l 1
 5 1 l 1
EndSplineSet
EndChar

StartChar: R
Encoding: 82 82 49
Width: 6
VWidth: 0
Flags: W
HStem: -10 20G<4 5> 0 21G<1 2 4 5> 4 2<3 4> 5 1<2 3> 10 1<2 4>
VStem: 1 1<0 5 6 10> 4 1<0 4 6 10>
LayerCount: 2
Fore
SplineSet
1 0 m 1x46
 1 11 l 1
 4 11 l 1x0e
 4 10 l 1x86
 2 10 l 1
 2 6 l 1x1e
 4 6 l 1
 4 4 l 1
 3 4 l 1x26
 3 5 l 1
 2 5 l 1x16
 2 0 l 1
 1 0 l 1x46
4 4 m 1x26
 5 4 l 1x26
 5 0 l 1
 4 0 l 1x46
 4 4 l 1x26
4 6 m 1
 4 10 l 1
 5 10 l 1x86
 5 6 l 1x16
 4 6 l 1
EndSplineSet
EndChar

StartChar: S
Encoding: 83 83 50
Width: 6
VWidth: 0
Flags: W
HStem: 0 1<2 4> 1 2<1 2> 5 1<2 4> 8 2<4 5> 10 1<2 4>
VStem: 1 1<1 3 6 10> 2 2<0 1 5 6 10 11> 4 1<1 5 8 10>
LayerCount: 2
Fore
SplineSet
1 3 m 1x64
 2 3 l 1x64
 2 1 l 1xa4
 4 1 l 1
 4 5 l 1
 2 5 l 1xa2
 2 6 l 1
 1 6 l 1
 1 10 l 1
 2 10 l 1xac
 2 11 l 1
 4 11 l 1xaa
 4 10 l 1x32
 2 10 l 1
 2 6 l 1x2c
 4 6 l 1
 4 5 l 1x2a
 5 5 l 1
 5 1 l 1x69
 4 1 l 1
 4 0 l 1
 2 0 l 1xa2
 2 1 l 1xa4
 1 1 l 1
 1 3 l 1x64
4 10 m 1x32
 5 10 l 1
 5 8 l 1
 4 8 l 1x31
 4 10 l 1x32
EndSplineSet
EndChar

StartChar: T
Encoding: 84 84 51
Width: 7
VWidth: 0
Flags: W
HStem: 0 21G<3 4> 10 1<1 3 4 6>
VStem: 3 1<0 10>
LayerCount: 2
Fore
SplineSet
1 11 m 1x60
 6 11 l 1
 6 10 l 1
 4 10 l 1x60
 4 0 l 1
 3 0 l 1xa0
 3 10 l 1
 1 10 l 1
 1 11 l 1x60
EndSplineSet
Validated: 1
EndChar

StartChar: U
Encoding: 85 85 52
Width: 6
VWidth: 0
Flags: W
HStem: -9 20G<1 2 4 5> 0 1<2 4> 1 21G<4 5>
VStem: 1 1<1 11> 2 2<0 1> 4 1<1 11>
LayerCount: 2
Fore
SplineSet
1 11 m 1x90
 2 11 l 1x90
 2 1 l 1x50
 4 1 l 1
 4 0 l 1
 2 0 l 1x48
 2 1 l 1x50
 1 1 l 1x30
 1 11 l 1x90
4 1 m 1x48
 4 11 l 1
 5 11 l 1x84
 5 1 l 1x24
 4 1 l 1x48
EndSplineSet
EndChar

StartChar: V
Encoding: 86 86 53
Width: 7
VWidth: 0
Flags: W
HStem: -9 20G<1 2 5 6> 0 2<3 4>
VStem: 1 1<6 11> 2 1<2 6> 3 1<0 2> 4 1<2 6> 5 1<6 11>
LayerCount: 2
Fore
SplineSet
1 11 m 1xa0
 2 11 l 1
 2 6 l 1
 1 6 l 1
 1 11 l 1xa0
5 6 m 1x44
 5 2 l 1x44
 4 2 l 1x48
 4 6 l 1
 5 6 l 1x44
5 6 m 1
 5 11 l 1
 6 11 l 1
 6 6 l 1x82
 5 6 l 1
4 2 m 1x48
 4 0 l 1
 3 0 l 1x48
 3 2 l 1x50
 4 2 l 1x48
3 2 m 1x50
 2 2 l 1x50
 2 6 l 1x60
 3 6 l 1
 3 2 l 1x50
EndSplineSet
EndChar

StartChar: W
Encoding: 87 87 54
Width: 7
VWidth: 0
Flags: W
HStem: -9 20G<1 2 3 4 5 6> 0 2<2 3 4 5>
VStem: 1 1<2 11> 2 1<0 2> 3 1<2 11> 4 1<0 2> 5 1<2 11>
LayerCount: 2
Fore
SplineSet
1 11 m 1xa0
 2 11 l 1xa0
 2 2 l 1
 1 2 l 1x60
 1 11 l 1xa0
5 2 m 1x44
 5 0 l 1
 4 0 l 1x44
 4 2 l 1x48
 5 2 l 1x44
5 2 m 1
 5 11 l 1
 6 11 l 1x82
 6 2 l 1x42
 5 2 l 1
4 2 m 1x48
 3 2 l 1x50
 3 11 l 1
 4 11 l 1x88
 4 2 l 1x48
3 2 m 1
 3 0 l 1
 2 0 l 1x50
 2 2 l 1x60
 3 2 l 1
EndSplineSet
EndChar

StartChar: X
Encoding: 88 88 55
Width: 7
VWidth: 0
Flags: W
HStem: -13 20G<3 4> 0 2<1 2 5 6> 2 2<2 3 4 5> 7 2<2 3 4 5> 9 2<1 2 5 6>
VStem: 1 1<0 2 9 11> 2 1<2 4 7 9> 4 1<2 4 7 9> 5 1<0 2 9 11>
LayerCount: 2
Fore
SplineSet
1 11 m 1x0c
 2 11 l 1x0c
 2 9 l 1x14
 1 9 l 1
 1 11 l 1x0c
2 2 m 1x44
 2 4 l 1
 3 4 l 1
 3 2 l 1x22
 2 2 l 1x44
2 2 m 1x44
 2 0 l 1
 1 0 l 1
 1 2 l 1
 2 2 l 1x44
3 4 m 1x23
 3 7 l 1
 4 7 l 1x83
 4 4 l 1
 3 4 l 1x23
4 4 m 1x21
 5 4 l 1x21
 5 2 l 1x41
 4 2 l 1
 4 4 l 1x21
5 2 m 1x41
 6 2 l 1
 6 0 l 1
 5 0 l 1x4080
 5 2 l 1x41
4 7 m 1x81
 4 9 l 1
 5 9 l 1
 5 7 l 1x11
 4 7 l 1x81
5 9 m 1
 5 11 l 1
 6 11 l 1
 6 9 l 1x0880
 5 9 l 1
3 7 m 1x82
 2 7 l 1x12
 2 9 l 1x14
 3 9 l 1x12
 3 7 l 1x82
EndSplineSet
EndChar

StartChar: Y
Encoding: 89 89 56
Width: 7
VWidth: 0
Flags: W
HStem: 0 21G<3 4> 5 3<2 3 4 5> 8 3<1 2 5 6>
VStem: 1 1<8 11> 2 1<5 8> 3 1<0 5> 4 1<5 8> 5 1<8 11>
LayerCount: 2
Fore
SplineSet
1 11 m 1x30
 2 11 l 1x30
 2 8 l 1x50
 1 8 l 1
 1 11 l 1x30
5 8 m 1x42
 5 5 l 1x42
 4 5 l 1x44
 4 8 l 1
 5 8 l 1x42
5 8 m 1
 5 11 l 1
 6 11 l 1
 6 8 l 1x21
 5 8 l 1
4 5 m 1x44
 4 0 l 1
 3 0 l 1x84
 3 5 l 1x48
 4 5 l 1x44
3 5 m 1x48
 2 5 l 1x48
 2 8 l 1x50
 3 8 l 1
 3 5 l 1x48
EndSplineSet
EndChar

StartChar: Z
Encoding: 90 90 57
Width: 6
VWidth: 0
Flags: W
HStem: -11 20G<3 4> 0 1<2 5> 9 2<4 5> 10 1<1 4>
VStem: 1 1<1 3> 2 1<3 6> 3 1<6 9> 4 1<9 10>
LayerCount: 2
Fore
SplineSet
1 11 m 1x99
 5 11 l 1
 5 9 l 1x29
 4 9 l 1x82
 4 10 l 1
 1 10 l 1
 1 11 l 1x99
2 3 m 1
 2 6 l 1
 3 6 l 1
 3 3 l 1x04
 2 3 l 1
2 3 m 1x49
 2 1 l 1
 5 1 l 1
 5 0 l 1
 1 0 l 1
 1 3 l 1
 2 3 l 1x49
3 6 m 1x84
 3 9 l 1
 4 9 l 1
 4 6 l 1x82
 3 6 l 1x84
EndSplineSet
EndChar

StartChar: bracketleft
Encoding: 91 91 58
Width: 6
VWidth: 0
Flags: W
HStem: -2 2<3 5> 10 2<3 5>
VStem: 1 4<-2 0 10 12>
LayerCount: 2
Fore
SplineSet
1 12 m 1
 5 12 l 1
 5 10 l 1
 3 10 l 1
 3 0 l 1
 5 0 l 1
 5 -2 l 1
 1 -2 l 1
 1 12 l 1
EndSplineSet
EndChar

StartChar: backslash
Encoding: 92 92 60
Width: 5
VWidth: 0
Flags: W
HStem: -13 20G<2 3> -9 20G<1 2> 0 21G<3 4> 7 21G<1 2>
VStem: 1 1<7 11> 2 1<4 7> 3 1<0 4>
LayerCount: 2
Fore
SplineSet
4 0 m 1x22
 3 0 l 1x22
 3 4 l 1
 2 4 l 1x24
 2 7 l 1x88
 3 7 l 1
 3 4 l 1x84
 4 4 l 1
 4 0 l 1x22
2 7 m 1x88
 1 7 l 1x18
 1 11 l 1
 2 11 l 1x48
 2 7 l 1x88
EndSplineSet
EndChar

StartChar: asciicircum
Encoding: 94 94 61
Width: 7
VWidth: 0
Flags: W
HStem: 8 1<1 2 5 6> 9 1<2 3 4 5>
VStem: 1 1<8 9> 2 1<9 10> 4 1<9 10> 5 1<8 9>
LayerCount: 2
Fore
SplineSet
1 8 m 1xa0
 1 9 l 1
 2 9 l 1xa0
 2 10 l 1
 3 10 l 1
 3 11 l 1
 4 11 l 1
 4 10 l 1
 5 10 l 1x58
 5 9 l 1x98
 6 9 l 1
 6 8 l 1
 5 8 l 1x84
 5 9 l 1x88
 4 9 l 1
 4 10 l 1
 3 10 l 1
 3 9 l 1x58
 2 9 l 1
 2 8 l 1
 1 8 l 1xa0
EndSplineSet
EndChar

StartChar: underscore
Encoding: 95 95 62
Width: 6
VWidth: 0
Flags: W
HStem: -1 1<1 5>
LayerCount: 2
Fore
SplineSet
1 0 m 1
 5 0 l 1
 5 -1 l 1
 1 -1 l 1
 1 0 l 1
EndSplineSet
Validated: 1
EndChar

StartChar: grave
Encoding: 96 96 64
Width: 5
VWidth: 0
Flags: W
HStem: 8 1<3 4> 9 1<2 3> 10 1<1 2>
VStem: 1 1<10 11> 2 1<9 10> 3 1<8 9>
LayerCount: 2
Fore
SplineSet
1 11 m 1x30
 2 11 l 1x30
 2 10 l 1x50
 3 10 l 1x48
 3 9 l 1x88
 2 9 l 1x48
 2 10 l 1x50
 1 10 l 1
 1 11 l 1x30
3 9 m 1x88
 4 9 l 1
 4 8 l 1
 3 8 l 1x84
 3 9 l 1x88
EndSplineSet
EndChar

StartChar: a
Encoding: 97 97 65
Width: 6
VWidth: 0
Flags: W
HStem: 0 1<2 3> 1 1<3 4> 4 1<2 4> 6 1<1 2> 7 1<2 4>
VStem: 1 1<1 4 6 7> 2 1<0 1> 3 2<1 2> 4 1<0 1 2 4 5 7>
LayerCount: 2
Fore
SplineSet
2 7 m 1x34
 2 6 l 1
 1 6 l 1
 1 7 l 1
 2 7 l 1x34
2 7 m 1
 2 8 l 1
 4 8 l 1
 4 7 l 1x2a80
 2 7 l 1
4 7 m 1
 5 7 l 1
 5 0 l 1
 4 0 l 1xaa80
 4 1 l 1x6280
 3 1 l 1xa280
 3 2 l 1x61
 4 2 l 1
 4 4 l 1
 2 4 l 1x6480
 2 5 l 1
 4 5 l 1
 4 7 l 1
3 1 m 1
 3 0 l 1
 2 0 l 1xa2
 2 1 l 1xa4
 3 1 l 1
2 4 m 1x64
 2 1 l 1xa4
 1 1 l 1
 1 4 l 1
 2 4 l 1x64
EndSplineSet
EndChar

StartChar: b
Encoding: 98 98 66
Width: 6
VWidth: 0
Flags: W
HStem: -9 20G<1 2> 0 1<3 4> 1 1<2 3> 6 1<2 3> 7 1<3 4>
VStem: 1 2<1 2 6 7> 1 1<0 1 2 6 7 11> 3 1<0 1 7 8>
LayerCount: 2
Fore
SplineSet
3 8 m 1x09
 4 8 l 1
 4 7 l 1x09
 3 7 l 1x14
 3 8 l 1x09
1 11 m 1x82
 2 11 l 1x82
 2 7 l 1x12
 3 7 l 1
 3 6 l 1x14
 2 6 l 1
 2 2 l 1x32
 3 2 l 1x34
 3 1 l 1x44
 2 1 l 1x22
 2 0 l 1
 1 0 l 1x42
 1 11 l 1x82
4 7 m 1x49
 5 7 l 1
 5 1 l 1x29
 4 1 l 1
 4 7 l 1x49
4 1 m 1x41
 4 0 l 1
 3 0 l 1x41
 3 1 l 1x44
 4 1 l 1x41
EndSplineSet
EndChar

StartChar: c
Encoding: 99 99 67
Width: 6
VWidth: 0
Flags: W
HStem: 0 1<2 4> 1 2<4 5> 5 2<4 5> 7 1<2 4>
VStem: 1 1<1 7> 2 2<0 1 7 8> 4 1<1 3 5 7>
LayerCount: 2
Fore
SplineSet
4 7 m 1x24
 2 7 l 1x18
 2 8 l 1
 4 8 l 1x14
 4 7 l 1x24
4 7 m 1x24
 5 7 l 1
 5 5 l 1
 4 5 l 1x22
 4 7 l 1x24
2 7 m 1x58
 2 1 l 1x98
 1 1 l 1
 1 7 l 1
 2 7 l 1x58
2 1 m 1
 4 1 l 1
 4 0 l 1
 2 0 l 1x84
 2 1 l 1
4 1 m 1
 4 3 l 1
 5 3 l 1
 5 1 l 1x42
 4 1 l 1
EndSplineSet
EndChar

StartChar: d
Encoding: 100 100 68
Width: 6
VWidth: 0
Flags: W
HStem: -9 20G<4 5> 0 1<2 3> 1 1<3 4> 6 1<3 4> 7 1<2 3>
VStem: 1 1<1 7> 2 1<0 1 7 8> 3 2<1 2 6 7> 4 1<0 1 2 6 7 11>
LayerCount: 2
Fore
SplineSet
5 11 m 1x8280
 5 0 l 1
 4 0 l 1x4280
 4 1 l 1x2280
 3 1 l 1
 3 0 l 1
 2 0 l 1x4280
 2 1 l 1x44
 1 1 l 1
 1 7 l 1
 2 7 l 1x2c
 2 8 l 1
 3 8 l 1x2a
 3 7 l 1x12
 2 7 l 1
 2 1 l 1x4c
 3 1 l 1x4a
 3 2 l 1x21
 4 2 l 1
 4 6 l 1x3080
 3 6 l 1x31
 3 7 l 1
 4 7 l 1x3280
 4 11 l 1
 5 11 l 1x8280
EndSplineSet
EndChar

StartChar: e
Encoding: 101 101 69
Width: 6
VWidth: 0
Flags: W
HStem: -13 20G<1 2 4 5> 0 1<2 4> 1 2<4 5> 4 1<2 4> 7 1<2 4>
VStem: 1 1<1 4 5 7> 2 2<0 1 7 8> 4 1<1 3 5 7>
LayerCount: 2
Fore
SplineSet
4 7 m 1x82
 2 7 l 1x84
 2 8 l 1
 4 8 l 1x0a
 4 7 l 1x82
4 7 m 1x82
 5 7 l 1x81
 5 4 l 1
 2 4 l 1
 2 1 l 1x55
 1 1 l 1x25
 1 7 l 1
 2 7 l 1x85
 2 5 l 1
 4 5 l 1x15
 4 7 l 1x82
2 1 m 1x44
 4 1 l 1
 4 0 l 1
 2 0 l 1x42
 2 1 l 1x44
4 1 m 1
 4 3 l 1
 5 3 l 1
 5 1 l 1x21
 4 1 l 1
EndSplineSet
EndChar

StartChar: f
Encoding: 102 102 70
Width: 6
VWidth: 0
Flags: W
HStem: -10 20G<2 3> 0 21G<2 3> 5 1<1 2 3 5>
VStem: 2 1<0 5 6 10>
LayerCount: 2
Fore
SplineSet
1 6 m 1x30
 2 6 l 1x30
 2 10 l 1
 3 10 l 1x90
 3 6 l 1
 5 6 l 1
 5 5 l 1
 3 5 l 1x30
 3 0 l 1
 2 0 l 1x50
 2 5 l 1
 1 5 l 1
 1 6 l 1x30
3 10 m 1x90
 3 11 l 1
 5 11 l 1
 5 10 l 1
 3 10 l 1x90
EndSplineSet
EndChar

StartChar: g
Encoding: 103 103 71
Width: 6
VWidth: 0
Flags: W
HStem: -2 1<1 4> -1 21G<4 5> -1 21G<4 5> 0 1<2 3> 1 1<3 4> 6 1<3 4> 7 1<2 3>
VStem: 1 1<1 7> 2 1<0 1 7 8> 3 2<1 2 6 7> 4 1<-1 1 2 6 7 8>
LayerCount: 2
Fore
SplineSet
2 8 m 1x0280
 3 8 l 1x0280
 3 7 l 1x0480
 2 7 l 1x03
 2 8 l 1x0280
1 -2 m 1x8120
 1 -1 l 1
 4 -1 l 1
 4 -2 l 1
 1 -2 l 1x8120
2 1 m 1x11
 3 1 l 1
 3 0 l 1
 2 0 l 1x1080
 2 1 l 1x11
2 1 m 1x13
 1 1 l 1x09
 1 7 l 1
 2 7 l 1
 2 1 l 1x13
3 7 m 1x0c80
 4 7 l 1x0ca0
 4 8 l 1
 5 8 l 1x02a0
 5 -1 l 1x40a0
 4 -1 l 1
 4 1 l 1x88a0
 3 1 l 1x10a0
 3 2 l 1x0840
 4 2 l 1
 4 6 l 1x0c20
 3 6 l 1x0c40
 3 7 l 1x0c80
EndSplineSet
EndChar

StartChar: h
Encoding: 104 104 72
Width: 6
VWidth: 0
Flags: W
HStem: -9 20G<1 2> 0 21G<1 2 4 5> 6 1<2 3> 7 1<3 4>
VStem: 1 2<6 7> 1 1<0 6 7 11> 4 1<0 7>
LayerCount: 2
Fore
SplineSet
1 11 m 1x86
 2 11 l 1x86
 2 7 l 1x26
 3 7 l 1
 3 6 l 1x2a
 2 6 l 1x26
 2 0 l 1
 1 0 l 1x46
 1 11 l 1x86
4 7 m 1x1a
 3 7 l 1x2a
 3 8 l 1
 4 8 l 1
 4 7 l 1x1a
4 7 m 1x12
 5 7 l 1x12
 5 0 l 1
 4 0 l 1x42
 4 7 l 1x12
EndSplineSet
EndChar

StartChar: i
Encoding: 105 105 73
Width: 3
VWidth: 0
Flags: W
HStem: -12 20G<1 2> 0 21G<1 2> 9 2<1 2>
VStem: 1 1<0 8 9 11>
LayerCount: 2
Fore
SplineSet
1 8 m 1x90
 2 8 l 1x90
 2 0 l 1
 1 0 l 1x50
 1 8 l 1x90
1 11 m 1x30
 2 11 l 1
 2 9 l 1
 1 9 l 1
 1 11 l 1x30
EndSplineSet
Validated: 1
EndChar

StartChar: j
Encoding: 106 106 74
Width: 5
VWidth: 0
Flags: W
HStem: -12 20G<3 4> -2 1<1 3> -1 21G<3 4> -1 21G<3 4> 9 2<3 4>
VStem: 1 2<-2 -1> 3 1<-1 8 9 11>
LayerCount: 2
Fore
SplineSet
3 11 m 1x0a
 4 11 l 1
 4 9 l 1
 3 9 l 1
 3 11 l 1x0a
3 -1 m 1x44
 3 -2 l 1
 1 -2 l 1
 1 -1 l 1
 3 -1 l 1x44
3 -1 m 1
 3 8 l 1
 4 8 l 1x82
 4 -1 l 1x22
 3 -1 l 1
EndSplineSet
EndChar

StartChar: k
Encoding: 107 107 75
Width: 6
VWidth: 0
Flags: W
HStem: -9 20G<1 2> 0 2<4 5> 5 1<2 3> 6 1<3 4> 7 1<4 5>
VStem: 1 2<5 6> 1 1<0 5 6 11> 3 1<2 5 6 7> 4 1<0 2 7 8>
LayerCount: 2
Fore
SplineSet
1 11 m 1x82
 2 11 l 1x82
 2 6 l 1x22
 3 6 l 1x24
 3 7 l 1
 4 7 l 1
 4 6 l 1x11
 3 6 l 1
 3 5 l 1x24
 2 5 l 1
 2 0 l 1
 1 0 l 1x62
 1 11 l 1x82
4 7 m 1x11
 4 8 l 1
 5 8 l 1
 5 7 l 1x0880
 4 7 l 1x11
4 2 m 1x61
 3 2 l 1x61
 3 5 l 1x64
 4 5 l 1
 4 2 l 1x61
4 2 m 1
 5 2 l 1
 5 0 l 1
 4 0 l 1x4080
 4 2 l 1
EndSplineSet
EndChar

StartChar: l
Encoding: 108 108 76
Width: 3
VWidth: 0
Flags: W
HStem: -9 20G<1 2> 0 21G<1 2>
VStem: 1 1<0 11>
LayerCount: 2
Fore
SplineSet
1 11 m 1xa0
 2 11 l 1xa0
 2 0 l 1
 1 0 l 1x60
 1 11 l 1xa0
EndSplineSet
Validated: 1
EndChar

StartChar: m
Encoding: 109 109 77
Width: 7
VWidth: 0
Flags: W
HStem: -13 20G<3 4 5 6> 0 21G<1 2 3 4 5 6> 7 1<2 3 4 5>
VStem: 1 2<7 8> 1 1<0 7> 3 1<0 7> 4 1<7 8> 5 1<0 7>
LayerCount: 2
Fore
SplineSet
1 0 m 1x48
 1 8 l 1
 3 8 l 1x30
 3 7 l 1x90
 2 7 l 1x28
 2 0 l 1
 1 0 l 1x48
5 7 m 1x82
 4 7 l 1x84
 4 8 l 1
 5 8 l 1x22
 5 7 l 1x82
5 7 m 1x82
 6 7 l 1x81
 6 0 l 1
 5 0 l 1x41
 5 7 l 1x82
4 7 m 1x84
 4 0 l 1
 3 0 l 1x44
 3 7 l 1x90
 4 7 l 1x84
EndSplineSet
EndChar

StartChar: n
Encoding: 110 110 78
Width: 6
VWidth: 0
Flags: W
HStem: 0 21G<1 2 4 5> 6 1<2 3> 7 1<3 4>
VStem: 1 2<6 7> 1 1<0 6 7 8> 4 1<0 7>
LayerCount: 2
Fore
SplineSet
1 8 m 1x2c
 2 8 l 1x2c
 2 7 l 1x4c
 3 7 l 1
 3 6 l 1x54
 2 6 l 1x4c
 2 0 l 1
 1 0 l 1x8c
 1 8 l 1x2c
4 7 m 1
 3 7 l 1x54
 3 8 l 1x34
 4 8 l 1
 4 7 l 1
4 7 m 1x24
 5 7 l 1x24
 5 0 l 1
 4 0 l 1x84
 4 7 l 1x24
EndSplineSet
EndChar

StartChar: o
Encoding: 111 111 79
Width: 6
VWidth: 0
Flags: W
HStem: -13 20G<1 2 4 5> 0 1<2 4> 1 21G<4 5> 7 1<2 4>
VStem: 1 1<1 7> 2 2<0 1 7 8>
LayerCount: 2
Fore
SplineSet
1 1 m 1x28
 1 7 l 1
 2 7 l 1x88
 2 1 l 1x48
 4 1 l 1
 4 0 l 1
 2 0 l 1x44
 2 1 l 1x48
 1 1 l 1x28
4 1 m 1x44
 4 7 l 1
 5 7 l 1x84
 5 1 l 1x24
 4 1 l 1x44
4 7 m 1
 2 7 l 1x88
 2 8 l 1
 4 8 l 1x14
 4 7 l 1
EndSplineSet
EndChar

StartChar: p
Encoding: 112 112 80
Width: 6
VWidth: 0
Flags: W
HStem: -2 21G<1 2> 0 1<3 4> 1 1<2 3> 6 1<2 3> 7 1<3 4>
VStem: 1 2<1 2 6 7> 1 1<-2 1 2 6 7 8> 3 1<0 1 7 8>
LayerCount: 2
Fore
SplineSet
1 8 m 1x0a
 2 8 l 1x0a
 2 7 l 1x12
 3 7 l 1
 3 6 l 1x14
 2 6 l 1
 2 2 l 1x32
 3 2 l 1x34
 3 1 l 1x44
 4 1 l 1
 4 0 l 1
 3 0 l 1x41
 3 1 l 1x44
 2 1 l 1x22
 2 -2 l 1
 1 -2 l 1x82
 1 8 l 1x0a
4 1 m 1x41
 4 7 l 1
 5 7 l 1
 5 1 l 1x29
 4 1 l 1x41
4 7 m 1
 3 7 l 1x14
 3 8 l 1
 4 8 l 1
 4 7 l 1
EndSplineSet
EndChar

StartChar: q
Encoding: 113 113 81
Width: 6
VWidth: 0
Flags: W
HStem: -2 21G<4 5> 0 1<2 3> 1 1<3 4> 6 1<3 4> 7 1<2 3>
VStem: 1 1<1 7> 2 1<0 1 7 8> 3 2<1 2 6 7> 4 1<-2 1 2 6 7 8>
LayerCount: 2
Fore
SplineSet
5 8 m 1x0a80
 5 -2 l 1
 4 -2 l 1x8280
 4 1 l 1x2280
 3 1 l 1
 3 0 l 1
 2 0 l 1x4280
 2 1 l 1x44
 3 1 l 1x42
 3 2 l 1x21
 4 2 l 1
 4 6 l 1x3080
 3 6 l 1x31
 3 7 l 1
 4 7 l 1x3280
 4 8 l 1
 5 8 l 1x0a80
2 1 m 1x4c
 1 1 l 1x24
 1 7 l 1
 2 7 l 1
 2 1 l 1x4c
2 7 m 1x0c
 2 8 l 1
 3 8 l 1x0a
 3 7 l 1x12
 2 7 l 1x0c
EndSplineSet
EndChar

StartChar: r
Encoding: 114 114 82
Width: 5
VWidth: 0
Flags: W
HStem: 0 21G<1 2> 7 1<3 4>
VStem: 1 2<6 7> 1 1<0 6 7 8>
LayerCount: 2
Fore
SplineSet
1 8 m 1x50
 2 8 l 1
 2 7 l 1x50
 3 7 l 1
 3 6 l 1x60
 2 6 l 1
 2 0 l 1
 1 0 l 1x90
 1 8 l 1x50
3 7 m 1x60
 3 8 l 1
 4 8 l 1
 4 7 l 1
 3 7 l 1x60
EndSplineSet
EndChar

StartChar: s
Encoding: 115 115 83
Width: 6
VWidth: 0
Flags: W
HStem: 0 1<2 4> 1 2<1 2> 4 1<2 4> 5 2<1 2> 6 1<4 5> 7 1<2 4>
VStem: 1 1<1 3 5 7> 2 2<0 1 4 5 7 8> 4 1<1 4 6 7>
LayerCount: 2
Fore
SplineSet
1 3 m 1x42
 2 3 l 1x42
 2 1 l 1x82
 4 1 l 1
 4 4 l 1
 2 4 l 1xa1
 2 5 l 1xa2
 1 5 l 1
 1 7 l 1
 2 7 l 1x12
 2 8 l 1
 4 8 l 1x05
 4 7 l 1x09
 2 7 l 1x12
 2 5 l 1x22
 4 5 l 1
 4 4 l 1x21
 5 4 l 1
 5 1 l 1x6080
 4 1 l 1
 4 0 l 1
 2 0 l 1x81
 2 1 l 1x82
 1 1 l 1
 1 3 l 1x42
4 7 m 1x09
 5 7 l 1
 5 6 l 1
 4 6 l 1x0880
 4 7 l 1x09
EndSplineSet
EndChar

StartChar: t
Encoding: 116 116 84
Width: 6
VWidth: 0
Flags: W
HStem: -9 20G<2 3> 0 1<3 5> 7 1<1 2 3 5>
VStem: 2 1<1 7 8 11>
LayerCount: 2
Fore
SplineSet
2 11 m 1x90
 3 11 l 1x90
 3 8 l 1
 5 8 l 1
 5 7 l 1
 3 7 l 1
 3 1 l 1
 5 1 l 1
 5 0 l 1
 3 0 l 1
 3 1 l 1
 2 1 l 1
 2 7 l 1
 1 7 l 1
 1 8 l 1
 2 8 l 1x70
 2 11 l 1x90
EndSplineSet
EndChar

StartChar: u
Encoding: 117 117 85
Width: 6
VWidth: 0
Flags: W
HStem: -12 20G<1 2 4 5> 0 1<2 3> 1 1<3 4>
VStem: 1 1<1 8> 2 1<0 1> 3 2<1 2> 4 1<0 1 2 8>
LayerCount: 2
Fore
SplineSet
1 8 m 1x90
 2 8 l 1x90
 2 1 l 1x50
 3 1 l 1
 3 0 l 1
 2 0 l 1x48
 2 1 l 1x50
 1 1 l 1x30
 1 8 l 1x90
3 1 m 1x4a
 3 2 l 1x24
 4 2 l 1x22
 4 8 l 1
 5 8 l 1x82
 5 0 l 1
 4 0 l 1x42
 4 1 l 1x22
 3 1 l 1x4a
EndSplineSet
EndChar

StartChar: v
Encoding: 118 118 86
Width: 7
VWidth: 0
Flags: W
HStem: 0 2<3 4> 2 3<2 3 4 5> 5 3<1 2 5 6>
VStem: 1 1<5 8> 2 1<2 5> 3 1<0 2> 4 1<2 5> 5 1<5 8>
LayerCount: 2
Fore
SplineSet
1 8 m 1x30
 2 8 l 1x30
 2 5 l 1x50
 1 5 l 1
 1 8 l 1x30
5 5 m 1x42
 5 2 l 1x42
 4 2 l 1x84
 4 5 l 1
 5 5 l 1x42
5 5 m 1
 5 8 l 1
 6 8 l 1
 6 5 l 1x21
 5 5 l 1
4 2 m 1x84
 4 0 l 1
 3 0 l 1x84
 3 2 l 1x88
 4 2 l 1x84
3 2 m 1x88
 2 2 l 1x48
 2 5 l 1x50
 3 5 l 1x48
 3 2 l 1x88
EndSplineSet
EndChar

StartChar: w
Encoding: 119 119 87
Width: 7
VWidth: 0
Flags: W
HStem: -12 20G<1 2 3 4 5 6> 0 1<2 3 4 5> 1 21G<3 4 5 6>
VStem: 1 2<0 1> 1 1<1 8> 3 1<1 8> 4 1<0 1> 5 1<1 8>
LayerCount: 2
Fore
SplineSet
1 8 m 1x88
 2 8 l 1x88
 2 1 l 1x48
 3 1 l 1
 3 0 l 1
 1 0 l 1x50
 1 8 l 1x88
5 1 m 1x42
 5 0 l 1
 4 0 l 1x42
 4 1 l 1x44
 5 1 l 1x42
5 1 m 1
 5 8 l 1
 6 8 l 1x81
 6 1 l 1x21
 5 1 l 1
4 1 m 1x44
 3 1 l 1x50
 3 8 l 1
 4 8 l 1x84
 4 1 l 1x44
EndSplineSet
EndChar

StartChar: x
Encoding: 120 120 88
Width: 7
VWidth: 0
Flags: W
HStem: 0 2<1 2 5 6> 2 2<2 3 4 5> 5 1<2 3 4 5> 6 2<1 2 5 6>
VStem: 1 1<0 2 6 8> 2 1<2 4 5 6> 4 1<2 4 5 6> 5 1<0 2 6 8>
LayerCount: 2
Fore
SplineSet
1 0 m 1x88
 1 2 l 1
 2 2 l 1
 2 0 l 1
 1 0 l 1x88
2 6 m 1x28
 3 6 l 1
 3 5 l 1
 2 5 l 1x24
 2 6 l 1x28
2 6 m 1x28
 1 6 l 1
 1 8 l 1
 2 8 l 1x18
 2 6 l 1x28
3 5 m 1x66
 4 5 l 1
 4 4 l 1
 3 4 l 1
 3 5 l 1x66
4 5 m 1
 4 6 l 1
 5 6 l 1
 5 5 l 1
 4 5 l 1
5 6 m 1
 5 8 l 1
 6 8 l 1
 6 6 l 1x11
 5 6 l 1
4 4 m 1x42
 5 4 l 1x42
 5 2 l 1x82
 4 2 l 1
 4 4 l 1x42
5 2 m 1x82
 6 2 l 1
 6 0 l 1
 5 0 l 1x81
 5 2 l 1x82
3 4 m 1x44
 3 2 l 1x44
 2 2 l 1x88
 2 4 l 1
 3 4 l 1x44
EndSplineSet
EndChar

StartChar: y
Encoding: 121 121 89
Width: 7
VWidth: 0
Flags: W
HStem: -2 1<1 3> -1 21G<3 4> -1 21G<3 4> 2 3<2 3 4 5> 5 3<1 2 5 6>
VStem: 1 1<5 8> 2 1<2 5> 3 1<-1 2> 4 1<2 5> 5 1<5 8>
LayerCount: 2
Fore
SplineSet
1 8 m 1x0c
 2 8 l 1x0c
 2 5 l 1x14
 1 5 l 1
 1 8 l 1x0c
3 -1 m 1x85
 3 -2 l 1
 1 -2 l 1
 1 -1 l 1
 3 -1 l 1x85
3 -1 m 1
 3 2 l 1x92
 4 2 l 1x91
 4 -1 l 1x41
 3 -1 l 1
4 2 m 1x11
 4 5 l 1
 5 5 l 1
 5 2 l 1x1080
 4 2 l 1x11
5 5 m 1
 5 8 l 1
 6 8 l 1
 6 5 l 1x0840
 5 5 l 1
3 2 m 1x12
 2 2 l 1x12
 2 5 l 1x14
 3 5 l 1
 3 2 l 1x12
EndSplineSet
EndChar

StartChar: z
Encoding: 122 122 90
Width: 6
VWidth: 0
Flags: W
HStem: 0 2<1 2> 0 1<2 5> 2 2<2 3> 4 2<3 4> 6 2<4 5> 7 1<1 4>
VStem: 1 1<1 2> 2 1<2 4> 3 1<4 6> 4 1<6 7>
LayerCount: 2
Fore
SplineSet
1 8 m 1x1640
 5 8 l 1
 5 6 l 1x0a40
 4 6 l 1x1080
 4 7 l 1
 1 7 l 1
 1 8 l 1x1640
2 2 m 1x8240
 2 1 l 1
 5 1 l 1
 5 0 l 1x4240
 1 0 l 1
 1 2 l 1
 2 2 l 1x8240
2 2 m 1x82
 2 4 l 1
 3 4 l 1x21
 3 6 l 1
 4 6 l 1
 4 4 l 1x1080
 3 4 l 1
 3 2 l 1x21
 2 2 l 1x82
EndSplineSet
EndChar

StartChar: braceleft
Encoding: 123 123 91
Width: 5
VWidth: 0
Flags: W
HStem: -9 20G<2 3> -1 1<3 4> 0 21G<2 3> 5 1<1 2> 11 1<3 4>
VStem: 1 1<5 6> 2 1<0 5 6 11> 3 1<-1 0 11 12>
LayerCount: 2
Fore
SplineSet
3 12 m 1x09
 4 12 l 1
 4 11 l 1x09
 3 11 l 1x82
 3 12 l 1x09
3 0 m 1x52
 2 0 l 1x22
 2 5 l 1x14
 3 5 l 1
 3 0 l 1x52
3 0 m 1x42
 4 0 l 1
 4 -1 l 1
 3 -1 l 1x41
 3 0 l 1x42
2 5 m 1x14
 1 5 l 1
 1 6 l 1
 2 6 l 1
 2 5 l 1x14
2 6 m 1
 2 11 l 1
 3 11 l 1x82
 3 6 l 1x12
 2 6 l 1
EndSplineSet
EndChar

StartChar: bar
Encoding: 124 124 92
Width: 3
VWidth: 0
Flags: W
HStem: -8 20G<1 2> -1 21G<1 2> -1 21G<1 2>
VStem: 1 1<-1 12>
LayerCount: 2
Fore
SplineSet
1 12 m 1x90
 2 12 l 1x90
 2 -1 l 1
 1 -1 l 1x50
 1 12 l 1x90
EndSplineSet
Validated: 1
EndChar

StartChar: asciitilde
Encoding: 126 126 94
Width: 10
VWidth: 0
Flags: W
HStem: 4 1<6 8> 5 1<1 2 8 9>
VStem: 1 1<5 6> 4 2<5 6> 8 1<5 6>
CounterMasks: 1 38
LayerCount: 2
Fore
SplineSet
1 5 m 1x78
 1 6 l 1
 2 6 l 1
 2 7 l 1
 5 7 l 1
 5 6 l 1
 6 6 l 1x78
 6 5 l 1
 8 5 l 1
 8 4 l 1
 5 4 l 1xb8
 5 5 l 1
 4 5 l 1
 4 6 l 1
 2 6 l 1
 2 5 l 1
 1 5 l 1x78
8 5 m 1xb8
 8 6 l 1
 9 6 l 1
 9 5 l 1x78
 8 5 l 1xb8
EndSplineSet
EndChar

StartChar: cent
Encoding: 162 162 96
Width: 6
VWidth: 0
Flags: W
HStem: 1 2<2 3> 2 1<3 4> 3 1<4 5> 6 1<4 5> 7 2<3 4> 7 1<2 3>
VStem: 1 1<3 7> 2 1<1 2> 3 1<8 9> 4 1<3 4 6 7>
LayerCount: 2
Fore
SplineSet
2 7 m 1x0640
 2 8 l 1x05
 3 8 l 1x0480
 3 9 l 1
 4 9 l 1x0880
 4 7 l 1x1040
 2 7 l 1x0640
2 7 m 1x26
 2 3 l 1x86
 1 3 l 1
 1 7 l 1
 2 7 l 1x26
2 3 m 1
 4 3 l 1
 4 2 l 1
 3 2 l 1x4140
 3 1 l 1
 2 1 l 1x8140
 2 3 l 1
4 3 m 1
 4 4 l 1
 5 4 l 1
 5 3 l 1x2040
 4 3 l 1
4 7 m 1x1040
 5 7 l 1
 5 6 l 1
 4 6 l 1
 4 7 l 1x1040
EndSplineSet
EndChar

StartChar: sterling
Encoding: 163 163 97
Width: 7
VWidth: 0
Flags: W
HStem: 0 1<1 2 3 6> 5 1<1 2 3 5> 10 1<3 5>
VStem: 2 1<1 5 6 10> 5 1<9 10>
CounterMasks: 1 e0
LayerCount: 2
Fore
SplineSet
1 1 m 1
 2 1 l 1
 2 5 l 1
 1 5 l 1
 1 6 l 1
 2 6 l 1
 2 10 l 1
 3 10 l 1
 3 6 l 1
 5 6 l 1
 5 5 l 1
 3 5 l 1
 3 1 l 1
 6 1 l 1
 6 0 l 1
 1 0 l 1
 1 1 l 1
5 10 m 1
 6 10 l 1
 6 9 l 1
 5 9 l 1
 5 10 l 1
5 10 m 1
 3 10 l 1
 3 11 l 1
 5 11 l 1
 5 10 l 1
EndSplineSet
EndChar

StartChar: currency
Encoding: 164 164 98
Width: 7
VWidth: 0
Flags: W
HStem: 3 1<1 2 5 6> 6 1<3 4> 7 1<1 2 5 6>
VStem: 1 1<3 4 7 8> 4 1<5 6> 5 1<3 4 7 8>
LayerCount: 2
Fore
SplineSet
4 6 m 1xd8
 3 6 l 1
 3 5 l 1
 4 5 l 1
 4 6 l 1xd8
1 8 m 1xb0
 2 8 l 1
 2 7 l 1
 1 7 l 1
 1 8 l 1xb0
2 4 m 1
 2 7 l 1
 5 7 l 1
 5 4 l 1
 6 4 l 1
 6 3 l 1
 5 3 l 1
 5 4 l 1xb4
 2 4 l 1
2 4 m 1
 2 3 l 1
 1 3 l 1
 1 4 l 1
 2 4 l 1
5 7 m 1
 5 8 l 1
 6 8 l 1
 6 7 l 1
 5 7 l 1
EndSplineSet
EndChar

StartChar: yen
Encoding: 165 165 99
Width: 13
VWidth: 0
HStem: 0 21G<3 4> 2 1<1 3 4 6> 4 1<1 3 4 6> 6 2<2 3 4 5> 8 3<1 2 5 6>
VStem: 1 1<8 11> 2 1<6 8> 3 1<0 2 3 4 5 6> 5 1<8 11>
LayerCount: 2
Fore
SplineSet
1 11 m 1x0c80
 2 11 l 1x0c80
 2 8 l 1x1480
 1 8 l 1
 1 11 l 1x0c80
5 8 m 1x1180
 5 6 l 1
 4 6 l 1
 4 8 l 1
 5 8 l 1x1180
5 8 m 1
 5 11 l 1
 6 11 l 1
 6 8 l 1x0880
 5 8 l 1
4 6 m 1x7180
 4 5 l 1
 6 5 l 1
 6 4 l 1
 4 4 l 1
 4 3 l 1
 6 3 l 1
 6 2 l 1
 4 2 l 1x7180
 4 0 l 1
 3 0 l 1x8180
 3 2 l 1
 1 2 l 1
 1 3 l 1
 3 3 l 1
 3 4 l 1
 1 4 l 1
 1 5 l 1
 3 5 l 1x6580
 3 6 l 1x7280
 4 6 l 1x7180
3 6 m 1x1280
 2 6 l 1x1280
 2 8 l 1x1480
 3 8 l 1
 3 6 l 1x1280
EndSplineSet
EndChar

StartChar: brokenbar
Encoding: 166 166 100
Width: 3
VWidth: 0
Flags: W
HStem: -9 20G<1 2> 0 21G<1 2>
VStem: 1 1<0 5 6 11>
LayerCount: 2
Fore
SplineSet
1 5 m 1x60
 2 5 l 1
 2 0 l 1
 1 0 l 1
 1 5 l 1x60
1 11 m 1xa0
 2 11 l 1
 2 6 l 1
 1 6 l 1
 1 11 l 1xa0
EndSplineSet
EndChar

StartChar: section
Encoding: 167 167 101
Width: 6
VWidth: 0
Flags: W
HStem: -10 20G<4 5> -1 1<2 4> 0 1<4 5> 2 1<4 5> 4 1<2 3> 5 1<3 4> 7 2<2 3> 10 1<2 4>
VStem: 1 1<0 4> 2 1<4 5 7 9> 4 1<0 1 2 3 6 10>
LayerCount: 2
Fore
SplineSet
2 11 m 1x0160
 4 11 l 1x0160
 4 10 l 1x8060
 2 10 l 1
 2 11 l 1x0160
2 9 m 1x0260
 3 9 l 1
 3 7 l 1
 2 7 l 1
 2 9 l 1x0260
4 2 m 1x1020
 4 3 l 1
 5 3 l 1
 5 2 l 1
 4 2 l 1x1020
4 0 m 1x40a0
 4 -1 l 1
 2 -1 l 1x4060
 2 0 l 1
 4 0 l 1x40a0
4 0 m 1
 4 1 l 1
 5 1 l 1
 5 0 l 1x2020
 4 0 l 1
2 0 m 1x48a0
 1 0 l 1x20a0
 1 4 l 1
 2 4 l 1
 2 0 l 1x48a0
2 4 m 1x08a0
 2 5 l 1
 3 5 l 1
 3 4 l 1x0860
 2 4 l 1x08a0
3 5 m 1
 3 6 l 1
 4 6 l 1
 4 5 l 1x0460
 3 5 l 1
4 6 m 1
 4 10 l 1
 5 10 l 1x8020
 5 6 l 1
 4 6 l 1
EndSplineSet
EndChar

StartChar: dieresis
Encoding: 168 168 102
Width: 6
VWidth: 0
Flags: W
HStem: 9 1<1 2 4 5>
VStem: 1 1<9 10> 4 1<9 10>
LayerCount: 2
Back
SplineSet
4 10 m 1
 5 10 l 1
 5 9 l 1
 4 9 l 1
 4 10 l 1
1 10 m 1
 2 10 l 1
 2 9 l 1
 1 9 l 1
 1 10 l 1
EndSplineSet
Fore
Refer: 670 729 N 1 0 0 1 3 -1 2
Refer: 670 729 N 1 0 0 1 0 -1 2
EndChar

StartChar: copyright
Encoding: 169 169 103
Width: 9
VWidth: 0
Flags: W
HStem: 1 1<3 6> 2 1<2 3 6 7> 5 1<4 6> 6 1<2 3 6 7>
VStem: 1 1<3 6> 2 1<2 3 6 7> 3 3<1 2 3 4 5 6 7 8> 6 1<2 3 6 7>
LayerCount: 2
Fore
SplineSet
3 6 m 1x54
 6 6 l 1
 6 5 l 1
 4 5 l 1
 4 4 l 1
 6 4 l 1
 6 3 l 1x62
 3 3 l 1
 3 6 l 1x54
3 6 m 1x14
 2 6 l 1x18
 2 7 l 1
 3 7 l 1
 3 6 l 1x14
3 7 m 1x14
 3 8 l 1
 6 8 l 1
 6 7 l 1x12
 3 7 l 1x14
2 6 m 1x58
 2 3 l 1
 1 3 l 1
 1 6 l 1
 2 6 l 1x58
3 3 m 1x44
 3 2 l 1x84
 2 2 l 1x44
 2 3 l 1x48
 3 3 l 1x44
3 2 m 1
 6 2 l 1
 6 1 l 1
 3 1 l 1x82
 3 2 l 1
6 7 m 1x12
 7 7 l 1
 7 6 l 1x11
 6 6 l 1x22
 6 7 l 1x12
6 3 m 1x42
 7 3 l 1
 7 2 l 1x41
 6 2 l 1x82
 6 3 l 1x42
7 3 m 1
 7 6 l 1
 8 6 l 1x51
 8 3 l 1
 7 3 l 1
EndSplineSet
EndChar

StartChar: ordfeminine
Encoding: 170 170 104
Width: 6
VWidth: 0
Flags: W
HStem: -10 20G<3 4> 4 1<1 5> 6 1<2 3 4 5> 10 1<1 3>
VStem: 1 2<6 7 10 11> 3 1<7 8 9 10>
LayerCount: 2
Fore
SplineSet
1 11 m 1x18
 3 11 l 1x18
 3 10 l 1x88
 1 10 l 1
 1 11 l 1x18
3 7 m 1x28
 3 8 l 1x24
 2 8 l 1
 2 7 l 1
 3 7 l 1x28
3 7 m 1x28
 3 6 l 1
 1 6 l 1
 1 9 l 1x28
 3 9 l 1x24
 3 10 l 1x88
 4 10 l 1x84
 4 7 l 1x24
 3 7 l 1x28
4 7 m 1x24
 5 7 l 1
 5 6 l 1
 4 6 l 1
 4 7 l 1x24
EndSplineSet
Refer: 758 817 N 1 0 0 1 0 5 2
EndChar

StartChar: guillemotleft
Encoding: 171 171 105
Width: 8
VWidth: 0
Flags: W
HStem: 3 1<3 4 6 7> 4 1<2 3 5 6> 5 1<1 2 4 5> 6 1<2 3 5 6> 7 1<3 4 6 7>
VStem: 1 1<5 6> 2 1<4 5 6 7> 3 1<3 4 7 8> 5 1<4 5 6 7> 6 1<3 4 7 8>
LayerCount: 2
Fore
SplineSet
3 4 m 1x82
 4 4 l 1
 4 3 l 1
 3 3 l 1x81
 3 4 l 1x82
3 4 m 1x82
 2 4 l 1x42
 2 5 l 1x44
 3 5 l 1x42
 3 4 l 1x82
2 5 m 1x44
 1 5 l 1
 1 6 l 1
 2 6 l 1x24
 2 5 l 1x44
2 6 m 1
 2 7 l 1
 3 7 l 1
 3 6 l 1x12
 2 6 l 1
3 7 m 1
 3 8 l 1
 4 8 l 1
 4 7 l 1x09
 3 7 l 1
6 4 m 1x8080
 7 4 l 1
 7 3 l 1
 6 3 l 1x8040
 6 4 l 1x8080
6 4 m 1x8080
 5 4 l 1
 5 5 l 1
 6 5 l 1x4080
 6 4 l 1x8080
5 5 m 1
 4 5 l 1
 4 6 l 1
 5 6 l 1x2180
 5 5 l 1
5 6 m 1
 5 7 l 1
 6 7 l 1
 6 6 l 1x1080
 5 6 l 1
6 7 m 1
 6 8 l 1
 7 8 l 1
 7 7 l 1x0840
 6 7 l 1
EndSplineSet
EndChar

StartChar: logicalnot
Encoding: 172 172 106
Width: 7
VWidth: 0
Flags: W
HStem: 4 2<5 6> 5 1<1 5>
VStem: 5 1<4 5>
LayerCount: 2
Fore
SplineSet
1 6 m 1x60
 6 6 l 1
 6 4 l 1
 5 4 l 1xa0
 5 5 l 1
 1 5 l 1
 1 6 l 1x60
EndSplineSet
Validated: 1
EndChar

StartChar: uni00AD
Encoding: 173 173 107
Width: 5
VWidth: 0
Flags: W
HStem: 5 1<1 4>
VStem: 1 3<5 6>
LayerCount: 2
Fore
SplineSet
1 6 m 1
 4 6 l 1
 4 5 l 1
 1 5 l 1
 1 6 l 1
EndSplineSet
EndChar

StartChar: registered
Encoding: 174 174 108
Width: 9
VWidth: 0
Flags: W
HStem: 1 1<3 6> 2 1<2 3 6 7> 3 3<1 2 3 4 7 8> 5 1<4 5> 6 1<2 3 6 7>
VStem: 1 1<3 6> 2 1<2 3 6 7> 5 1<4 5> 6 1<2 3 6 7>
LayerCount: 2
Fore
SplineSet
7 3 m 1x4080
 7 6 l 1
 8 6 l 1
 8 3 l 1x2080
 7 3 l 1x4080
7 3 m 1x4080
 7 2 l 1x4080
 6 2 l 1x8080
 6 3 l 1
 7 3 l 1x4080
6 2 m 1x8280
 6 1 l 1
 3 1 l 1
 3 2 l 1
 6 2 l 1x8280
2 3 m 1x44
 1 3 l 1
 1 6 l 1
 2 6 l 1x24
 2 3 l 1x44
2 3 m 1x44
 3 3 l 1x42
 3 2 l 1x82
 2 2 l 1x42
 2 3 l 1x44
7 6 m 1x2080
 6 6 l 1
 6 7 l 1
 7 7 l 1x0880
 7 6 l 1x2080
6 7 m 1
 3 7 l 1
 3 8 l 1x0a80
 6 8 l 1
 6 7 l 1
3 3 m 1x43
 3 6 l 1x23
 6 6 l 1x0a80
 6 4 l 1
 5 4 l 1
 5 5 l 1
 4 5 l 1x11
 4 3 l 1x21
 3 3 l 1x43
3 7 m 1x0a
 3 6 l 1x22
 2 6 l 1x24
 2 7 l 1
 3 7 l 1x0a
EndSplineSet
EndChar

StartChar: macron
Encoding: 175 175 109
Width: 6
VWidth: 0
Flags: W
HStem: 10 1<1 5>
LayerCount: 2
Fore
SplineSet
1 11 m 1
 5 11 l 1
 5 10 l 1
 1 10 l 1
 1 11 l 1
EndSplineSet
EndChar

StartChar: degree
Encoding: 176 176 110
Width: 6
VWidth: 0
Flags: W
HStem: 7 1<2 4> 8 2<1 2 4 5>
VStem: 1 1<8 10> 2 2<7 8 10 11>
LayerCount: 2
Fore
SplineSet
2 8 m 1xa0
 1 8 l 1
 1 10 l 1
 2 10 l 1x60
 2 8 l 1xa0
2 8 m 1xa0
 4 8 l 1
 4 7 l 1
 2 7 l 1x90
 2 8 l 1xa0
2 10 m 1x60
 2 11 l 1
 4 11 l 1
 4 10 l 1x50
 2 10 l 1x60
4 8 m 1x90
 4 10 l 1
 5 10 l 1
 5 8 l 1x50
 4 8 l 1x90
EndSplineSet
EndChar

StartChar: plusminus
Encoding: 177 177 111
Width: 7
VWidth: 0
Flags: W
HStem: -11 20G<3 4> 2 1<1 6> 6 1<1 3 4 6>
VStem: 3 1<4 6 7 9>
LayerCount: 2
Back
SplineSet
1 7 m 1x30
 3 7 l 1x30
 3 9 l 1
 4 9 l 1x90
 4 7 l 1
 6 7 l 1
 6 6 l 1
 4 6 l 1
 4 4 l 1
 3 4 l 1
 3 6 l 1
 1 6 l 1
 1 7 l 1x30
1 3 m 1x50
 6 3 l 1
 6 2 l 1
 1 2 l 1
 1 3 l 1x50
EndSplineSet
Fore
SplineSet
1 3 m 25x50
 6 3 l 25
 6 2 l 25
 1 2 l 25
 1 3 l 25x50
EndSplineSet
Refer: 10 43 N 1 0 0 1 0 1 2
EndChar

StartChar: uni00B3
Encoding: 179 179 112
Width: 5
VWidth: 0
Flags: W
HStem: 4 1<2 3> 5 2<3 4> 5 1<1 2> 7 1<2 3> 8 2<3 4> 9 1<1 2> 10 1<2 3>
VStem: 1 1<5 6 9 10> 2 1<4 5 7 8 10 11> 3 1<5 7 8 10>
LayerCount: 2
Fore
SplineSet
2 5 m 1x81
 1 5 l 1
 1 6 l 1
 2 6 l 1x21
 2 5 l 1x81
2 5 m 1x81
 3 5 l 1
 3 4 l 1
 2 4 l 1x8080
 2 5 l 1x81
3 5 m 1
 3 7 l 1x4080
 4 7 l 1
 4 5 l 1x4040
 3 5 l 1
3 7 m 1
 2 7 l 1
 2 8 l 1
 3 8 l 1x1080
 3 7 l 1
3 8 m 1
 3 10 l 1x0880
 4 10 l 1
 4 8 l 1x0840
 3 8 l 1
3 10 m 1
 2 10 l 1x05
 2 11 l 1
 3 11 l 1x0280
 3 10 l 1
2 10 m 1
 2 9 l 1
 1 9 l 1
 1 10 l 1
 2 10 l 1
EndSplineSet
EndChar

StartChar: uni00B2
Encoding: 178 178 113
Width: 5
VWidth: 0
Flags: W
HStem: 4 2<1 2> 4 1<2 4> 6 2<2 3> 8 2<3 4> 9 1<1 2> 10 1<2 3>
VStem: 1 1<5 6 9 10> 2 1<6 8 10 11>
LayerCount: 2
Fore
SplineSet
2 6 m 1x82
 2 8 l 1
 3 8 l 1
 3 6 l 1x21
 2 6 l 1x82
2 6 m 1x82
 2 5 l 1
 4 5 l 1
 4 4 l 1x42
 1 4 l 1
 1 6 l 1
 2 6 l 1x82
3 8 m 1x21
 3 10 l 1
 4 10 l 1
 4 8 l 1x11
 3 8 l 1x21
3 10 m 1
 2 10 l 1x0a
 2 11 l 1
 3 11 l 1x05
 3 10 l 1
2 10 m 1
 2 9 l 1
 1 9 l 1
 1 10 l 1
 2 10 l 1
EndSplineSet
EndChar

StartChar: mu
Encoding: 181 181 115
Width: 7
VWidth: 0
Flags: W
HStem: -12 20G<1 2 4 5> -2 21G<1 2> 0 2<3 4> 0 1<2 3 5 6>
VStem: 1 1<-2 0 1 8> 5 1<0 1>
LayerCount: 2
Fore
SplineSet
1 -2 m 1x4c
 1 8 l 1
 2 8 l 1x8c
 2 1 l 1
 3 1 l 1x1c
 3 2 l 1
 4 2 l 1x2c
 4 8 l 1
 5 8 l 1x8c
 5 1 l 1
 6 1 l 1
 6 0 l 1
 5 0 l 1
 5 1 l 1
 4 1 l 1x1c
 4 0 l 1x2c
 2 0 l 1x1c
 2 -2 l 1
 1 -2 l 1x4c
EndSplineSet
EndChar

StartChar: paragraph
Encoding: 182 182 116
Width: 13
VWidth: 0
HStem: 0 21G<3 4 5 6> 10 1<4 5>
VStem: 1 3<6 10> 2 2<5 6> 3 1<0 5> 5 1<0 10>
LayerCount: 2
Fore
SplineSet
1 10 m 1x64
 2 10 l 1
 2 11 l 1
 6 11 l 1x54
 6 0 l 1
 5 0 l 1x94
 5 10 l 1
 4 10 l 1x64
 4 0 l 1
 3 0 l 1
 3 5 l 1x8c
 2 5 l 1
 2 6 l 1x94
 1 6 l 1
 1 10 l 1x64
EndSplineSet
EndChar

StartChar: periodcentered
Encoding: 183 183 117
Width: 4
VWidth: 0
Flags: W
HStem: 4 2<1 3>
VStem: 1 2<4 6>
LayerCount: 2
Back
SplineSet
1 4 m 1
 1 6 l 1
 3 6 l 1
 3 4 l 1
 1 4 l 1
EndSplineSet
Fore
Refer: 13 46 N 1 0 0 1 0 4 2
EndChar

StartChar: cedilla
Encoding: 184 184 118
Width: 4
VWidth: 0
Flags: W
HStem: -2 2<2 3> -2 1<1 2>
VStem: 1 2<-2 -1> 2 1<-1 0>
LayerCount: 2
Fore
SplineSet
1 -1 m 1x60
 2 -1 l 1x50
 2 0 l 1
 3 0 l 1x90
 3 -2 l 1xa0
 1 -2 l 1
 1 -1 l 1x60
EndSplineSet
EndChar

StartChar: uni00B9
Encoding: 185 185 119
Width: 4
VWidth: 0
Flags: W
HStem: -9 20G<2 3> 9 1<1 2>
VStem: 1 2<9 10> 2 1<4 9 10 11>
LayerCount: 2
Fore
SplineSet
1 10 m 1x60
 2 10 l 1x50
 2 11 l 1
 3 11 l 1x90
 3 4 l 1
 2 4 l 1
 2 9 l 1x50
 1 9 l 1
 1 10 l 1x60
EndSplineSet
EndChar

StartChar: ordmasculine
Encoding: 186 186 120
Width: 6
VWidth: 0
Flags: W
HStem: 5 1<1 5> 7 1<2 4> 8 2<1 2 4 5>
VStem: 1 1<8 10> 2 2<7 8 10 11>
LayerCount: 2
Back
SplineSet
1 6 m 1x90
 5 6 l 1
 5 5 l 1
 1 5 l 1
 1 6 l 1x90
4 10 m 1xa8
 5 10 l 1
 5 8 l 1xa8
 4 8 l 1xc8
 4 10 l 1xa8
4 10 m 1
 2 10 l 1xb0
 2 11 l 1
 4 11 l 1
 4 10 l 1
4 8 m 1xc8
 4 7 l 1
 2 7 l 1xc8
 2 8 l 1xd0
 4 8 l 1xc8
2 10 m 1xb0
 2 8 l 1xd0
 1 8 l 1
 1 10 l 1
 2 10 l 1xb0
EndSplineSet
Fore
Refer: 758 817 N 1 0 0 1 0 6 2
Refer: 110 176 N 1 0 0 1 0 0 2
EndChar

StartChar: onequarter
Encoding: 188 188 122
Width: 8
VWidth: 0
Flags: W
HStem: -9 20G<2 3> 0 21G<6 7> 1 1<5 6> 4 1<1 3> 5 1<3 5> 6 1<5 7> 9 1<1 2>
VStem: 1 2<4 5 9 10> 2 1<6 9 10 11> 4 1<2 4> 5 2<6 7> 6 1<0 1 2 5>
LayerCount: 2
Fore
SplineSet
1 10 m 1x07
 2 10 l 1x0680
 2 11 l 1
 3 11 l 1x8080
 3 6 l 1
 5 6 l 1x08a0
 5 7 l 1
 7 7 l 1
 7 6 l 1x04a0
 5 6 l 1
 5 5 l 1x08a0
 3 5 l 1x1120
 3 6 l 1x0880
 2 6 l 1
 2 9 l 1x0680
 1 9 l 1
 1 10 l 1x07
4 4 m 1x3050
 5 4 l 1x3050
 5 2 l 1
 6 2 l 1
 6 5 l 1
 7 5 l 1x2850
 7 0 l 1
 6 0 l 1x4050
 6 1 l 1
 4 1 l 1
 4 4 l 1x3050
3 5 m 1x11
 3 4 l 1
 1 4 l 1
 1 5 l 1
 3 5 l 1x11
EndSplineSet
EndChar

StartChar: onehalf
Encoding: 189 189 123
Width: 8
VWidth: 0
Flags: W
HStem: -9 20G<2 3> 0 2<4 5> 0 1<5 7> 2 1<5 6> 3 1<6 7> 4 1<1 3 5 6> 6 1<5 7> 9 1<1 2>
VStem: 1 2<4 5 9 10> 2 1<6 9 10 11> 4 1<1 2> 5 1<2 3> 6 1<3 4>
LayerCount: 2
Fore
SplineSet
1 10 m 1x0780
 2 10 l 1x0740
 2 11 l 1
 3 11 l 1x8040
 3 6 l 1
 5 6 l 1
 5 7 l 1x0250
 7 7 l 1
 7 6 l 1x0208
 5 6 l 1
 5 5 l 1x0610
 6 5 l 1x0608
 6 4 l 1x0808
 4 4 l 1
 4 5 l 1
 3 5 l 1
 3 4 l 1
 1 4 l 1
 1 5 l 1
 3 5 l 1x04a8
 3 6 l 1
 2 6 l 1
 2 9 l 1x0740
 1 9 l 1
 1 10 l 1x0780
5 2 m 1x4028
 5 1 l 1
 7 1 l 1
 7 0 l 1x2028
 4 0 l 1
 4 2 l 1
 5 2 l 1x4028
5 2 m 1x4020
 5 3 l 1
 6 3 l 1
 6 2 l 1x1010
 5 2 l 1x4020
6 3 m 1
 6 4 l 1
 7 4 l 1
 7 3 l 1x0808
 6 3 l 1
EndSplineSet
EndChar

StartChar: threequarters
Encoding: 190 190 124
Width: 8
VWidth: 0
Flags: W
HStem: 0 21G<6 7> 1 1<5 6> 4 1<1 3> 5 1<3 5> 6 1<1 3 5 7> 10 1<1 3>
VStem: 1 2<4 5 6 7 10 11> 3 1<7 8 9 10> 5 2<6 7> 6 1<0 1 2 5>
LayerCount: 2
Fore
SplineSet
1 11 m 1x0e
 3 11 l 1
 3 10 l 1x0e
 4 10 l 1
 4 9 l 1
 3 9 l 1
 3 8 l 1
 4 8 l 1
 4 7 l 1x0d
 3 7 l 1x0e
 3 6 l 1
 5 6 l 1x1280
 5 7 l 1
 7 7 l 1
 7 6 l 1x0a80
 5 6 l 1
 5 5 l 1x1280
 3 5 l 1x2280
 3 6 l 1x1280
 1 6 l 1
 1 7 l 1
 3 7 l 1x0a80
 3 8 l 1
 2 8 l 1
 2 9 l 1
 3 9 l 1x09
 3 10 l 1
 1 10 l 1
 1 11 l 1x0e
4 4 m 1x6140
 5 4 l 1
 5 2 l 1x6180
 6 2 l 1
 6 5 l 1
 7 5 l 1x5040
 7 0 l 1
 6 0 l 1x8040
 6 1 l 1
 4 1 l 1
 4 4 l 1x6140
3 5 m 1x22
 3 4 l 1
 1 4 l 1
 1 5 l 1
 3 5 l 1x22
EndSplineSet
EndChar

StartChar: Aring
Encoding: 197 197 131
Width: 6
VWidth: 0
Flags: W
HStem: -10 20G<4 5> 0 21G<1 2 4 5> 5 1<2 4> 10 1<2 4 2 4> 11 2<1 2 4 5>
VStem: 1 1<0 5 6 10 11 13> 2 2<10 11 13 14> 4 1<0 5 6 10>
LayerCount: 2
Back
SplineSet
1 0 m 1x4c
 1 10 l 1
 2 10 l 1x8c
 2 6 l 1
 4 6 l 1x2c
 4 10 l 1
 5 10 l 1x8c
 5 0 l 1
 4 0 l 1x4c
 4 5 l 1
 2 5 l 1x2c
 2 0 l 1
 1 0 l 1x4c
1 11 m 1x1c
 1 13 l 1
 2 13 l 1
 2 14 l 1
 4 14 l 1
 4 13 l 1
 5 13 l 1
 5 11 l 1
 4 11 l 1
 4 13 l 1
 2 13 l 1
 2 11 l 1
 1 11 l 1x1c
4 11 m 1
 2 11 l 1
 2 10 l 1
 4 10 l 1x9c
 4 11 l 1
EndSplineSet
Fore
Refer: 719 778 N 1 0 0 1 0 0 2
Refer: 32 65 N 1 0 0 1 0 0 2
EndChar

StartChar: AE
Encoding: 198 198 132
Width: 7
VWidth: 0
Flags: W
HStem: 0 1<4 6> 5 1<2 3 4 5> 10 1<2 3 4 6>
VStem: 1 1<0 5 6 10> 3 1<1 5 6 10>
CounterMasks: 1 e0
LayerCount: 2
Fore
SplineSet
1 0 m 1
 1 10 l 1
 2 10 l 1
 2 11 l 1
 6 11 l 1
 6 10 l 1
 4 10 l 1
 4 6 l 1
 5 6 l 1
 5 5 l 1
 4 5 l 1
 4 1 l 1
 6 1 l 1
 6 0 l 1
 3 0 l 1
 3 5 l 1
 2 5 l 1
 2 0 l 1
 1 0 l 1
2 10 m 1
 2 6 l 1
 3 6 l 1
 3 10 l 1
 2 10 l 1
EndSplineSet
Validated: 5
EndChar

StartChar: Ccedilla
Encoding: 199 199 133
Width: 6
VWidth: 0
Flags: W
HStem: -10 20G<1 2 4 5> -2 1<2 3> -2 2<3 4> 0 1<2 4> 1 21G<1 2 4 5> 10 1<2 4>
VStem: 1 1<1 10> 2 2<-2 -1 0 1 10 11> 3 1<-1 0> 4 1<1 4 7 10>
LayerCount: 2
Back
SplineSet
4 1 m 1x15
 4 4 l 1
 5 4 l 1
 5 1 l 1
 4 1 l 1x15
4 1 m 1
 2 1 l 1
 2 0 l 1
 3 0 l 1
 4 0 l 1x56
 4 1 l 1
3 0 m 1
 4 0 l 1x46
 4 -2 l 1x45
 2 -2 l 1
 2 -1 l 1
 3 -1 l 1x26
 3 0 l 1
2 1 m 1x14
 1 1 l 1x14
 1 10 l 1
 2 10 l 1x84
 2 1 l 1x14
2 10 m 1x85
 2 11 l 1
 4 11 l 1x0d
 4 10 l 1
 2 10 l 1x85
4 10 m 1x85
 5 10 l 1
 5 7 l 1
 4 7 l 1
 4 10 l 1x85
EndSplineSet
Fore
Refer: 748 807 S 1 0 0 1 1 0 2
Refer: 34 67 S 1 0 0 1 0 0 2
EndChar

StartChar: Egrave
Encoding: 200 200 134
Width: 6
VWidth: 0
Flags: W
HStem: 0 1<2 5> 5 1<2 4> 10 1<2 5> 12 1<3 4> 13 1<2 3> 14 1<1 2>
VStem: 1 1<1 5 6 10 14 15> 2 1<13 14> 3 1<12 13>
LayerCount: 2
Back
SplineSet
4 12 m 1xf4
 4 13 l 1
 3 13 l 1
 3 12 l 1
 4 12 l 1xf4
1 11 m 1
 5 11 l 1
 5 10 l 1
 2 10 l 1
 2 6 l 1
 4 6 l 1
 4 5 l 1
 2 5 l 1
 2 1 l 1
 5 1 l 1
 5 0 l 1
 1 0 l 1
 1 11 l 1
2 14 m 1
 1 14 l 1
 1 15 l 1
 2 15 l 1xec
 2 14 l 1
2 14 m 1xf4
 3 14 l 1
 3 13 l 1
 2 13 l 1
 2 14 l 1xf4
EndSplineSet
Fore
Refer: 36 69 S 1 0 0 1 0 0 2
Refer: 709 768 S 1 0 0 1 0 4 2
EndChar

StartChar: Eacute
Encoding: 201 201 135
Width: 6
VWidth: 0
Flags: W
HStem: 0 1<2 5> 5 1<2 4> 10 1<2 5>
VStem: 1 1<1 5 6 10>
CounterMasks: 1 e0
LayerCount: 2
Back
SplineSet
2 12 m 1xf6
 3 12 l 1
 3 13 l 1
 2 13 l 1
 2 12 l 1xf6
1 11 m 1
 5 11 l 1
 5 10 l 1
 2 10 l 1
 2 6 l 1
 4 6 l 1
 4 5 l 1
 2 5 l 1
 2 1 l 1
 5 1 l 1
 5 0 l 1
 1 0 l 1
 1 11 l 1
4 14 m 1
 4 15 l 1
 5 15 l 1
 5 14 l 1xee
 4 14 l 1
4 14 m 1xf6
 4 13 l 1
 3 13 l 1
 3 14 l 1
 4 14 l 1xf6
EndSplineSet
Fore
Refer: 36 69 S 1 0 0 1 0 0 2
Refer: 710 769 S 1 0 0 1 1 4 2
EndChar

StartChar: Ecircumflex
Encoding: 202 202 136
Width: 6
VWidth: 0
Flags: W
HStem: 0 1<2 5> 5 1<2 4> 10 1<2 5> 13 1<2 4>
VStem: 1 1<1 5 6 10> 2 2<13 14>
LayerCount: 2
Back
SplineSet
1 12 m 1
 2 12 l 1
 2 13 l 1
 1 13 l 1
 1 12 l 1
1 11 m 1
 5 11 l 1
 5 10 l 1
 2 10 l 1
 2 6 l 1
 4 6 l 1
 4 5 l 1
 2 5 l 1
 2 1 l 1
 5 1 l 1
 5 0 l 1
 1 0 l 1
 1 11 l 1
4 13 m 1
 4 12 l 1
 5 12 l 1
 5 13 l 1
 4 13 l 1
4 13 m 1
 2 13 l 1
 2 14 l 1
 4 14 l 1
 4 13 l 1
EndSplineSet
Fore
Refer: 36 69 S 1 0 0 1 0 0 2
Refer: 711 770 S 1 0 0 1 0 3 2
EndChar

StartChar: Edieresis
Encoding: 203 203 137
Width: 6
VWidth: 0
Flags: W
HStem: 0 1<2 5> 5 1<2 4> 10 1<2 5> 12 1<1 2 4 5>
VStem: 1 1<1 5 6 10 12 13> 4 1<12 13>
LayerCount: 2
Back
SplineSet
4 13 m 1
 5 13 l 1
 5 12 l 1
 4 12 l 1
 4 13 l 1
1 13 m 1
 2 13 l 1
 2 12 l 1
 1 12 l 1
 1 13 l 1
1 11 m 1
 5 11 l 1
 5 10 l 1
 2 10 l 1
 2 6 l 1
 4 6 l 1
 4 5 l 1
 2 5 l 1
 2 1 l 1
 5 1 l 1
 5 0 l 1
 1 0 l 1
 1 11 l 1
EndSplineSet
Fore
Refer: 36 69 S 1 0 0 1 0 0 2
Refer: 717 776 S 1 0 0 1 0 2 2
EndChar

StartChar: Igrave
Encoding: 204 204 138
Width: 3
VWidth: 0
Flags: HW
HStem: 12 1<2 3> 13 1<1 2> 14 1<0 1>
VStem: 0 1<14 15> 1 1<13 14> 2 1<12 13>
LayerCount: 2
Back
SplineSet
3 12 m 1x22
 2 12 l 1
 2 13 l 1
 3 13 l 1
 3 12 l 1x22
1 11 m 1x84
 2 11 l 1x84
 2 0 l 1
 1 0 l 1x44
 1 11 l 1x84
1 14 m 1x18
 0 14 l 1
 0 15 l 1
 1 15 l 1
 1 14 l 1x18
1 14 m 1
 1 13 l 1x34
 2 13 l 1
 2 14 l 1x32
 1 14 l 1
EndSplineSet
Fore
Refer: 40 73 N 1 0 0 1 0 0 2
Refer: 709 768 N 1 0 0 1 -1 4 2
EndChar

StartChar: Iacute
Encoding: 205 205 139
Width: 3
VWidth: 0
Flags: HW
LayerCount: 2
Back
SplineSet
0 12 m 1x28
 1 12 l 1
 1 13 l 1
 0 13 l 1
 0 12 l 1x28
2 11 m 1x88
 2 0 l 1
 1 0 l 1x48
 1 11 l 1
 2 11 l 1x88
2 14 m 1x28
 2 15 l 1
 3 15 l 1
 3 14 l 1x18
 2 14 l 1x28
2 14 m 1x28
 2 13 l 1
 1 13 l 1
 1 14 l 1
 2 14 l 1x28
EndSplineSet
Fore
Refer: 40 73 S 1 0 0 1 0 0 2
Refer: 710 769 N 1 0 0 1 -1 4 2
EndChar

StartChar: Icircumflex
Encoding: 206 206 140
Width: 3
VWidth: 0
Flags: HW
HStem: 13 1<0 2>
VStem: 0 2<13 14>
LayerCount: 2
Back
SplineSet
0 12 m 1x30
 1 12 l 1
 1 13 l 1
 0 13 l 1
 0 12 l 1x30
1 11 m 1x90
 2 11 l 1x90
 2 0 l 1
 1 0 l 1x50
 1 11 l 1x90
2 13 m 1x30
 2 12 l 1
 3 12 l 1
 3 13 l 1
 2 13 l 1x30
2 13 m 1
 1 13 l 1
 1 14 l 1
 2 14 l 1
 2 13 l 1
EndSplineSet
Fore
Refer: 40 73 N 1 0 0 1 0 0 2
Refer: 711 770 N 1 0 0 1 -2 3 2
EndChar

StartChar: Idieresis
Encoding: 207 207 141
Width: 3
VWidth: 0
Flags: HW
HStem: 12 1<0 1 2 3>
VStem: 0 1<12 13> 2 1<12 13>
LayerCount: 2
Back
SplineSet
2 12 m 1x24
 2 13 l 1
 3 13 l 1
 3 12 l 1
 2 12 l 1x24
0 12 m 1x30
 0 13 l 1
 1 13 l 1
 1 12 l 1
 0 12 l 1x30
1 11 m 1x88
 2 11 l 1x88
 2 0 l 1
 1 0 l 1x48
 1 11 l 1x88
EndSplineSet
Fore
Refer: 40 73 S 1 0 0 1 0 0 2
Refer: 716 775 N 1 0 0 1 1 2 2
Refer: 716 775 N 1 0 0 1 -1 2 2
EndChar

StartChar: Eth
Encoding: 208 208 142
Width: 6
VWidth: 0
Flags: W
HStem: -10 20G<4 5> 0 1<2 4> 1 21G<4 5> 5 1<0 3> 10 1<2 4>
VStem: 0 3<5 6> 1 3<0 1 10 11> 4 1<1 10>
LayerCount: 2
Back
SplineSet
1 11 m 1xb0
 4 11 l 1
 4 10 l 1
 5 10 l 1
 5 1 l 1x50
 4 1 l 1
 4 10 l 1x90
 2 10 l 1
 2 6 l 1
 3 6 l 1
 3 5 l 1
 2 5 l 1
 2 1 l 1xa8
 4 1 l 1
 4 0 l 1
 1 0 l 1xb0
 1 5 l 1
 0 5 l 1
 0 6 l 1
 1 6 l 1xa8
 1 11 l 1xb0
EndSplineSet
Fore
Refer: 35 68 S 1 0 0 1 0 0 2
Refer: 762 821 S 1 0 0 1 -1 0 2
EndChar

StartChar: Ntilde
Encoding: 209 209 143
Width: 6
VWidth: 0
Flags: HW
HStem: -9 20G<1 2 4 5> 0 21G<1 2 4 5> 13 1<2 3 4 5>
VStem: 1 1<0 6 9 11> 1 2<6 9> 2 1<13 14> 4 1<0 3 6 11 13 14>
LayerCount: 2
Back
SplineSet
1 12 m 1x30
 2 12 l 1
 2 13 l 1
 1 13 l 1
 1 12 l 1x30
1 0 m 1x58
 1 11 l 1
 2 11 l 1
 2 9 l 1
 3 9 l 1
 3 6 l 1x98
 4 6 l 1
 4 11 l 1
 5 11 l 1x94
 5 0 l 1
 4 0 l 1
 4 3 l 1x54
 3 3 l 1
 3 6 l 1
 2 6 l 1
 2 0 l 1
 1 0 l 1x58
4 13 m 1x34
 4 14 l 1
 5 14 l 1
 5 13 l 1
 4 13 l 1x34
4 13 m 1
 3 13 l 1
 3 12 l 1x38
 4 12 l 1
 4 13 l 1
3 13 m 1
 2 13 l 1
 2 14 l 1
 3 14 l 1
 3 13 l 1
EndSplineSet
Fore
Refer: 45 78 S 1 0 0 1 0 0 2
Refer: 712 771 S 1 0 0 1 0 3 2
EndChar

StartChar: Ograve
Encoding: 210 210 144
Width: 6
VWidth: 0
Flags: W
HStem: -10 20G<1 2 4 5> 0 1<2 4> 1 21G<1 2 4 5> 10 1<2 4> 12 1<3 4> 13 1<2 3> 14 1<1 2>
VStem: 1 1<1 10 14 15> 2 1<13 14> 2 2<0 1 10 11> 3 1<12 13>
LayerCount: 2
Back
SplineSet
4 12 m 1x16
 4 13 l 1
 3 13 l 1
 3 12 l 1
 4 12 l 1x16
4 1 m 1x46
 4 10 l 1
 5 10 l 1x86
 5 1 l 1
 4 1 l 1x46
4 1 m 1x46
 2 1 l 1
 2 0 l 1
 4 0 l 1
 4 1 l 1x46
2 1 m 1
 1 1 l 1x46
 1 10 l 1
 2 10 l 1x86
 2 1 l 1
2 14 m 1x16
 3 14 l 1
 3 13 l 1
 2 13 l 1
 2 14 l 1x16
2 14 m 1
 1 14 l 1
 1 15 l 1
 2 15 l 1x0e
 2 14 l 1
2 10 m 1x86
 2 11 l 1
 4 11 l 1x26
 4 10 l 1
 2 10 l 1x86
EndSplineSet
Fore
Refer: 46 79 S 1 0 0 1 0 0 2
Refer: 709 768 S 1 0 0 1 0 4 2
EndChar

StartChar: Oacute
Encoding: 211 211 145
Width: 6
VWidth: 0
Flags: W
HStem: -10 20G<1 2 4 5> 0 1<2 4> 1 21G<1 2 4 5> 10 1<2 4>
VStem: 1 1<1 10> 2 2<0 1 10 11>
LayerCount: 2
Back
SplineSet
2 11 m 1x3a
 4 11 l 1
 4 10 l 1x3a
 5 10 l 1
 5 1 l 1x79
 4 1 l 1
 4 0 l 1
 2 0 l 1x7a
 2 1 l 1
 1 1 l 1x7c
 1 10 l 1
 2 10 l 1x9c
 2 1 l 1x5c
 4 1 l 1
 4 10 l 1x7a
 2 10 l 1x9c
 2 11 l 1x3a
2 12 m 1
 2 13 l 1
 3 13 l 1
 3 12 l 1
 2 12 l 1
4 14 m 1x19
 3 14 l 1
 3 13 l 1
 4 13 l 1
 4 14 l 1x19
4 14 m 1
 4 15 l 1
 5 15 l 1
 5 14 l 1
 4 14 l 1
EndSplineSet
Fore
Refer: 46 79 S 1 0 0 1 0 0 2
Refer: 710 769 S 1 0 0 1 1 4 2
EndChar

StartChar: Ocircumflex
Encoding: 212 212 146
Width: 6
VWidth: 0
Flags: W
HStem: -10 20G<1 2 4 5> 0 1<2 4> 1 21G<1 2 4 5> 10 1<2 4> 13 1<2 4>
VStem: 1 1<1 10> 2 2<0 1 10 11 13 14>
LayerCount: 2
Back
SplineSet
1 12 m 1x1c
 2 12 l 1
 2 13 l 1
 1 13 l 1
 1 12 l 1x1c
4 1 m 1x4c
 4 10 l 1
 5 10 l 1x8c
 5 1 l 1
 4 1 l 1x4c
4 1 m 1x4c
 2 1 l 1
 2 0 l 1
 4 0 l 1
 4 1 l 1x4c
2 1 m 1
 1 1 l 1x4c
 1 10 l 1
 2 10 l 1x8c
 2 1 l 1
4 13 m 1x1c
 2 13 l 1
 2 14 l 1
 4 14 l 1
 4 13 l 1x1c
4 13 m 1
 4 12 l 1
 5 12 l 1
 5 13 l 1
 4 13 l 1
2 10 m 1x8c
 2 11 l 1
 4 11 l 1x2c
 4 10 l 1
 2 10 l 1x8c
EndSplineSet
Fore
Refer: 46 79 S 1 0 0 1 0 0 2
Refer: 711 770 S 1 0 0 1 0 3 2
EndChar

StartChar: Otilde
Encoding: 213 213 147
Width: 6
VWidth: 0
Flags: HW
HStem: -10 20G<1 2 4 5> 0 1<2 4> 1 21G<1 2 4 5> 10 1<2 4> 13 1<2 3 4 5>
VStem: 1 1<1 10> 2 1<13 14> 2 2<0 1 10 11> 4 1<13 14>
LayerCount: 2
Back
SplineSet
1 12 m 1x1a
 2 12 l 1
 2 13 l 1x16
 1 13 l 1
 1 12 l 1x1a
4 1 m 1x42
 4 10 l 1
 5 10 l 1x82
 5 1 l 1
 4 1 l 1x42
4 1 m 1x46
 2 1 l 1x4a
 2 0 l 1
 4 0 l 1
 4 1 l 1x46
2 1 m 1
 1 1 l 1x4a
 1 10 l 1
 2 10 l 1x8a
 2 1 l 1
3 13 m 1x16
 2 13 l 1
 2 14 l 1
 3 14 l 1
 3 13 l 1x16
3 13 m 1
 3 12 l 1
 4 12 l 1
 4 13 l 1
 3 13 l 1
4 13 m 1
 4 14 l 1
 5 14 l 1
 5 13 l 1
 4 13 l 1
2 10 m 1x8a
 2 11 l 1
 4 11 l 1x26
 4 10 l 1
 2 10 l 1x8a
EndSplineSet
Fore
Refer: 46 79 S 1 0 0 1 0 0 2
Refer: 712 771 S 1 0 0 1 0 3 2
EndChar

StartChar: Odieresis
Encoding: 214 214 148
Width: 6
VWidth: 0
Flags: W
HStem: -10 20G<1 2 4 5> 0 1<2 4> 1 21G<1 2 4 5> 10 1<2 4> 12 1<1 2 4 5>
VStem: 1 1<1 10 12 13> 2 2<0 1 10 11> 4 1<12 13>
LayerCount: 2
Back
SplineSet
1 12 m 1x1c
 1 13 l 1
 2 13 l 1
 2 12 l 1
 1 12 l 1x1c
4 12 m 1
 4 13 l 1
 5 13 l 1
 5 12 l 1
 4 12 l 1
4 1 m 1x4c
 4 10 l 1
 5 10 l 1x8c
 5 1 l 1
 4 1 l 1x4c
4 1 m 1x4c
 2 1 l 1
 2 0 l 1
 4 0 l 1
 4 1 l 1x4c
2 1 m 1
 1 1 l 1x4c
 1 10 l 1
 2 10 l 1x8c
 2 1 l 1
2 10 m 1x8c
 2 11 l 1
 4 11 l 1x2c
 4 10 l 1
 2 10 l 1x8c
EndSplineSet
Fore
Refer: 46 79 S 1 0 0 1 0 0 2
Refer: 717 776 S 1 0 0 1 0 2 2
EndChar

StartChar: Oslash
Encoding: 216 216 149
Width: 6
VWidth: 0
Flags: W
HStem: -10 20G<1 2 4 5> 0 1<2 4> 1 21G<1 2 4 5> 2 1<0 1> 4 1<2 3> 5 1<3 4> 7 1<5 6> 10 1<2 4>
VStem: 0 1<2 3> 1 1<1 10> 2 1<4 5> 2 2<0 1 10 11> 3 1<5 6> 5 1<7 8>
LayerCount: 2
Back
SplineSet
0 2 m 1x2180
 0 3 l 1
 1 3 l 1
 1 10 l 1
 2 10 l 1
 2 11 l 1
 4 11 l 1x2580
 4 10 l 1x8180
 2 10 l 1
 2 5 l 1x1580
 3 5 l 1
 3 4 l 1x1680
 2 4 l 1
 2 1 l 1
 1 1 l 1x4180
 1 2 l 1
 0 2 l 1x2180
2 1 m 1x4180
 2 0 l 1
 4 0 l 1
 4 1 l 1
 2 1 l 1x4180
4 1 m 1
 4 5 l 1
 3 5 l 1
 3 6 l 1
 4 6 l 1x1280
 4 10 l 1
 5 10 l 1x8280
 5 8 l 1
 6 8 l 1
 6 7 l 1
 5 7 l 1x0a80
 5 1 l 1
 4 1 l 1
EndSplineSet
Fore
SplineSet
0 2 m 1x1084
 0 3 l 1
 1 3 l 1
 1 2 l 1
 0 2 l 1x1084
2 4 m 1x0844
 2 5 l 1x0844
 3 5 l 1
 3 4 l 1x0824
 2 4 l 1x0844
5 7 m 1x0204
 5 8 l 1
 6 8 l 1
 6 7 l 1
 5 7 l 1x0204
3 5 m 1x0824
 3 6 l 1
 4 6 l 1
 4 5 l 1x040c
 3 5 l 1x0824
EndSplineSet
Refer: 46 79 S 1 0 0 1 0 0 2
EndChar

StartChar: multiply
Encoding: 215 215 150
Width: 7
VWidth: 0
Flags: W
HStem: 3 1<1 2 5 6> 7 1<1 2 5 6>
VStem: 1 1<3 4 7 8> 5 1<3 4 7 8>
LayerCount: 2
Fore
SplineSet
1 3 m 1
 1 4 l 1
 2 4 l 1
 2 3 l 1
 1 3 l 1
2 7 m 1
 1 7 l 1
 1 8 l 1
 2 8 l 1
 2 7 l 1
2 7 m 1
 2 6 l 1
 3 6 l 1
 3 7 l 1
 2 7 l 1
5 7 m 1
 5 8 l 1
 6 8 l 1
 6 7 l 1
 5 7 l 1
5 7 m 1
 4 7 l 1
 4 6 l 1
 5 6 l 1
 5 7 l 1
4 6 m 1
 4 5 l 1
 3 5 l 1
 3 6 l 1
 4 6 l 1
3 5 m 1
 2 5 l 1
 2 4 l 1
 3 4 l 1
 3 5 l 1
4 5 m 1
 4 4 l 1
 5 4 l 1
 5 5 l 1
 4 5 l 1
5 4 m 1
 6 4 l 1
 6 3 l 1
 5 3 l 1
 5 4 l 1
EndSplineSet
Validated: 5
EndChar

StartChar: Ugrave
Encoding: 217 217 151
Width: 5
VWidth: 0
Flags: W
HStem: 12 1<3 4> 13 1<2 3> 14 1<1 2>
VStem: 1 1<14 15> 2 1<13 14> 3 1<12 13>
LayerCount: 2
Back
SplineSet
4 12 m 1x2c
 4 13 l 1
 3 13 l 1
 3 12 l 1
 4 12 l 1x2c
1 11 m 1x8c
 2 11 l 1x8c
 2 1 l 1
 1 1 l 1x4c
 1 11 l 1x8c
2 14 m 1x2c
 1 14 l 1
 1 15 l 1
 2 15 l 1x1c
 2 14 l 1x2c
2 14 m 1x2c
 3 14 l 1
 3 13 l 1
 2 13 l 1
 2 14 l 1x2c
4 1 m 1x4c
 4 11 l 1
 5 11 l 1x8c
 5 1 l 1
 4 1 l 1x4c
4 1 m 1x4c
 2 1 l 1
 2 0 l 1
 4 0 l 1
 4 1 l 1x4c
EndSplineSet
Fore
Refer: 709 768 S 1 0 0 1 0 4 2
EndChar

StartChar: Uacute
Encoding: 218 218 152
Width: 6
VWidth: 0
Flags: W
LayerCount: 2
Back
SplineSet
2 12 m 1x32
 2 13 l 1
 3 13 l 1
 3 12 l 1
 2 12 l 1x32
5 11 m 1xb1
 5 1 l 1x71
 4 1 l 1
 4 0 l 1
 2 0 l 1x74
 2 1 l 1
 1 1 l 1x78
 1 11 l 1
 2 11 l 1xb8
 2 1 l 1x78
 4 1 l 1x74
 4 11 l 1
 5 11 l 1xb1
4 14 m 1
 4 15 l 1
 5 15 l 1
 5 14 l 1
 4 14 l 1
4 14 m 1
 3 14 l 1
 3 13 l 1x33
 4 13 l 1
 4 14 l 1
EndSplineSet
Fore
Refer: 710 769 N 1 0 0 1 1 4 2
EndChar

StartChar: Ucircumflex
Encoding: 219 219 153
Width: 6
VWidth: 0
Flags: W
HStem: 13 1<2 4>
VStem: 2 2<13 14>
LayerCount: 2
Back
SplineSet
1 12 m 1x38
 2 12 l 1
 2 13 l 1
 1 13 l 1
 1 12 l 1x38
1 11 m 1x98
 2 11 l 1x98
 2 1 l 1
 1 1 l 1x58
 1 11 l 1x98
4 13 m 1x38
 4 12 l 1
 5 12 l 1
 5 13 l 1
 4 13 l 1x38
4 13 m 1
 2 13 l 1
 2 14 l 1
 4 14 l 1
 4 13 l 1
4 1 m 1x58
 4 11 l 1
 5 11 l 1x98
 5 1 l 1
 4 1 l 1x58
4 1 m 1x58
 2 1 l 1
 2 0 l 1
 4 0 l 1
 4 1 l 1x58
EndSplineSet
Fore
Refer: 711 770 S 1 0 0 1 0 3 2
EndChar

StartChar: Udieresis
Encoding: 220 220 154
Width: 6
VWidth: 0
Flags: W
HStem: 12 1<1 2 4 5>
VStem: 1 1<12 13> 4 1<12 13>
LayerCount: 2
Back
SplineSet
4 12 m 1x38
 4 13 l 1
 5 13 l 1
 5 12 l 1
 4 12 l 1x38
1 12 m 1
 1 13 l 1
 2 13 l 1
 2 12 l 1
 1 12 l 1
1 11 m 1x98
 2 11 l 1x98
 2 1 l 1
 1 1 l 1x58
 1 11 l 1x98
4 1 m 1x58
 4 11 l 1
 5 11 l 1x98
 5 1 l 1
 4 1 l 1x58
4 1 m 1x58
 2 1 l 1
 2 0 l 1
 4 0 l 1
 4 1 l 1x58
EndSplineSet
Fore
Refer: 717 776 S 1 0 0 1 0 2 2
EndChar

StartChar: Yacute
Encoding: 221 221 155
Width: 7
VWidth: 0
Flags: W
LayerCount: 2
Back
SplineSet
3 11 m 1x23
 3 12 l 1
 4 12 l 1
 4 11 l 1
 3 11 l 1x23
1 11 m 1x29
 2 11 l 1x29
 2 8 l 1x49
 3 8 l 1
 3 5 l 1
 2 5 l 1x45
 2 8 l 1x49
 1 8 l 1
 1 11 l 1x29
5 13 m 1x11
 5 14 l 1
 6 14 l 1
 6 13 l 1
 5 13 l 1x11
5 13 m 1
 4 13 l 1
 4 12 l 1x13
 5 12 l 1
 5 13 l 1
3 5 m 1x45
 4 5 l 1x43
 4 0 l 1
 3 0 l 1x83
 3 5 l 1x45
4 5 m 1
 4 8 l 1
 5 8 l 1x43
 5 11 l 1
 6 11 l 1
 6 8 l 1x23
 5 8 l 1
 5 5 l 1
 4 5 l 1
EndSplineSet
Fore
Refer: 710 769 N 1 0 0 1 2 3 2
EndChar

StartChar: Thorn
Encoding: 222 222 156
Width: 7
VWidth: 0
Flags: W
HStem: -9 20G<1 2> 0 21G<1 2> 2 1<2 5> 8 1<2 5>
VStem: 1 1<0 2 3 8 9 11>
LayerCount: 2
Fore
SplineSet
1 0 m 1x48
 1 11 l 1
 2 11 l 1x88
 2 9 l 1
 5 9 l 1
 5 8 l 1
 6 8 l 1
 6 3 l 1
 5 3 l 1
 5 8 l 1
 2 8 l 1
 2 3 l 1
 5 3 l 1
 5 2 l 1
 2 2 l 1x38
 2 0 l 1
 1 0 l 1x48
EndSplineSet
Validated: 5
EndChar

StartChar: germandbls
Encoding: 223 223 157
Width: 7
VWidth: 0
Flags: W
HStem: -11 20G<2 3 5 6> 0 2<1 2> 1 1<3 4> 9 1<3 5>
VStem: 1 1<0 2> 2 1<2 9> 3 2<9 10> 3 1<1 2> 5 1<1 5 6 9>
LayerCount: 2
Fore
SplineSet
1 0 m 1x48
 1 2 l 1
 2 2 l 1x48
 2 9 l 1
 3 9 l 1x84
 3 2 l 1x24
 2 2 l 1
 2 0 l 1
 1 0 l 1x48
5 5 m 1x0180
 5 6 l 1
 4 6 l 1
 4 5 l 1
 5 5 l 1x0180
5 5 m 1
 6 5 l 1
 6 1 l 1
 5 1 l 1x2080
 5 5 l 1
5 6 m 1
 5 9 l 1x82
 6 9 l 1x8080
 6 6 l 1
 5 6 l 1
5 9 m 1
 3 9 l 1x84
 3 10 l 1
 5 10 l 1x12
 5 9 l 1
3 2 m 1x24
 4 2 l 1
 4 1 l 1
 3 1 l 1x21
 3 2 l 1x24
5 1 m 1x2180
 4 1 l 1x2180
 4 0 l 1
 5 0 l 1x4180
 5 1 l 1x2180
EndSplineSet
Validated: 5
EndChar

StartChar: agrave
Encoding: 224 224 158
Width: 6
VWidth: 0
Flags: W
HStem: 9 1<3 4> 10 1<2 3>
VStem: 2 1<10 11> 3 1<9 10>
LayerCount: 2
Back
SplineSet
4 9 m 1x04c0
 4 10 l 1
 3 10 l 1
 3 9 l 1
 4 9 l 1x04c0
2 1 m 1x56
 1 1 l 1x26
 1 4 l 1
 2 4 l 1
 2 1 l 1x56
2 1 m 1x46
 3 1 l 1
 3 0 l 1
 2 0 l 1x4480
 2 1 l 1x46
2 4 m 1x3640
 2 5 l 1
 4 5 l 1x34c0
 4 7 l 1x85
 5 7 l 1x8440
 5 0 l 1
 4 0 l 1x4440
 4 1 l 1x2440
 3 1 l 1x44c0
 3 2 l 1x24c0
 4 2 l 1
 4 4 l 1
 2 4 l 1x3640
4 7 m 1x85
 2 7 l 1
 2 8 l 1
 4 8 l 1x0d
 4 7 l 1x85
2 7 m 1
 1 7 l 1
 1 6 l 1x0e
 2 6 l 1x0c80
 2 7 l 1
3 10 m 1x0480
 2 10 l 1
 2 11 l 1
 3 11 l 1
 3 10 l 1x0480
EndSplineSet
Fore
Refer: 656 715 N 1 0 0 1 1 0 2
EndChar

StartChar: aacute
Encoding: 225 225 159
Width: 6
VWidth: 0
Flags: W
HStem: 9 1<2 3> 10 1<3 4>
VStem: 2 1<9 10> 3 1<10 11>
LayerCount: 2
Back
SplineSet
2 9 m 1x05
 3 9 l 1
 3 10 l 1x0480
 2 10 l 1
 2 9 l 1x05
2 1 m 1x56
 1 1 l 1x26
 1 4 l 1
 2 4 l 1
 2 1 l 1x56
2 1 m 1x46
 3 1 l 1
 3 0 l 1
 2 0 l 1x45
 2 1 l 1x46
2 4 m 1x3640
 2 5 l 1
 4 5 l 1x3540
 4 7 l 1
 5 7 l 1x8540
 5 0 l 1
 4 0 l 1x4540
 4 1 l 1x2540
 3 1 l 1x4540
 3 2 l 1x2480
 4 2 l 1
 4 4 l 1
 2 4 l 1x3640
4 7 m 1x8540
 2 7 l 1
 2 8 l 1
 4 8 l 1x0d40
 4 7 l 1x8540
2 7 m 1
 1 7 l 1
 1 6 l 1x0e
 2 6 l 1
 2 7 l 1
3 10 m 1x0480
 3 11 l 1
 4 11 l 1
 4 10 l 1
 3 10 l 1x0480
EndSplineSet
Fore
Refer: 655 714 N 1 0 0 1 1 0 2
EndChar

StartChar: acircumflex
Encoding: 226 226 160
Width: 6
VWidth: 0
Flags: W
HStem: 10 1<2 4>
VStem: 2 2<10 11>
LayerCount: 2
Back
SplineSet
1 9 m 1x06
 2 9 l 1
 2 10 l 1x05
 1 10 l 1
 1 9 l 1x06
2 1 m 1x56
 1 1 l 1x26
 1 4 l 1
 2 4 l 1
 2 1 l 1x56
2 1 m 1x46
 3 1 l 1
 3 0 l 1
 2 0 l 1x45
 2 1 l 1x46
2 4 m 1x3640
 2 5 l 1
 4 5 l 1x3540
 4 7 l 1
 5 7 l 1x8540
 5 0 l 1
 4 0 l 1x4540
 4 1 l 1x2540
 3 1 l 1x4540
 3 2 l 1x2480
 4 2 l 1
 4 4 l 1
 2 4 l 1x3640
4 7 m 1x8540
 2 7 l 1
 2 8 l 1
 4 8 l 1x0d40
 4 7 l 1x8540
2 7 m 1
 1 7 l 1
 1 6 l 1x0e
 2 6 l 1
 2 7 l 1
4 10 m 1x0540
 2 10 l 1
 2 11 l 1
 4 11 l 1
 4 10 l 1x0540
4 10 m 1
 4 9 l 1
 5 9 l 1
 5 10 l 1
 4 10 l 1
EndSplineSet
Fore
Refer: 711 770 S 1 0 0 1 0 0 2
EndChar

StartChar: atilde
Encoding: 227 227 161
Width: 6
VWidth: 0
Flags: HW
HStem: 10 1<2 3 4 5>
VStem: 2 1<10 11> 4 1<10 11>
LayerCount: 2
Back
SplineSet
1 9 m 1x06
 2 9 l 1
 2 10 l 1x0480
 1 10 l 1
 1 9 l 1x06
2 1 m 1x56
 1 1 l 1x26
 1 4 l 1
 2 4 l 1
 2 1 l 1x56
2 1 m 1x46
 3 1 l 1
 3 0 l 1
 2 0 l 1x4480
 2 1 l 1x46
2 4 m 1x3640
 2 5 l 1
 4 5 l 1x34c0
 4 7 l 1x85
 5 7 l 1x8440
 5 0 l 1
 4 0 l 1x4440
 4 1 l 1x2440
 3 1 l 1x44c0
 3 2 l 1x24c0
 4 2 l 1
 4 4 l 1
 2 4 l 1x3640
4 7 m 1x85
 2 7 l 1
 2 8 l 1
 4 8 l 1x0d
 4 7 l 1x85
2 7 m 1
 1 7 l 1
 1 6 l 1x0e
 2 6 l 1x0c80
 2 7 l 1
3 10 m 1x0480
 2 10 l 1
 2 11 l 1
 3 11 l 1
 3 10 l 1x0480
3 10 m 1
 3 9 l 1
 4 9 l 1
 4 10 l 1x04c0
 3 10 l 1
4 10 m 1
 4 11 l 1
 5 11 l 1
 5 10 l 1
 4 10 l 1
EndSplineSet
Fore
Refer: 712 771 S 1 0 0 1 0 0 2
EndChar

StartChar: adieresis
Encoding: 228 228 162
Width: 6
VWidth: 0
Flags: W
HStem: 9 1<1 2 4 5>
VStem: 1 1<9 10> 4 1<9 10>
LayerCount: 2
Back
SplineSet
1 9 m 1x06
 1 10 l 1
 2 10 l 1
 2 9 l 1
 1 9 l 1x06
4 9 m 1x0440
 4 10 l 1
 5 10 l 1
 5 9 l 1
 4 9 l 1x0440
2 1 m 1x56
 1 1 l 1x26
 1 4 l 1
 2 4 l 1
 2 1 l 1x56
2 1 m 1x46
 3 1 l 1
 3 0 l 1
 2 0 l 1x45
 2 1 l 1x46
2 4 m 1x3640
 2 5 l 1
 4 5 l 1x3540
 4 7 l 1
 5 7 l 1x8540
 5 0 l 1
 4 0 l 1x4540
 4 1 l 1x2540
 3 1 l 1x4540
 3 2 l 1x2480
 4 2 l 1
 4 4 l 1
 2 4 l 1x3640
4 7 m 1x8540
 2 7 l 1
 2 8 l 1
 4 8 l 1x0d40
 4 7 l 1x8540
2 7 m 1
 1 7 l 1
 1 6 l 1x0e
 2 6 l 1
 2 7 l 1
EndSplineSet
Fore
Refer: 717 776 S 1 0 0 1 0 -1 2
EndChar

StartChar: aring
Encoding: 229 229 163
Width: 6
VWidth: 0
Flags: W
HStem: 7 1<2 4> 8 2<1 2 4 5>
VStem: 1 1<8 10> 2 2<7 8 10 11>
LayerCount: 2
Back
SplineSet
1 8 m 1x06
 1 10 l 1
 2 10 l 1x06
 2 11 l 1
 4 11 l 1
 4 10 l 1x05
 5 10 l 1
 5 8 l 1x0440
 4 8 l 1x09
 4 7 l 1x81
 2 7 l 1x09
 2 8 l 1x0a
 4 8 l 1x09
 4 10 l 1x05
 2 10 l 1x06
 2 8 l 1x0a
 1 8 l 1x06
2 7 m 1x09
 1 7 l 1
 1 6 l 1x0a
 2 6 l 1
 2 7 l 1x09
4 7 m 1x81
 5 7 l 1x8040
 5 0 l 1
 4 0 l 1x4040
 4 1 l 1x2040
 3 1 l 1x4080
 3 2 l 1x2080
 4 2 l 1x2040
 4 4 l 1
 2 4 l 1
 2 1 l 1x5240
 1 1 l 1
 1 4 l 1
 2 4 l 1x3240
 2 5 l 1x31
 4 5 l 1x3040
 4 7 l 1x81
2 1 m 1x42
 3 1 l 1
 3 0 l 1x4280
 2 0 l 1x41
 2 1 l 1x42
EndSplineSet
Fore
Refer: 719 778 S 1 0 0 1 0 -3 2
EndChar

StartChar: ae
Encoding: 230 230 164
Width: 7
VWidth: 0
Flags: W
HStem: 1 1<5 6> 4 1<2 3 4 5> 7 1<2 3 4 5>
VStem: 1 1<1 4 6 7> 3 1<1 4 5 7> 5 1<1 2 5 7>
CounterMasks: 1 fc
LayerCount: 2
Fore
SplineSet
5 7 m 1
 4 7 l 1
 4 8 l 1
 5 8 l 1
 5 7 l 1
5 7 m 1
 6 7 l 1
 6 4 l 1
 4 4 l 1
 4 1 l 1
 3 1 l 1
 3 4 l 1
 2 4 l 1
 2 5 l 1
 3 5 l 1
 3 7 l 1
 4 7 l 1
 4 5 l 1
 5 5 l 1
 5 7 l 1
2 4 m 1
 2 1 l 1
 1 1 l 1
 1 4 l 1
 2 4 l 1
3 1 m 1
 2 1 l 1
 2 0 l 1
 3 0 l 1
 3 1 l 1
4 1 m 1
 4 0 l 1
 5 0 l 1
 5 1 l 1
 4 1 l 1
5 1 m 1
 5 2 l 1
 6 2 l 1
 6 1 l 1
 5 1 l 1
3 7 m 1
 2 7 l 1
 2 8 l 1
 3 8 l 1
 3 7 l 1
2 7 m 1
 2 6 l 1
 1 6 l 1
 1 7 l 1
 2 7 l 1
EndSplineSet
Validated: 5
EndChar

StartChar: ccedilla
Encoding: 231 231 165
Width: 6
VWidth: 0
HStem: -2 1<2 3> -2 2<3 4> 0 1<2 4> 1 2<4 5> 5 2<4 5> 7 1<2 4>
VStem: 1 1<1 7> 2 2<-2 -1 0 1 7 8> 3 1<-1 0> 4 1<1 3 5 7>
LayerCount: 2
Back
SplineSet
2 -1 m 1x41
 3 -1 l 1x4080
 3 0 l 1x8080
 4 0 l 1
 4 -2 l 1x81
 2 -2 l 1
 2 -1 l 1x41
EndSplineSet
Refer: 67 99 N 1 0 0 1 0 0 3
Fore
Refer: 748 807 S 1 0 0 1 1 0 2
Refer: 67 99 N 1 0 0 1 0 0 3
EndChar

StartChar: egrave
Encoding: 232 232 166
Width: 6
VWidth: 0
Flags: W
HStem: 9 1<3 4> 10 1<2 3>
VStem: 2 1<10 11> 3 1<9 10>
LayerCount: 2
Back
SplineSet
4 9 m 1x0480
 4 10 l 1
 3 10 l 1
 3 9 l 1
 4 9 l 1x0480
4 1 m 1x45
 4 3 l 1
 5 3 l 1
 5 1 l 1x2480
 4 1 l 1x45
4 1 m 1x45
 4 0 l 1
 2 0 l 1x45
 2 1 l 1x46
 4 1 l 1x45
2 1 m 1x5680
 1 1 l 1x2680
 1 7 l 1
 2 7 l 1x8680
 2 5 l 1
 4 5 l 1x1680
 4 7 l 1x85
 5 7 l 1x8480
 5 4 l 1
 2 4 l 1
 2 1 l 1x5680
4 7 m 1x85
 2 7 l 1x86
 2 8 l 1
 4 8 l 1x0d
 4 7 l 1x85
3 10 m 1
 2 10 l 1
 2 11 l 1x05
 3 11 l 1
 3 10 l 1
EndSplineSet
Fore
Refer: 656 715 N 1 0 0 1 1 0 2
EndChar

StartChar: eacute
Encoding: 233 233 167
Width: 6
VWidth: 0
Flags: W
HStem: 9 1<2 3> 10 1<3 4>
VStem: 2 1<9 10> 3 1<10 11>
LayerCount: 2
Back
SplineSet
2 9 m 1x0580
 2 10 l 1
 3 10 l 1x0580
 3 11 l 1
 4 11 l 1
 4 10 l 1x0380
 3 10 l 1
 3 9 l 1
 2 9 l 1x0580
4 1 m 1x4140
 4 3 l 1
 5 3 l 1
 5 1 l 1x2140
 4 1 l 1x4140
4 1 m 1x4140
 4 0 l 1
 2 0 l 1
 2 1 l 1
 4 1 l 1x4140
2 1 m 1
 1 1 l 1x2140
 1 7 l 1
 2 7 l 1x8140
 2 5 l 1
 4 5 l 1x1140
 4 7 l 1
 5 7 l 1x8140
 5 4 l 1
 2 4 l 1x1140
 2 1 l 1
4 7 m 1x8140
 2 7 l 1x8140
 2 8 l 1
 4 8 l 1x0940
 4 7 l 1x8140
EndSplineSet
Fore
Refer: 655 714 N 1 0 0 1 1 0 2
EndChar

StartChar: ecircumflex
Encoding: 234 234 168
Width: 6
VWidth: 0
Flags: W
HStem: 10 1<2 4>
VStem: 2 2<10 11>
LayerCount: 2
Back
SplineSet
1 9 m 1x07
 2 9 l 1
 2 10 l 1
 1 10 l 1
 1 9 l 1x07
4 1 m 1x47
 4 3 l 1
 5 3 l 1
 5 1 l 1x27
 4 1 l 1x47
4 1 m 1x47
 4 0 l 1
 2 0 l 1
 2 1 l 1
 4 1 l 1x47
2 1 m 1
 1 1 l 1x27
 1 7 l 1
 2 7 l 1x87
 2 5 l 1
 4 5 l 1x17
 4 7 l 1
 5 7 l 1x87
 5 4 l 1
 2 4 l 1x17
 2 1 l 1
4 7 m 1x87
 2 7 l 1x87
 2 8 l 1
 4 8 l 1x0f
 4 7 l 1x87
4 10 m 1
 2 10 l 1
 2 11 l 1
 4 11 l 1
 4 10 l 1
4 10 m 1
 4 9 l 1
 5 9 l 1
 5 10 l 1
 4 10 l 1
EndSplineSet
Fore
Refer: 711 770 S 1 0 0 1 0 0 2
EndChar

StartChar: edieresis
Encoding: 235 235 169
Width: 6
VWidth: 0
Flags: W
HStem: 9 1<1 2 4 5>
VStem: 1 1<9 10> 4 1<9 10>
LayerCount: 2
Back
SplineSet
1 10 m 1x06
 2 10 l 1
 2 9 l 1
 1 9 l 1
 1 10 l 1x06
4 10 m 1x0480
 5 10 l 1
 5 9 l 1
 4 9 l 1
 4 10 l 1x0480
4 1 m 1x45
 4 3 l 1
 5 3 l 1
 5 1 l 1x2480
 4 1 l 1x45
4 1 m 1x45
 4 0 l 1
 2 0 l 1x45
 2 1 l 1x46
 4 1 l 1x45
2 1 m 1x5680
 1 1 l 1x2680
 1 7 l 1
 2 7 l 1x8680
 2 5 l 1
 4 5 l 1x1680
 4 7 l 1x85
 5 7 l 1x8480
 5 4 l 1
 2 4 l 1
 2 1 l 1x5680
4 7 m 1x85
 2 7 l 1x86
 2 8 l 1
 4 8 l 1x0d
 4 7 l 1x85
EndSplineSet
Fore
Refer: 717 776 S 1 0 0 1 0 -1 2
EndChar

StartChar: igrave
Encoding: 236 236 170
Width: 3
VWidth: 0
Flags: W
HStem: 9 1<1 2> 10 1<0 1>
VStem: 0 1<10 11> 1 1<9 10>
LayerCount: 2
Back
SplineSet
0 11 m 1x30
 1 11 l 1
 1 10 l 1
 0 10 l 1
 0 11 l 1x30
1 8 m 1x88
 2 8 l 1x88
 2 0 l 1
 1 0 l 1x48
 1 8 l 1x88
1 10 m 1x30
 1 9 l 1
 2 9 l 1
 2 10 l 1x28
 1 10 l 1x30
EndSplineSet
Fore
Refer: 656 715 N 1 0 0 1 -1 0 2
EndChar

StartChar: iacute
Encoding: 237 237 171
Width: 3
VWidth: 0
Flags: W
HStem: 9 1<1 2> 10 1<2 3>
VStem: 1 1<9 10> 2 1<10 11>
LayerCount: 2
Back
SplineSet
1 9 m 1x30
 2 9 l 1
 2 10 l 1x28
 1 10 l 1
 1 9 l 1x30
1 8 m 1x90
 2 8 l 1x90
 2 0 l 1
 1 0 l 1x50
 1 8 l 1x90
2 10 m 1x28
 2 11 l 1
 3 11 l 1
 3 10 l 1
 2 10 l 1x28
EndSplineSet
Fore
Refer: 655 714 N 1 0 0 1 0 0 2
EndChar

StartChar: icircumflex
Encoding: 238 238 172
Width: 6
VWidth: 0
Flags: W
HStem: 10 1<1 3>
VStem: 1 2<10 11>
LayerCount: 2
Back
SplineSet
0 9 m 1x30
 1 9 l 1
 1 10 l 1
 0 10 l 1
 0 9 l 1x30
1 8 m 1x90
 2 8 l 1x90
 2 0 l 1
 1 0 l 1x50
 1 8 l 1x90
2 10 m 1x30
 2 9 l 1
 3 9 l 1
 3 10 l 1
 2 10 l 1x30
2 10 m 1
 1 10 l 1
 1 11 l 1
 2 11 l 1
 2 10 l 1
EndSplineSet
Fore
Refer: 711 770 S 1 0 0 1 -1 0 2
EndChar

StartChar: idieresis
Encoding: 239 239 173
Width: 3
VWidth: 0
Flags: W
HStem: 9 1<0 1 2 3>
VStem: 0 1<9 10> 2 1<9 10>
LayerCount: 2
Back
SplineSet
2 10 m 1x24
 3 10 l 1
 3 9 l 1
 2 9 l 1
 2 10 l 1x24
0 10 m 1x30
 1 10 l 1
 1 9 l 1
 0 9 l 1
 0 10 l 1x30
1 8 m 1x88
 2 8 l 1x88
 2 0 l 1
 1 0 l 1x48
 1 8 l 1x88
EndSplineSet
Fore
Refer: 716 775 S 1 0 0 1 1 -1 2
Refer: 716 775 N 1 0 0 1 -1 -1 2
EndChar

StartChar: eth
Encoding: 240 240 174
Width: 6
VWidth: 0
Flags: W
HStem: 0 1<2 4> 6 1<2 4> 8 1<2 3> 10 1<2 3 4 5>
VStem: 1 1<1 6> 2 2<0 1> 2 1<8 9 10 11> 4 1<1 6 7 9 10 11>
LayerCount: 2
Fore
SplineSet
1 1 m 1xf8
 1 6 l 1
 2 6 l 1xf8
 2 7 l 1
 4 7 l 1
 4 9 l 1
 5 9 l 1
 5 1 l 1xf3
 4 1 l 1
 4 0 l 1
 2 0 l 1xf4
 2 1 l 1
 1 1 l 1xf8
4 10 m 1xf1
 4 11 l 1
 5 11 l 1
 5 10 l 1
 4 10 l 1xf1
4 10 m 1
 3 10 l 1
 3 9 l 1xf3
 4 9 l 1
 4 10 l 1
3 9 m 1
 3 8 l 1
 2 8 l 1
 2 9 l 1
 3 9 l 1
3 10 m 1
 2 10 l 1
 2 11 l 1
 3 11 l 1
 3 10 l 1
4 1 m 1xf4
 4 6 l 1
 2 6 l 1
 2 1 l 1xf9
 4 1 l 1xf4
EndSplineSet
Validated: 5
EndChar

StartChar: ntilde
Encoding: 241 241 175
Width: 6
VWidth: 0
Flags: HW
HStem: 10 1<2 3 4 5>
VStem: 2 1<10 11> 4 1<10 11>
LayerCount: 2
Back
SplineSet
1 9 m 1x18
 2 9 l 1
 2 10 l 1
 1 10 l 1
 1 9 l 1x18
1 8 m 1x2c
 2 8 l 1x2c
 2 7 l 1
 3 7 l 1x4c
 3 8 l 1
 4 8 l 1
 4 7 l 1x2c
 5 7 l 1x2a
 5 0 l 1
 4 0 l 1x8a
 4 7 l 1x2c
 3 7 l 1
 3 6 l 1
 2 6 l 1x4c
 2 0 l 1
 1 0 l 1x8c
 1 8 l 1x2c
4 10 m 1x1a
 4 11 l 1
 5 11 l 1
 5 10 l 1
 4 10 l 1x1a
4 10 m 1
 3 10 l 1
 3 9 l 1x1c
 4 9 l 1
 4 10 l 1
3 10 m 1
 2 10 l 1
 2 11 l 1
 3 11 l 1
 3 10 l 1
EndSplineSet
Fore
Refer: 712 771 S 1 0 0 1 0 0 2
EndChar

StartChar: ograve
Encoding: 242 242 176
Width: 6
VWidth: 0
Flags: W
HStem: 9 1<3 4> 10 1<2 3>
VStem: 2 1<10 11> 3 1<9 10>
LayerCount: 2
Back
SplineSet
1 1 m 1x4a
 1 7 l 1
 2 7 l 1x2a
 2 8 l 1
 4 8 l 1x26
 4 7 l 1x86
 2 7 l 1x2a
 2 1 l 1
 1 1 l 1x4a
4 9 m 1
 4 10 l 1
 3 10 l 1
 3 9 l 1x16
 4 9 l 1
4 7 m 1x82
 5 7 l 1x82
 5 1 l 1
 4 1 l 1x42
 4 7 l 1x82
4 1 m 1x46
 2 1 l 1x4a
 2 0 l 1
 4 0 l 1
 4 1 l 1x46
3 10 m 1x16
 2 10 l 1
 2 11 l 1
 3 11 l 1
 3 10 l 1x16
EndSplineSet
Fore
Refer: 656 715 N 1 0 0 1 1 0 2
EndChar

StartChar: oacute
Encoding: 243 243 177
Width: 6
VWidth: 0
Flags: W
HStem: 9 1<2 3> 10 1<3 4>
VStem: 2 1<9 10> 3 1<10 11>
LayerCount: 2
Back
SplineSet
2 9 m 1x09
 2 10 l 1
 3 10 l 1x09
 3 11 l 1
 4 11 l 1
 4 10 l 1x0480
 3 10 l 1
 3 9 l 1
 2 9 l 1x09
2 7 m 1x8240
 2 8 l 1
 4 8 l 1x1140
 4 7 l 1
 2 7 l 1x8240
2 7 m 1x82
 2 1 l 1x42
 1 1 l 1x22
 1 7 l 1
 2 7 l 1x82
2 1 m 1
 4 1 l 1
 4 0 l 1
 2 0 l 1x4140
 2 1 l 1
4 7 m 1x8040
 5 7 l 1x8040
 5 1 l 1x2040
 4 1 l 1x4040
 4 7 l 1x8040
EndSplineSet
Fore
Refer: 655 714 N 1 0 0 1 1 0 2
EndChar

StartChar: ocircumflex
Encoding: 244 244 178
Width: 6
VWidth: 0
Flags: W
HStem: 10 1<2 4>
VStem: 2 2<10 11>
LayerCount: 2
Back
SplineSet
1 1 m 1x4c
 1 7 l 1
 2 7 l 1
 2 8 l 1
 4 8 l 1x2c
 4 7 l 1x8c
 2 7 l 1x2c
 2 1 l 1
 1 1 l 1x4c
1 9 m 1
 2 9 l 1
 2 10 l 1
 1 10 l 1x1c
 1 9 l 1
4 7 m 1x8c
 5 7 l 1x8c
 5 1 l 1
 4 1 l 1x4c
 4 7 l 1x8c
4 1 m 1x4c
 2 1 l 1
 2 0 l 1
 4 0 l 1
 4 1 l 1x4c
4 10 m 1x1c
 2 10 l 1
 2 11 l 1
 4 11 l 1
 4 10 l 1x1c
4 10 m 1
 4 9 l 1
 5 9 l 1
 5 10 l 1
 4 10 l 1
EndSplineSet
Fore
Refer: 711 770 S 1 0 0 1 0 0 2
EndChar

StartChar: otilde
Encoding: 245 245 179
Width: 6
VWidth: 0
Flags: HW
HStem: 10 1<2 3 4 5>
VStem: 2 1<10 11> 4 1<10 11>
LayerCount: 2
Back
SplineSet
1 1 m 1x4a
 1 7 l 1
 2 7 l 1x2a
 2 8 l 1
 4 8 l 1x26
 4 7 l 1x86
 2 7 l 1x2a
 2 1 l 1
 1 1 l 1x4a
1 9 m 1
 2 9 l 1
 2 10 l 1x16
 1 10 l 1x1a
 1 9 l 1
4 7 m 1x82
 5 7 l 1x82
 5 1 l 1
 4 1 l 1x42
 4 7 l 1x82
4 1 m 1x46
 2 1 l 1x4a
 2 0 l 1
 4 0 l 1
 4 1 l 1x46
3 10 m 1x16
 2 10 l 1
 2 11 l 1
 3 11 l 1
 3 10 l 1x16
3 10 m 1
 3 9 l 1
 4 9 l 1
 4 10 l 1
 3 10 l 1
4 10 m 1
 4 11 l 1
 5 11 l 1
 5 10 l 1
 4 10 l 1
EndSplineSet
Fore
Refer: 712 771 S 1 0 0 1 0 0 2
EndChar

StartChar: odieresis
Encoding: 246 246 180
Width: 6
VWidth: 0
Flags: W
HStem: 9 1<1 2 4 5>
VStem: 1 1<9 10> 4 1<9 10>
LayerCount: 2
Back
SplineSet
1 1 m 1x4c
 1 7 l 1
 2 7 l 1
 2 8 l 1
 4 8 l 1x2c
 4 7 l 1x8c
 2 7 l 1x2c
 2 1 l 1
 1 1 l 1x4c
1 10 m 1x1c
 2 10 l 1
 2 9 l 1
 1 9 l 1
 1 10 l 1x1c
4 10 m 1
 5 10 l 1
 5 9 l 1
 4 9 l 1
 4 10 l 1
4 7 m 1x8c
 5 7 l 1x8c
 5 1 l 1
 4 1 l 1x4c
 4 7 l 1x8c
4 1 m 1x4c
 2 1 l 1
 2 0 l 1
 4 0 l 1
 4 1 l 1x4c
EndSplineSet
Fore
Refer: 717 776 S 1 0 0 1 0 -1 2
EndChar

StartChar: divide
Encoding: 247 247 181
Width: 7
VWidth: 0
Flags: W
HStem: 3 1<3 4> 5 1<1 6> 7 1<3 4>
VStem: 3 1<3 4 7 8>
CounterMasks: 1 e0
LayerCount: 2
Fore
SplineSet
3 3 m 1
 3 4 l 1
 4 4 l 1
 4 3 l 1
 3 3 l 1
3 7 m 1
 3 8 l 1
 4 8 l 1
 4 7 l 1
 3 7 l 1
1 5 m 1
 1 6 l 1
 6 6 l 1
 6 5 l 1
 1 5 l 1
EndSplineSet
Validated: 1
EndChar

StartChar: oslash
Encoding: 248 248 182
Width: 6
VWidth: 0
Flags: W
HStem: 2 1<0 1> 3 1<2 3> 4 1<3 4> 5 1<5 6>
VStem: 0 1<2 3> 2 1<3 4> 3 1<4 5> 5 1<5 6>
LayerCount: 2
Back
SplineSet
0 2 m 1x22
 0 3 l 1x22
 1 3 l 1x21
 1 7 l 1
 2 7 l 1
 2 8 l 1
 4 8 l 1x24a0
 4 7 l 1x80a0
 2 7 l 1
 2 4 l 1x14a0
 3 4 l 1
 3 3 l 1x35
 2 3 l 1x36
 2 1 l 1
 1 1 l 1x4080
 1 2 l 1x2080
 0 2 l 1x22
2 1 m 1x40a0
 2 0 l 1
 4 0 l 1
 4 1 l 1
 2 1 l 1x40a0
4 1 m 1
 4 4 l 1x1020
 3 4 l 1
 3 5 l 1
 4 5 l 1x1140
 4 7 l 1
 5 7 l 1x8020
 5 6 l 1x0820
 6 6 l 1
 6 5 l 1x0840
 5 5 l 1x0820
 5 1 l 1
 4 1 l 1
EndSplineSet
Fore
SplineSet
5 6 m 29x19
 6 6 l 25
 6 5 l 25
 5 5 l 25
 5 6 l 29x19
3 5 m 25x2b
 4 5 l 25
 4 4 l 25x2b
 3 4 l 25x4d
 3 5 l 25x2b
2 3 m 25x4d
 2 4 l 25
 3 4 l 25
 3 3 l 25
 2 3 l 25x4d
0 2 m 25x89
 0 3 l 25
 1 3 l 25
 1 2 l 25
 0 2 l 25x89
EndSplineSet
EndChar

StartChar: ugrave
Encoding: 249 249 183
Width: 6
VWidth: 0
Flags: W
HStem: 9 1<3 4> 10 1<2 3>
VStem: 2 1<10 11> 3 1<9 10>
LayerCount: 2
Back
SplineSet
4 9 m 1x11
 3 9 l 1x11
 3 10 l 1x12
 2 10 l 1
 2 11 l 1
 3 11 l 1x0a
 3 10 l 1x12
 4 10 l 1
 4 9 l 1x11
1 8 m 1x84
 2 8 l 1x84
 2 1 l 1
 1 1 l 1x24
 1 8 l 1x84
3 1 m 1x21
 3 2 l 1x21
 4 2 l 1x2080
 4 8 l 1
 5 8 l 1x8080
 5 0 l 1
 4 0 l 1x4080
 4 1 l 1x2080
 3 1 l 1x21
3 1 m 1
 2 1 l 1x25
 2 0 l 1x42
 3 0 l 1x41
 3 1 l 1
EndSplineSet
Fore
Refer: 656 715 N 1 0 0 1 1 0 2
EndChar

StartChar: uacute
Encoding: 250 250 184
Width: 6
VWidth: 0
Flags: W
HStem: 9 1<2 3> 10 1<3 4>
VStem: 2 1<9 10> 3 1<10 11>
LayerCount: 2
Back
SplineSet
2 9 m 1x1c
 3 9 l 1
 3 10 l 1
 2 10 l 1
 2 9 l 1x1c
1 8 m 1x88
 2 8 l 1x88
 2 1 l 1
 1 1 l 1x28
 1 8 l 1x88
3 1 m 1x2c
 3 2 l 1x2c
 4 2 l 1x2a
 4 8 l 1
 5 8 l 1x8a
 5 0 l 1
 4 0 l 1x4a
 4 1 l 1x2a
 3 1 l 1x2c
3 1 m 1
 2 1 l 1x2c
 2 0 l 1
 3 0 l 1x4c
 3 1 l 1
3 10 m 1x1c
 3 11 l 1
 4 11 l 1
 4 10 l 1
 3 10 l 1x1c
EndSplineSet
Fore
Refer: 655 714 N 1 0 0 1 1 0 2
EndChar

StartChar: ucircumflex
Encoding: 251 251 185
Width: 6
VWidth: 0
Flags: W
HStem: 10 1<2 4>
VStem: 2 2<10 11>
LayerCount: 2
Back
SplineSet
1 9 m 1x18
 2 9 l 1
 2 10 l 1
 1 10 l 1
 1 9 l 1x18
1 8 m 1x88
 2 8 l 1x88
 2 1 l 1
 1 1 l 1x28
 1 8 l 1x88
4 10 m 1x1a
 4 9 l 1
 5 9 l 1
 5 10 l 1
 4 10 l 1x1a
4 10 m 1
 2 10 l 1
 2 11 l 1
 4 11 l 1
 4 10 l 1
3 1 m 1x2c
 3 2 l 1x2c
 4 2 l 1x2a
 4 8 l 1
 5 8 l 1x8a
 5 0 l 1
 4 0 l 1x4a
 4 1 l 1x2a
 3 1 l 1x2c
3 1 m 1
 2 1 l 1x2c
 2 0 l 1
 3 0 l 1x4c
 3 1 l 1
EndSplineSet
Fore
Refer: 711 770 S 1 0 0 1 0 0 2
EndChar

StartChar: udieresis
Encoding: 252 252 186
Width: 6
VWidth: 0
Flags: W
HStem: 9 1<1 2 4 5>
VStem: 1 1<9 10> 4 1<9 10>
LayerCount: 2
Back
SplineSet
4 9 m 1x1c
 4 10 l 1
 5 10 l 1
 5 9 l 1
 4 9 l 1x1c
1 9 m 1
 1 10 l 1
 2 10 l 1
 2 9 l 1
 1 9 l 1
1 8 m 1x8c
 2 8 l 1x8c
 2 1 l 1
 1 1 l 1x2c
 1 8 l 1x8c
3 1 m 1x2c
 3 2 l 1
 4 2 l 1x2c
 4 8 l 1
 5 8 l 1x8c
 5 0 l 1
 4 0 l 1x4c
 4 1 l 1
 3 1 l 1x2c
3 1 m 1
 2 1 l 1x2c
 2 0 l 1
 3 0 l 1x4c
 3 1 l 1
EndSplineSet
Fore
Refer: 717 776 S 1 0 0 1 0 -1 2
EndChar

StartChar: yacute
Encoding: 253 253 187
Width: 7
VWidth: 0
Flags: W
HStem: 9 1<3 4> 10 1<4 5>
VStem: 3 1<9 10> 4 1<10 11>
LayerCount: 2
Back
SplineSet
3 9 m 1x09
 3 10 l 1
 4 10 l 1x09
 4 11 l 1
 5 11 l 1
 5 10 l 1x0880
 4 10 l 1
 4 9 l 1
 3 9 l 1x09
1 8 m 1x14
 2 8 l 1x14
 2 5 l 1x24
 3 5 l 1
 3 2 l 1
 2 2 l 1x22
 2 5 l 1x24
 1 5 l 1
 1 8 l 1x14
5 5 m 1x2080
 5 8 l 1
 6 8 l 1
 6 5 l 1x1080
 5 5 l 1x2080
5 5 m 1x2080
 5 2 l 1x2080
 4 2 l 1x21
 4 5 l 1
 5 5 l 1x2080
4 2 m 1x21
 4 -1 l 1
 3 -1 l 1x81
 3 2 l 1x22
 4 2 l 1x21
3 -1 m 1
 1 -1 l 1
 1 -2 l 1x45
 3 -2 l 1
 3 -1 l 1
EndSplineSet
Fore
Refer: 655 714 N 1 0 0 1 2 0 2
EndChar

StartChar: thorn
Encoding: 254 254 188
Width: 7
VWidth: 0
Flags: W
HStem: -11 20G<1 2> -2 21G<1 2> 0 1<3 5> 1 1<2 3> 4 1<2 3> 5 1<3 5>
VStem: 1 2<1 2 4 5> 1 1<-2 1 2 4 5 9> 3 2<0 1 5 6>
LayerCount: 2
Fore
SplineSet
1 9 m 1x81
 2 9 l 1x81
 2 5 l 1x09
 3 5 l 1x0a
 3 6 l 1
 5 6 l 1
 5 5 l 1x0480
 3 5 l 1
 3 4 l 1x0a
 2 4 l 1
 2 2 l 1x19
 3 2 l 1x1a
 3 1 l 1x22
 5 1 l 1
 5 0 l 1
 3 0 l 1x2080
 3 1 l 1x22
 2 1 l 1x11
 2 -2 l 1
 1 -2 l 1x41
 1 9 l 1x81
5 1 m 1x2080
 5 5 l 1
 6 5 l 1
 6 1 l 1x1480
 5 1 l 1x2080
EndSplineSet
Validated: 5
EndChar

StartChar: ydieresis
Encoding: 255 255 189
Width: 3
VWidth: 0
Flags: W
HStem: 9 1<2 3 4 5>
VStem: 2 1<9 10> 4 1<9 10>
LayerCount: 2
Back
SplineSet
4 10 m 1x09
 5 10 l 1
 5 9 l 1
 4 9 l 1
 4 10 l 1x09
2 10 m 1x0b
 3 10 l 1
 3 9 l 1
 2 9 l 1
 2 10 l 1x0b
1 8 m 1x15
 2 8 l 1x15
 2 5 l 1x25
 3 5 l 1
 3 2 l 1
 2 2 l 1x23
 2 5 l 1x25
 1 5 l 1
 1 8 l 1x15
5 5 m 1x21
 5 8 l 1
 6 8 l 1
 6 5 l 1x11
 5 5 l 1x21
5 5 m 1x21
 5 2 l 1
 4 2 l 1
 4 5 l 1
 5 5 l 1x21
4 2 m 1
 4 -1 l 1
 3 -1 l 1x83
 3 2 l 1x23
 4 2 l 1
3 -1 m 1
 1 -1 l 1
 1 -2 l 1x45
 3 -2 l 1
 3 -1 l 1
EndSplineSet
Fore
Refer: 716 775 S 1 0 0 1 3 -1 2
Refer: 716 775 N 1 0 0 1 1 -1 2
EndChar

StartChar: Amacron
Encoding: 256 256 190
Width: 6
VWidth: 0
Flags: W
HStem: -10 20G<4 5> 0 21G<1 2 4 5> 5 1<2 4> 10 1<2 4> 12 1<1 5>
VStem: 1 1<0 5 6 10> 4 1<0 5 6 10>
LayerCount: 2
Back
SplineSet
1 0 m 1x46
 1 10 l 1
 2 10 l 1
 2 11 l 1
 4 11 l 1x16
 4 10 l 1x86
 2 10 l 1
 2 6 l 1
 4 6 l 1x36
 4 10 l 1
 5 10 l 1x86
 5 0 l 1
 4 0 l 1x46
 4 5 l 1
 2 5 l 1x26
 2 0 l 1
 1 0 l 1x46
1 13 m 1x0e
 5 13 l 1
 5 12 l 1
 1 12 l 1
 1 13 l 1x0e
EndSplineSet
Fore
Refer: 32 65 S 1 0 0 1 0 0 2
Refer: 713 772 N 1 0 0 1 0 2 2
EndChar

StartChar: Abreve
Encoding: 258 258 191
Width: 6
VWidth: 0
Flags: W
HStem: -10 20G<4 5> 0 21G<1 2 4 5> 5 1<2 4> 10 1<2 4> 12 1<2 4>
VStem: 1 1<0 5 6 10> 2 2<12 13> 4 1<0 5 6 10>
LayerCount: 2
Back
SplineSet
1 0 m 1x46
 1 10 l 1
 2 10 l 1
 2 11 l 1
 4 11 l 1x16
 4 10 l 1x86
 2 10 l 1
 2 6 l 1
 4 6 l 1x36
 4 10 l 1
 5 10 l 1x86
 5 0 l 1
 4 0 l 1x46
 4 5 l 1
 2 5 l 1x26
 2 0 l 1
 1 0 l 1x46
1 14 m 1x0e
 2 14 l 1
 2 13 l 1
 1 13 l 1
 1 14 l 1x0e
4 13 m 1
 2 13 l 1
 2 12 l 1
 4 12 l 1
 4 13 l 1
4 13 m 1
 4 14 l 1
 5 14 l 1
 5 13 l 1
 4 13 l 1
EndSplineSet
Fore
Refer: 32 65 S 1 0 0 1 0 0 2
Refer: 715 774 N 1 0 0 1 0 3 2
EndChar

StartChar: Aogonek
Encoding: 260 260 192
Width: 6
VWidth: 0
Flags: HW
HStem: -10 20G<4 5> -2 1<4 5> -2 2<3 4> 0 21G<1 2 4 5> 5 1<2 4> 10 1<2 4>
VStem: 1 1<0 5 6 10> 3 1<-1 0> 3 2<-2 -1> 4 1<0 5 6 10>
LayerCount: 2
Back
SplineSet
1 0 m 1x4c
 1 10 l 1
 2 10 l 1
 2 11 l 1
 4 11 l 1x1c
 4 10 l 1x8c
 2 10 l 1
 2 6 l 1
 4 6 l 1x3c
 4 10 l 1
 5 10 l 1x8c
 5 0 l 1
 4 0 l 1x4c
 4 5 l 1
 2 5 l 1x2c
 2 0 l 1
 1 0 l 1x4c
3 0 m 1x4c
 3 -2 l 1
 5 -2 l 1
 5 -1 l 1
 4 -1 l 1
 4 0 l 1
 3 0 l 1x4c
EndSplineSet
Fore
Refer: 32 65 N 1 0 0 1 0 0 2
Refer: 749 808 N 1 0 0 1 2 0 2
EndChar

StartChar: amacron
Encoding: 257 257 193
Width: 6
VWidth: 0
Flags: W
HStem: 9 1<1 5>
LayerCount: 2
Back
SplineSet
1 9 m 1x0620
 1 10 l 1
 5 10 l 1
 5 9 l 1
 1 9 l 1x0620
2 1 m 1x56
 1 1 l 1x26
 1 4 l 1
 2 4 l 1
 2 1 l 1x56
2 1 m 1x46
 3 1 l 1
 3 0 l 1
 2 0 l 1x4480
 2 1 l 1x46
2 4 m 1x3620
 2 5 l 1
 4 5 l 1x34a0
 4 7 l 1x85
 5 7 l 1x8420
 5 0 l 1
 4 0 l 1x4420
 4 1 l 1x2420
 3 1 l 1x44a0
 3 2 l 1x2440
 4 2 l 1
 4 4 l 1
 2 4 l 1x3620
4 7 m 1x85
 2 7 l 1
 2 8 l 1
 4 8 l 1x0d
 4 7 l 1x85
2 7 m 1
 1 7 l 1
 1 6 l 1x0e
 2 6 l 1x0c80
 2 7 l 1
EndSplineSet
Fore
Refer: 713 772 S 1 0 0 1 0 -1 2
EndChar

StartChar: abreve
Encoding: 259 259 194
Width: 6
VWidth: 0
Flags: W
HStem: 9 1<2 4>
VStem: 2 2<9 10>
LayerCount: 2
Back
SplineSet
1 11 m 1x06
 2 11 l 1
 2 10 l 1
 1 10 l 1
 1 11 l 1x06
2 1 m 1x56
 1 1 l 1x26
 1 4 l 1
 2 4 l 1
 2 1 l 1x56
2 1 m 1x47
 3 1 l 1
 3 0 l 1
 2 0 l 1
 2 1 l 1x47
2 4 m 1x3680
 2 5 l 1
 4 5 l 1x3680
 4 7 l 1
 5 7 l 1x8680
 5 0 l 1
 4 0 l 1x4680
 4 1 l 1x2680
 3 1 l 1x47
 3 2 l 1x27
 4 2 l 1
 4 4 l 1
 2 4 l 1x3680
4 7 m 1x8680
 2 7 l 1
 2 8 l 1
 4 8 l 1x0e80
 4 7 l 1x8680
2 7 m 1
 1 7 l 1
 1 6 l 1
 2 6 l 1
 2 7 l 1
4 10 m 1
 2 10 l 1
 2 9 l 1
 4 9 l 1
 4 10 l 1
4 10 m 1
 4 11 l 1
 5 11 l 1
 5 10 l 1
 4 10 l 1
EndSplineSet
Fore
Refer: 715 774 S 1 0 0 1 0 0 2
EndChar

StartChar: aogonek
Encoding: 261 261 195
Width: 0
VWidth: 0
Flags: W
HStem: -2 1<4 5> -2 2<3 4>
VStem: 3 1<-1 0> 3 2<-2 -1>
LayerCount: 2
Back
SplineSet
2 4 m 1x0d
 2 1 l 1x15
 1 1 l 1
 1 4 l 1
 2 4 l 1x0d
2 4 m 1
 2 5 l 1
 4 5 l 1x0ca0
 4 7 l 1
 5 7 l 1x80a0
 5 0 l 1x10a0
 4 0 l 1x4040
 4 1 l 1x4820
 3 1 l 1x10a0
 3 2 l 1x0840
 4 2 l 1
 4 4 l 1x0c20
 2 4 l 1
4 7 m 1x80a0
 2 7 l 1
 2 8 l 1
 4 8 l 1x02a0
 4 7 l 1x80a0
2 7 m 1
 1 7 l 1
 1 6 l 1x03
 2 6 l 1
 2 7 l 1
3 1 m 1x1080
 3 0 l 1x4080
 2 0 l 1x1080
 2 1 l 1x11
 3 1 l 1x1080
3 0 m 1
 4 0 l 1x4040
 4 -1 l 1x2040
 5 -1 l 1
 5 -2 l 1x2020
 3 -2 l 1x4040
 3 0 l 1
EndSplineSet
Fore
Refer: 749 808 S 1 0 0 1 2 0 2
EndChar

StartChar: Cacute
Encoding: 262 262 196
Width: 6
VWidth: 0
Flags: W
HStem: -10 20G<1 2 4 5> 0 1<2 4> 1 21G<1 2 4 5> 10 1<2 4>
VStem: 1 1<1 10> 2 2<0 1 10 11> 4 1<1 4 7 10>
LayerCount: 2
Back
SplineSet
2 12 m 1x16
 3 12 l 1
 3 13 l 1
 2 13 l 1
 2 12 l 1x16
4 14 m 1
 4 15 l 1
 5 15 l 1
 5 14 l 1x0d
 4 14 l 1
4 14 m 1x16
 4 13 l 1
 3 13 l 1
 3 14 l 1
 4 14 l 1x16
4 10 m 1x85
 5 10 l 1
 5 7 l 1
 4 7 l 1
 4 10 l 1x85
4 10 m 1
 2 10 l 1x85
 2 11 l 1
 4 11 l 1x25
 4 10 l 1
2 10 m 1
 2 1 l 1
 1 1 l 1x44
 1 10 l 1
 2 10 l 1
4 1 m 1x45
 4 4 l 1
 5 4 l 1
 5 1 l 1
 4 1 l 1x45
4 1 m 1
 2 1 l 1
 2 0 l 1
 4 0 l 1
 4 1 l 1
EndSplineSet
Fore
Refer: 34 67 S 1 0 0 1 0 0 2
Refer: 710 769 S 1 0 0 1 1 4 2
EndChar

StartChar: Ccircumflex
Encoding: 264 264 197
Width: 6
VWidth: 0
Flags: W
HStem: -10 20G<1 2 4 5> 0 1<2 4> 1 21G<1 2 4 5> 10 1<2 4> 13 1<2 4>
VStem: 1 1<1 10> 2 2<0 1 10 11 13 14> 4 1<1 4 7 10>
LayerCount: 2
Back
SplineSet
1 12 m 1x1c
 2 12 l 1
 2 13 l 1
 1 13 l 1
 1 12 l 1x1c
4 13 m 1
 4 12 l 1
 5 12 l 1
 5 13 l 1
 4 13 l 1
4 13 m 1
 2 13 l 1
 2 14 l 1
 4 14 l 1
 4 13 l 1
4 10 m 1x8c
 5 10 l 1
 5 7 l 1
 4 7 l 1
 4 10 l 1x8c
4 10 m 1
 2 10 l 1x8c
 2 11 l 1
 4 11 l 1x2c
 4 10 l 1
2 10 m 1
 2 1 l 1
 1 1 l 1x4c
 1 10 l 1
 2 10 l 1
4 1 m 1
 4 4 l 1
 5 4 l 1
 5 1 l 1
 4 1 l 1
4 1 m 1
 2 1 l 1
 2 0 l 1
 4 0 l 1
 4 1 l 1
EndSplineSet
Fore
Refer: 34 67 S 1 0 0 1 0 0 2
Refer: 711 770 S 1 0 0 1 0 3 2
EndChar

StartChar: Cdotaccent
Encoding: 266 266 198
Width: 3
VWidth: 0
Flags: W
HStem: 12 1<2 3>
VStem: 2 1<12 13>
LayerCount: 2
Back
SplineSet
2 12 m 1x16
 2 13 l 1
 3 13 l 1
 3 12 l 1
 2 12 l 1x16
4 10 m 1x82
 5 10 l 1
 5 7 l 1
 4 7 l 1
 4 10 l 1x82
4 10 m 1
 2 10 l 1x8a
 2 11 l 1
 4 11 l 1x26
 4 10 l 1
2 10 m 1
 2 1 l 1
 1 1 l 1x4a
 1 10 l 1
 2 10 l 1
4 1 m 1
 4 4 l 1
 5 4 l 1
 5 1 l 1
 4 1 l 1
4 1 m 1
 2 1 l 1x4a
 2 0 l 1x46
 4 0 l 1
 4 1 l 1
EndSplineSet
Fore
Refer: 716 775 S 1 0 0 1 1 2 2
EndChar

StartChar: Ccaron
Encoding: 268 268 199
Width: 6
VWidth: 0
Flags: W
HStem: 13 1<1 2 3 4>
VStem: 1 1<13 14> 3 1<13 14>
LayerCount: 2
Back
SplineSet
1 14 m 1x1c
 2 14 l 1
 2 13 l 1
 1 13 l 1
 1 14 l 1x1c
3 13 m 1
 3 14 l 1
 4 14 l 1
 4 13 l 1
 3 13 l 1
3 13 m 1
 2 13 l 1
 2 12 l 1
 3 12 l 1
 3 13 l 1
4 10 m 1x8c
 5 10 l 1
 5 7 l 1
 4 7 l 1
 4 10 l 1x8c
4 10 m 1
 2 10 l 1x8c
 2 11 l 1
 4 11 l 1x2c
 4 10 l 1
2 10 m 1
 2 1 l 1
 1 1 l 1x4c
 1 10 l 1
 2 10 l 1
4 1 m 1
 4 4 l 1
 5 4 l 1
 5 1 l 1
 4 1 l 1
4 1 m 1
 2 1 l 1
 2 0 l 1
 4 0 l 1
 4 1 l 1
EndSplineSet
Fore
Refer: 721 780 N 1 0 0 1 0 3 2
EndChar

StartChar: Dcaron
Encoding: 270 270 204
Width: 6
VWidth: 0
Flags: W
HStem: -10 20G<4 5> 0 1<2 4> 1 21G<4 5> 10 1<2 4> 13 1<1 2 3 4>
VStem: 1 1<13 14> 1 3<0 1 10 11> 3 1<13 14> 4 1<1 10>
LayerCount: 2
Back
SplineSet
1 11 m 1xac
 4 11 l 1
 4 10 l 1
 5 10 l 1xac
 5 1 l 1x4c
 4 1 l 1
 4 10 l 1
 2 10 l 1
 2 1 l 1
 4 1 l 1
 4 0 l 1
 1 0 l 1
 1 11 l 1xac
1 14 m 1x1c
 2 14 l 1
 2 13 l 1
 1 13 l 1
 1 14 l 1x1c
3 13 m 1
 2 13 l 1
 2 12 l 1
 3 12 l 1
 3 13 l 1
3 13 m 1
 3 14 l 1
 4 14 l 1
 4 13 l 1
 3 13 l 1
EndSplineSet
Fore
Refer: 35 68 S 1 0 0 1 0 0 2
Refer: 721 780 S 1 0 0 1 0 3 2
EndChar

StartChar: dcaron
Encoding: 271 271 206
Width: 9
VWidth: 0
Flags: W
HStem: 7 1<6 7> 8 21G<7 8> 9 2<6 7>
VStem: 6 1<7 8> 7 1<8 9>
LayerCount: 2
Back
SplineSet
5 11 m 1x6d80
 5 0 l 1
 4 0 l 1x8580
 4 1 l 1x4580
 3 1 l 1
 3 2 l 1x4680
 4 2 l 1
 4 6 l 1x6580
 3 6 l 1
 3 7 l 1x6680
 4 7 l 1
 4 11 l 1
 5 11 l 1x6d80
3 8 m 1x3680
 2 8 l 1
 2 7 l 1
 3 7 l 1
 3 8 l 1x3680
6 11 m 1x0c80
 8 11 l 1x0c80
 8 8 l 1
 7 8 l 1x1480
 7 9 l 1
 6 9 l 1
 6 11 l 1x0c80
2 1 m 1x4680
 2 0 l 1
 3 0 l 1x8680
 3 1 l 1
 2 1 l 1x4680
2 1 m 1x6480
 1 1 l 1
 1 7 l 1
 2 7 l 1
 2 1 l 1x6480
7 8 m 1x3480
 6 8 l 1
 6 7 l 1
 7 7 l 1
 7 8 l 1x3480
EndSplineSet
Fore
Refer: 6 39 N 1 0 0 1 5 0 2
EndChar

StartChar: dcroat
Encoding: 273 273 207
Width: 5
VWidth: 0
Flags: W
HStem: 9 1<3 6>
VStem: 3 3<9 10>
LayerCount: 2
Back
SplineSet
3 1 m 1x2180
 3 2 l 1
 4 2 l 1
 4 6 l 1
 3 6 l 1
 3 7 l 1
 4 7 l 1
 4 9 l 1
 3 9 l 1
 3 10 l 1
 4 10 l 1x3580
 4 11 l 1
 5 11 l 1x8180
 5 10 l 1
 6 10 l 1
 6 9 l 1
 5 9 l 1x0580
 5 0 l 1
 4 0 l 1x4180
 4 1 l 1
 3 1 l 1x2180
3 1 m 1
 2 1 l 1x2280
 2 0 l 1
 3 0 l 1x4180
 3 1 l 1
2 1 m 1
 1 1 l 1
 1 7 l 1
 2 7 l 1x2a80
 2 1 l 1
2 7 m 1
 2 8 l 1
 3 8 l 1x0980
 3 7 l 1x1180
 2 7 l 1
EndSplineSet
Fore
Refer: 762 821 S 1 0 0 1 2 4 2
EndChar

StartChar: Emacron
Encoding: 274 274 208
Width: 6
VWidth: 0
Flags: W
HStem: 0 1<2 5> 5 1<2 4> 10 1<2 5> 12 1<1 5>
VStem: 1 1<1 5 6 10>
LayerCount: 2
Back
SplineSet
1 13 m 1xf8
 5 13 l 1
 5 12 l 1
 1 12 l 1
 1 13 l 1xf8
1 11 m 1
 5 11 l 1
 5 10 l 1xf8
 2 10 l 1
 2 6 l 1
 4 6 l 1
 4 5 l 1
 2 5 l 1
 2 1 l 1xf4
 5 1 l 1
 5 0 l 1
 1 0 l 1
 1 11 l 1
EndSplineSet
Fore
Refer: 36 69 S 1 0 0 1 0 0 2
Refer: 713 772 S 1 0 0 1 0 2 2
EndChar

StartChar: Ebreve
Encoding: 276 276 209
Width: 6
VWidth: 0
Flags: W
HStem: 0 1<2 5> 5 1<2 4> 10 1<2 5> 12 1<2 4>
VStem: 1 1<1 5 6 10> 2 2<12 13>
LayerCount: 2
Back
SplineSet
1 14 m 1
 2 14 l 1
 2 13 l 1
 1 13 l 1
 1 14 l 1
1 11 m 1
 5 11 l 1
 5 10 l 1
 2 10 l 1
 2 6 l 1
 4 6 l 1
 4 5 l 1
 2 5 l 1
 2 1 l 1
 5 1 l 1
 5 0 l 1
 1 0 l 1
 1 11 l 1
4 13 m 1
 4 14 l 1
 5 14 l 1
 5 13 l 1
 4 13 l 1
4 13 m 1
 2 13 l 1
 2 12 l 1
 4 12 l 1
 4 13 l 1
EndSplineSet
Fore
Refer: 36 69 S 1 0 0 1 0 0 2
Refer: 715 774 S 1 0 0 1 0 3 2
EndChar

StartChar: Edotaccent
Encoding: 278 278 210
Width: 6
VWidth: 0
Flags: W
HStem: 0 1<2 5> 5 1<2 4> 10 1<2 5> 12 1<2 3>
VStem: 1 1<1 5 6 10> 2 1<12 13>
LayerCount: 2
Back
SplineSet
2 12 m 1
 2 13 l 1
 3 13 l 1
 3 12 l 1
 2 12 l 1
1 11 m 1
 5 11 l 1
 5 10 l 1
 2 10 l 1
 2 6 l 1
 4 6 l 1
 4 5 l 1
 2 5 l 1
 2 1 l 1
 5 1 l 1
 5 0 l 1
 1 0 l 1
 1 11 l 1
EndSplineSet
Fore
Refer: 36 69 S 1 0 0 1 0 0 2
Refer: 716 775 S 1 0 0 1 1 2 2
EndChar

StartChar: Eogonek
Encoding: 280 280 211
Width: 6
VWidth: 0
Flags: W
HStem: 0 1<2 5> 5 1<2 4> 10 1<2 5>
VStem: 1 1<1 5 6 10>
CounterMasks: 1 e0
LayerCount: 2
Back
SplineSet
1 11 m 1
 5 11 l 1
 5 10 l 1
 2 10 l 1
 2 6 l 1
 4 6 l 1
 4 5 l 1
 2 5 l 1
 2 1 l 1
 5 1 l 1
 5 0 l 1
 4 0 l 1
 3 0 l 1
 3 -2 l 1
 5 -2 l 1
 5 -1 l 1
 4 -1 l 1
 4 0 l 1
 3 0 l 1
 1 0 l 1
 1 11 l 1
EndSplineSet
Fore
Refer: 36 69 S 1 0 0 1 0 0 2
EndChar

StartChar: Ecaron
Encoding: 282 282 212
Width: 6
VWidth: 0
Flags: W
HStem: 0 1<2 5> 5 1<2 4> 10 1<2 5> 13 1<1 2 3 4>
VStem: 1 1<1 5 6 10 13 14> 3 1<13 14>
LayerCount: 2
Back
SplineSet
1 14 m 1
 2 14 l 1
 2 13 l 1
 1 13 l 1
 1 14 l 1
1 11 m 1
 5 11 l 1
 5 10 l 1
 2 10 l 1
 2 6 l 1
 4 6 l 1
 4 5 l 1
 2 5 l 1
 2 1 l 1
 5 1 l 1
 5 0 l 1
 1 0 l 1
 1 11 l 1
3 13 m 1
 3 14 l 1
 4 14 l 1
 4 13 l 1
 3 13 l 1
3 13 m 1
 2 13 l 1
 2 12 l 1
 3 12 l 1
 3 13 l 1
EndSplineSet
Fore
Refer: 36 69 S 1 0 0 1 0 0 2
Refer: 721 780 S 1 0 0 1 0 3 2
EndChar

StartChar: emacron
Encoding: 275 275 213
Width: 6
VWidth: 0
Flags: W
HStem: 9 1<1 5>
LayerCount: 2
Back
SplineSet
1 9 m 1x0680
 1 10 l 1
 5 10 l 1
 5 9 l 1
 1 9 l 1x0680
4 1 m 1x45
 4 3 l 1
 5 3 l 1
 5 1 l 1x2480
 4 1 l 1x45
4 1 m 1x45
 4 0 l 1
 2 0 l 1x45
 2 1 l 1x46
 4 1 l 1x45
2 1 m 1x5680
 1 1 l 1x2680
 1 7 l 1
 2 7 l 1x8680
 2 5 l 1
 4 5 l 1x1680
 4 7 l 1x85
 5 7 l 1x8480
 5 4 l 1
 2 4 l 1
 2 1 l 1x5680
4 7 m 1x85
 2 7 l 1x86
 2 8 l 1
 4 8 l 1x0d
 4 7 l 1x85
EndSplineSet
Fore
Refer: 713 772 S 1 0 0 1 0 -1 2
EndChar

StartChar: ebreve
Encoding: 277 277 214
Width: 6
VWidth: 0
Flags: W
HStem: 9 1<2 4>
VStem: 2 2<9 10>
LayerCount: 2
Back
SplineSet
1 11 m 1x07
 2 11 l 1
 2 10 l 1
 1 10 l 1
 1 11 l 1x07
4 1 m 1x47
 4 3 l 1
 5 3 l 1
 5 1 l 1x27
 4 1 l 1x47
4 1 m 1x47
 4 0 l 1
 2 0 l 1
 2 1 l 1
 4 1 l 1x47
2 1 m 1
 1 1 l 1x27
 1 7 l 1
 2 7 l 1x87
 2 5 l 1
 4 5 l 1x17
 4 7 l 1
 5 7 l 1x87
 5 4 l 1
 2 4 l 1x17
 2 1 l 1
4 7 m 1x87
 2 7 l 1x87
 2 8 l 1
 4 8 l 1x0f
 4 7 l 1x87
4 10 m 1
 2 10 l 1
 2 9 l 1
 4 9 l 1
 4 10 l 1
4 10 m 1
 4 11 l 1
 5 11 l 1
 5 10 l 1
 4 10 l 1
EndSplineSet
Fore
Refer: 715 774 S 1 0 0 1 0 0 2
EndChar

StartChar: edotaccent
Encoding: 279 279 215
Width: 3
VWidth: 0
Flags: W
HStem: 9 1<2 3>
VStem: 2 1<9 10>
LayerCount: 2
Back
SplineSet
2 9 m 1x05
 2 10 l 1
 3 10 l 1
 3 9 l 1
 2 9 l 1x05
4 1 m 1x45
 4 3 l 1
 5 3 l 1
 5 1 l 1x2480
 4 1 l 1x45
4 1 m 1x45
 4 0 l 1
 2 0 l 1x45
 2 1 l 1x46
 4 1 l 1x45
2 1 m 1x5680
 1 1 l 1x2680
 1 7 l 1
 2 7 l 1x8680
 2 5 l 1
 4 5 l 1x1680
 4 7 l 1x85
 5 7 l 1x8480
 5 4 l 1
 2 4 l 1
 2 1 l 1x5680
4 7 m 1x85
 2 7 l 1x86
 2 8 l 1
 4 8 l 1x0d
 4 7 l 1x85
EndSplineSet
Fore
Refer: 716 775 S 1 0 0 1 1 -1 2
EndChar

StartChar: eogonek
Encoding: 281 281 216
Width: 0
VWidth: 0
Flags: W
HStem: -2 1<4 5> -2 2<3 4>
VStem: 3 1<-1 0> 3 2<-2 -1>
LayerCount: 2
Back
SplineSet
3 -2 m 1x42
 5 -2 l 1
 5 -1 l 1
 4 -1 l 1x41
 4 0 l 1
 3 -0 l 1
 3 -2 l 1x42
4 1 m 1x42
 4 3 l 1
 5 3 l 1
 5 1 l 1x21
 4 1 l 1x42
4 1 m 1x42
 4 0 l 1
 3 -0 l 1
 2 0 l 1x42
 2 1 l 1x44
 4 1 l 1x42
2 1 m 1x55
 1 1 l 1x25
 1 7 l 1
 2 7 l 1x85
 2 5 l 1
 4 5 l 1x15
 4 7 l 1x82
 5 7 l 1x81
 5 4 l 1
 2 4 l 1
 2 1 l 1x55
4 7 m 1x82
 2 7 l 1x84
 2 8 l 1
 4 8 l 1x0a
 4 7 l 1x82
EndSplineSet
Fore
Refer: 749 808 S 1 0 0 1 2 0 2
EndChar

StartChar: ecaron
Encoding: 283 283 217
Width: 6
VWidth: 0
Flags: W
HStem: 10 1<1 2 3 4>
VStem: 1 1<10 11> 3 1<10 11>
LayerCount: 2
Back
SplineSet
1 11 m 1x06
 2 11 l 1
 2 10 l 1
 1 10 l 1
 1 11 l 1x06
4 1 m 1x45
 4 3 l 1
 5 3 l 1
 5 1 l 1x2480
 4 1 l 1x45
4 1 m 1x45
 4 0 l 1
 2 0 l 1x45
 2 1 l 1x46
 4 1 l 1x45
2 1 m 1x5680
 1 1 l 1x2680
 1 7 l 1
 2 7 l 1x8680
 2 5 l 1
 4 5 l 1x1680
 4 7 l 1x85
 5 7 l 1x8480
 5 4 l 1
 2 4 l 1
 2 1 l 1x5680
4 7 m 1x85
 2 7 l 1x86
 2 8 l 1
 4 8 l 1x0d
 4 7 l 1x85
3 10 m 1
 2 10 l 1x06
 2 9 l 1x05
 3 9 l 1
 3 10 l 1
3 10 m 1
 3 11 l 1
 4 11 l 1
 4 10 l 1x0480
 3 10 l 1
EndSplineSet
Fore
Refer: 721 780 N 1 0 0 1 0 0 2
EndChar

StartChar: Gcircumflex
Encoding: 284 284 218
Width: 6
VWidth: 0
Flags: W
HStem: -10 20G<1 2 4 5> 0 1<2 4> 1 21G<1 2 4 5> 4 1<3 4> 7 21G<4 5> 10 1<2 4> 13 1<2 4>
VStem: 1 1<1 10> 2 2<0 1 10 11 13 14> 4 1<1 4 7 10>
LayerCount: 2
Back
SplineSet
1 12 m 1x06
 2 12 l 1
 2 13 l 1
 1 13 l 1
 1 12 l 1x06
4 13 m 1x0680
 4 12 l 1
 5 12 l 1
 5 13 l 1
 4 13 l 1x0680
4 13 m 1
 2 13 l 1
 2 14 l 1
 4 14 l 1
 4 13 l 1
4 10 m 1x8280
 5 10 l 1x8280
 5 7 l 1
 4 7 l 1x1280
 4 10 l 1x8280
4 10 m 1
 2 10 l 1x8280
 2 11 l 1
 4 11 l 1x0a80
 4 10 l 1
2 10 m 1
 2 1 l 1
 1 1 l 1x42
 1 10 l 1
 2 10 l 1
4 1 m 1x4280
 4 4 l 1x2280
 3 4 l 1
 3 5 l 1
 5 5 l 1x23
 5 1 l 1
 4 1 l 1x4280
4 1 m 1x4280
 2 1 l 1
 2 0 l 1
 4 0 l 1
 4 1 l 1x4280
EndSplineSet
Fore
Refer: 38 71 S 1 0 0 1 0 0 2
Refer: 711 770 S 1 0 0 1 0 3 2
EndChar

StartChar: Gbreve
Encoding: 286 286 219
Width: 6
VWidth: 0
Flags: W
HStem: -10 20G<1 2 4 5> 0 1<2 4> 1 21G<1 2 4 5> 4 1<3 4> 7 21G<4 5> 10 1<2 4> 12 1<2 4>
VStem: 1 1<1 10> 2 2<0 1 10 11 12 13> 4 1<1 4 7 10>
LayerCount: 2
Back
SplineSet
1 14 m 1x07
 2 14 l 1
 2 13 l 1
 1 13 l 1
 1 14 l 1x07
4 13 m 1
 4 14 l 1
 5 14 l 1
 5 13 l 1
 4 13 l 1
4 13 m 1
 2 13 l 1
 2 12 l 1
 4 12 l 1
 4 13 l 1
4 10 m 1x83
 5 10 l 1x83
 5 7 l 1
 4 7 l 1x13
 4 10 l 1x83
4 10 m 1
 2 10 l 1x83
 2 11 l 1
 4 11 l 1x0b
 4 10 l 1
2 10 m 1
 2 1 l 1
 1 1 l 1x43
 1 10 l 1
 2 10 l 1
4 1 m 1
 4 4 l 1
 3 4 l 1
 3 5 l 1
 5 5 l 1x23
 5 1 l 1
 4 1 l 1
4 1 m 1x43
 2 1 l 1
 2 0 l 1
 4 0 l 1
 4 1 l 1x43
EndSplineSet
Fore
Refer: 38 71 S 1 0 0 1 0 0 2
Refer: 715 774 S 1 0 0 1 0 3 2
EndChar

StartChar: Gdotaccent
Encoding: 288 288 220
Width: 6
VWidth: 0
Flags: W
HStem: -10 20G<1 2 4 5> 0 1<2 4> 1 21G<1 2 4 5> 4 1<3 4> 7 21G<4 5> 10 1<2 4> 12 1<2 3>
VStem: 1 1<1 10> 2 1<12 13> 2 2<0 1 10 11> 4 1<1 4 7 10>
LayerCount: 2
Back
SplineSet
2 12 m 1x05
 2 13 l 1
 3 13 l 1
 3 12 l 1
 2 12 l 1x05
4 10 m 1x8040
 5 10 l 1x8040
 5 7 l 1
 4 7 l 1x1040
 4 10 l 1x8040
4 10 m 1
 2 10 l 1x8240
 2 11 l 1
 4 11 l 1x0940
 4 10 l 1
2 10 m 1
 2 1 l 1
 1 1 l 1x42
 1 10 l 1
 2 10 l 1
4 1 m 1x4040
 4 4 l 1x2040
 3 4 l 1
 3 5 l 1
 5 5 l 1x2080
 5 1 l 1
 4 1 l 1x4040
4 1 m 1x4140
 2 1 l 1x4240
 2 0 l 1
 4 0 l 1
 4 1 l 1x4140
EndSplineSet
Fore
Refer: 38 71 S 1 0 0 1 0 0 2
Refer: 716 775 S 1 0 0 1 1 2 2
EndChar

StartChar: uni0122
Encoding: 290 290 221
Width: 6
VWidth: 0
Flags: HW
HStem: -10 20G<1 2 4 5> -2 1<2 3> -2 2<3 4> 0 1<2 4> 1 21G<1 2 4 5> 4 1<3 4> 7 21G<4 5> 10 1<2 4>
VStem: 1 1<1 10> 2 2<-2 -1 0 1 10 11> 3 1<-1 0> 4 1<1 4 7 10>
LayerCount: 2
Back
SplineSet
2 -2 m 1x46
 4 -2 l 1
 4 0 l 1
 4 1 l 1x45
 2 1 l 1
 2 0 l 1
 3 0 l 1
 3 -1 l 1
 2 -1 l 1
 2 -2 l 1x46
2 10 m 1x84
 2 1 l 1
 1 1 l 1x44
 1 10 l 1
 2 10 l 1x84
2 10 m 1x85
 2 11 l 1
 4 11 l 1x0d
 4 10 l 1
 2 10 l 1x85
4 10 m 1x85
 5 10 l 1x85
 5 7 l 1
 4 7 l 1x15
 4 10 l 1x85
4 1 m 1x45
 4 4 l 1x25
 3 4 l 1
 3 5 l 1
 5 5 l 1x26
 5 1 l 1
 4 1 l 1x45
EndSplineSet
Fore
Refer: 38 71 S 1 0 0 1 0 0 2
Refer: 748 807 S 1 0 0 1 1 0 2
EndChar

StartChar: gcircumflex
Encoding: 285 285 222
Width: 6
VWidth: 0
Flags: W
HStem: 10 1<2 4>
VStem: 2 2<10 11>
LayerCount: 2
Back
SplineSet
1 -2 m 1x8e40
 1 -1 l 1
 4 -1 l 1
 4 1 l 1xae40
 3 1 l 1xc540
 3 2 l 1xa480
 4 2 l 1
 4 6 l 1xb440
 3 6 l 1xb480
 3 7 l 1
 4 7 l 1xb540
 4 8 l 1
 5 8 l 1
 5 -1 l 1
 4 -1 l 1
 4 -2 l 1
 1 -2 l 1x8e40
2 8 m 1xad
 3 8 l 1xad
 3 7 l 1x95
 2 7 l 1
 2 1 l 1xce
 1 1 l 1
 1 7 l 1
 2 7 l 1xae
 2 8 l 1xad
1 9 m 1x86
 2 9 l 1
 2 10 l 1x85
 1 10 l 1
 1 9 l 1x86
2 1 m 1xc6
 3 1 l 1
 3 0 l 1
 2 0 l 1xc5
 2 1 l 1xc6
4 10 m 1x8540
 2 10 l 1
 2 11 l 1
 4 11 l 1
 4 10 l 1x8540
4 10 m 1
 4 9 l 1
 5 9 l 1
 5 10 l 1
 4 10 l 1
EndSplineSet
Fore
Refer: 711 770 S 1 0 0 1 0 0 2
EndChar

StartChar: gbreve
Encoding: 287 287 223
Width: 6
VWidth: 0
Flags: W
HStem: 9 1<2 4>
VStem: 2 2<9 10>
LayerCount: 2
Back
SplineSet
1 -2 m 1x8e40
 1 -1 l 1
 4 -1 l 1
 4 1 l 1xae40
 3 1 l 1xc540
 3 2 l 1xa480
 4 2 l 1
 4 6 l 1xb440
 3 6 l 1xb480
 3 7 l 1
 4 7 l 1xb540
 4 8 l 1
 5 8 l 1
 5 -1 l 1
 4 -1 l 1
 4 -2 l 1
 1 -2 l 1x8e40
2 8 m 1xad
 3 8 l 1xad
 3 7 l 1x95
 2 7 l 1
 2 1 l 1xce
 1 1 l 1
 1 7 l 1
 2 7 l 1xae
 2 8 l 1xad
1 11 m 1x86
 2 11 l 1
 2 10 l 1
 1 10 l 1
 1 11 l 1x86
2 1 m 1xc6
 3 1 l 1
 3 0 l 1
 2 0 l 1xc5
 2 1 l 1xc6
4 10 m 1x8540
 2 10 l 1x8640
 2 9 l 1
 4 9 l 1
 4 10 l 1x8540
4 10 m 1
 4 11 l 1
 5 11 l 1
 5 10 l 1
 4 10 l 1
EndSplineSet
Fore
Refer: 715 774 S 1 0 0 1 0 0 2
EndChar

StartChar: gdotaccent
Encoding: 289 289 224
Width: 3
VWidth: 0
Flags: W
HStem: 9 1<2 3>
VStem: 2 1<9 10>
LayerCount: 2
Back
SplineSet
1 -2 m 1x8e40
 1 -1 l 1
 4 -1 l 1
 4 1 l 1xae40
 3 1 l 1xc540
 3 2 l 1xa480
 4 2 l 1
 4 6 l 1xb440
 3 6 l 1xb480
 3 7 l 1
 4 7 l 1xb540
 4 8 l 1
 5 8 l 1
 5 -1 l 1
 4 -1 l 1
 4 -2 l 1
 1 -2 l 1x8e40
2 8 m 1xad
 3 8 l 1xad
 3 7 l 1x95
 2 7 l 1
 2 1 l 1xce
 1 1 l 1
 1 7 l 1
 2 7 l 1xae
 2 8 l 1xad
3 10 m 1
 3 9 l 1
 2 9 l 1
 2 10 l 1
 3 10 l 1
2 1 m 1xc6
 3 1 l 1
 3 0 l 1
 2 0 l 1xc5
 2 1 l 1xc6
EndSplineSet
Fore
Refer: 716 775 S 1 0 0 1 1 -1 2
EndChar

StartChar: uni0123
Encoding: 291 291 225
Width: 6
VWidth: 0
Flags: W
HStem: -8 21G<2 3> 10 2<3 4> 13 1<3 4>
VStem: 2 1<12 13> 3 1<13 14>
LayerCount: 2
Back
SplineSet
1 -2 m 1x8f40
 1 -1 l 1
 4 -1 l 1
 4 1 l 1xaf40
 3 1 l 1xc6c0
 3 2 l 1
 4 2 l 1
 4 6 l 1
 3 6 l 1
 3 7 l 1
 4 7 l 1xb6c0
 4 8 l 1
 5 8 l 1
 5 -1 l 1
 4 -1 l 1
 4 -2 l 1
 1 -2 l 1x8f40
2 8 m 1xaec0
 3 8 l 1xaec0
 3 7 l 1x96c0
 2 7 l 1
 2 1 l 1xcf40
 1 1 l 1
 1 7 l 1
 2 7 l 1xaf40
 2 8 l 1xaec0
2 9 m 1
 2 12 l 1
 3 12 l 1
 3 13 l 1
 4 13 l 1
 4 12 l 1
 3 12 l 1
 3 11 l 1
 4 11 l 1
 4 9 l 1
 2 9 l 1
2 1 m 1xc740
 3 1 l 1
 3 0 l 1
 2 0 l 1xc6c0
 2 1 l 1xc740
EndSplineSet
Fore
Refer: 727 786 N 1 0 0 1 1 2 2
EndChar

StartChar: Hcircumflex
Encoding: 292 292 226
Width: 6
VWidth: 0
Flags: W
HStem: -9 20G<1 2 4 5> 0 21G<1 2 4 5> 5 1<2 4> 13 1<2 4>
VStem: 1 1<0 5 6 11> 2 2<13 14> 4 1<0 5 6 11>
LayerCount: 2
Back
SplineSet
1 12 m 1x1c
 2 12 l 1
 2 13 l 1
 1 13 l 1
 1 12 l 1x1c
1 11 m 1x8c
 2 11 l 1x8c
 2 6 l 1
 4 6 l 1x2c
 4 11 l 1
 5 11 l 1x8c
 5 0 l 1
 4 0 l 1x4c
 4 5 l 1
 2 5 l 1x2c
 2 0 l 1
 1 0 l 1x4c
 1 11 l 1x8c
4 13 m 1x1c
 4 12 l 1
 5 12 l 1
 5 13 l 1
 4 13 l 1x1c
4 13 m 1
 2 13 l 1
 2 14 l 1
 4 14 l 1
 4 13 l 1
EndSplineSet
Fore
Refer: 39 72 S 1 0 0 1 0 0 2
Refer: 711 770 S 1 0 0 1 0 3 2
EndChar

StartChar: Hbar
Encoding: 294 294 227
Width: 6
VWidth: 0
Flags: W
HStem: -9 20G<1 2 4 5> 0 21G<1 2 4 5> 5 1<2 4> 8 1<0 6>
VStem: 0 6<8 9> 1 1<0 5 6 11> 4 1<0 5 6 11>
LayerCount: 2
Back
SplineSet
1 11 m 1x8c
 2 11 l 1x8c
 2 9 l 1
 4 9 l 1x1c
 4 11 l 1
 5 11 l 1x8c
 5 9 l 1
 6 9 l 1
 6 8 l 1
 5 8 l 1x1c
 5 0 l 1
 4 0 l 1x4c
 4 5 l 1
 2 5 l 1x2c
 2 0 l 1
 1 0 l 1x4c
 1 8 l 1
 0 8 l 1
 0 9 l 1
 1 9 l 1x1c
 1 11 l 1x8c
2 8 m 1x3c
 2 6 l 1
 4 6 l 1
 4 8 l 1
 2 8 l 1x3c
EndSplineSet
Fore
Refer: 39 72 N 1 0 0 1 0 0 2
Refer: 762 821 N 2 0 0 1 -2 3 2
EndChar

StartChar: hcircumflex
Encoding: 293 293 228
Width: 6
VWidth: 0
Flags: W
HStem: 13 1<1 3>
VStem: 1 2<13 14>
LayerCount: 2
Back
SplineSet
0 12 m 1x0e
 1 12 l 1
 1 13 l 1
 0 13 l 1
 0 12 l 1x0e
1 11 m 1x86
 2 11 l 1x86
 2 7 l 1
 3 7 l 1x26
 3 8 l 1
 4 8 l 1
 4 7 l 1
 5 7 l 1x16
 5 0 l 1
 4 0 l 1x46
 4 7 l 1x16
 3 7 l 1
 3 6 l 1
 2 6 l 1x26
 2 0 l 1
 1 0 l 1x46
 1 11 l 1x86
3 13 m 1x0e
 3 12 l 1
 4 12 l 1
 4 13 l 1
 3 13 l 1x0e
3 13 m 1
 1 13 l 1
 1 14 l 1
 3 14 l 1
 3 13 l 1
EndSplineSet
Fore
Refer: 711 770 S 1 0 0 1 -1 3 2
EndChar

StartChar: hbar
Encoding: 295 295 229
Width: 5
VWidth: 0
Flags: W
HStem: 9 1<0 3>
VStem: 0 3<9 10>
LayerCount: 2
Back
SplineSet
1 11 m 1x83
 2 11 l 1x83
 2 10 l 1x0b
 3 10 l 1
 3 9 l 1x0d
 2 9 l 1
 2 7 l 1x2b
 3 7 l 1x2d
 3 8 l 1
 4 8 l 1
 4 7 l 1x15
 3 7 l 1
 3 6 l 1x25
 2 6 l 1x23
 2 0 l 1
 1 0 l 1x43
 1 9 l 1
 0 9 l 1
 0 10 l 1
 1 10 l 1x0b
 1 11 l 1x83
4 7 m 1x11
 5 7 l 1x11
 5 0 l 1
 4 0 l 1x41
 4 7 l 1x11
EndSplineSet
Fore
Refer: 762 821 S 1 0 0 1 -1 4 2
EndChar

StartChar: Itilde
Encoding: 296 296 230
Width: 3
VWidth: 0
Flags: HW
HStem: 13 1<0 1 2 3>
VStem: 0 1<13 14> 2 1<13 14>
LayerCount: 2
Back
SplineSet
-1 12 m 1x30
 0 12 l 1
 0 13 l 1
 -1 13 l 1
 -1 12 l 1x30
1 11 m 1x88
 2 11 l 1x88
 2 0 l 1
 1 0 l 1x48
 1 11 l 1x88
2 13 m 1x24
 2 14 l 1
 3 14 l 1
 3 13 l 1
 2 13 l 1x24
2 13 m 1
 1 13 l 1x34
 1 12 l 1x28
 2 12 l 1
 2 13 l 1
1 13 m 1
 0 13 l 1
 0 14 l 1
 1 14 l 1
 1 13 l 1
EndSplineSet
Fore
Refer: 40 73 N 1 0 0 1 0 0 2
Refer: 712 771 N 1 0 0 1 -2 3 2
EndChar

StartChar: Imacron
Encoding: 298 298 231
Width: 3
VWidth: 0
Flags: W
HStem: -9 20G<1 2> 0 21G<1 2> 12 1<0 3>
VStem: 1 1<0 11>
LayerCount: 2
Back
SplineSet
0 12 m 1x30
 0 13 l 1
 3 13 l 1
 3 12 l 1
 0 12 l 1x30
1 11 m 1x90
 2 11 l 1x90
 2 0 l 1
 1 0 l 1x50
 1 11 l 1x90
EndSplineSet
Fore
Refer: 40 73 S 1 0 0 1 0 0 2
Refer: 713 772 S 0.75 0 0 1 -0.75 2 2
EndChar

StartChar: Ibreve
Encoding: 300 300 232
Width: 3
VWidth: 0
Flags: W
HStem: -9 20G<1 2> 0 21G<1 2> 12 1<0 2>
VStem: 0 2<12 13> 1 1<0 11>
LayerCount: 2
Back
SplineSet
-1 14 m 1x30
 0 14 l 1
 0 13 l 1
 -1 13 l 1
 -1 14 l 1x30
1 11 m 1x98
 2 11 l 1x98
 2 0 l 1
 1 0 l 1x58
 1 11 l 1x98
2 13 m 1x34
 2 14 l 1
 3 14 l 1
 3 13 l 1
 2 13 l 1x34
2 13 m 1
 0 13 l 1
 0 12 l 1
 2 12 l 1
 2 13 l 1
EndSplineSet
Fore
Refer: 40 73 S 1 0 0 1 0 0 2
Refer: 715 774 S 1 0 0 1 -2 3 2
EndChar

StartChar: Iogonek
Encoding: 302 302 233
Width: 3
VWidth: 0
Flags: HW
HStem: -2 1<1 2> -2 2<0 1>
VStem: 0 1<-1 0> 0 2<-2 -1>
LayerCount: 2
Back
SplineSet
0 0 m 1x60
 0 -2 l 1
 2 -2 l 1
 2 -1 l 1
 1 -1 l 1
 1 0 l 1
 0 0 l 1x60
1 11 m 1xa0
 2 11 l 1xa0
 2 0 l 1
 1 0 l 1x60
 1 11 l 1xa0
EndSplineSet
Fore
Refer: 40 73 S 1 0 0 1 0 0 2
Refer: 749 808 N 1 0 0 1 -1 0 2
EndChar

StartChar: Idotaccent
Encoding: 304 304 234
Width: 3
VWidth: 0
Flags: W
HStem: -9 20G<1 2> 0 21G<1 2> 12 1<1 2>
VStem: 1 1<0 11 12 13>
LayerCount: 2
Back
SplineSet
1 12 m 1x30
 1 13 l 1
 2 13 l 1
 2 12 l 1
 1 12 l 1x30
1 11 m 1x90
 2 11 l 1x90
 2 0 l 1
 1 0 l 1x50
 1 11 l 1x90
EndSplineSet
Fore
Refer: 40 73 S 1 0 0 1 0 0 2
Refer: 716 775 S 1 0 0 1 0 2 2
EndChar

StartChar: itilde
Encoding: 297 297 235
Width: 6
VWidth: 0
Flags: HW
HStem: 10 1<0 1 2 3>
VStem: 0 1<10 11> 2 1<10 11>
LayerCount: 2
Back
SplineSet
-1 9 m 1x30
 0 9 l 1
 0 10 l 1
 -1 10 l 1
 -1 9 l 1x30
1 8 m 1x88
 2 8 l 1x88
 2 0 l 1
 1 0 l 1x48
 1 8 l 1x88
2 10 m 1x24
 2 11 l 1
 3 11 l 1
 3 10 l 1
 2 10 l 1x24
2 10 m 1
 1 10 l 1x34
 1 9 l 1x28
 2 9 l 1
 2 10 l 1
1 10 m 1
 0 10 l 1
 0 11 l 1
 1 11 l 1
 1 10 l 1
EndSplineSet
Fore
Refer: 712 771 S 1 0 0 1 -2 0 2
EndChar

StartChar: imacron
Encoding: 299 299 236
Width: 3
VWidth: 0
Flags: HW
HStem: 9 1<-0.25 2.75>
LayerCount: 2
Back
SplineSet
1 8 m 1x90
 2 8 l 1x90
 2 0 l 1
 1 0 l 1x50
 1 8 l 1x90
0 10 m 1x30
 3 10 l 1
 3 9 l 1
 0 9 l 1
 0 10 l 1x30
EndSplineSet
Fore
Refer: 713 772 S 0.75 0 0 1 -0.75 -1 2
EndChar

StartChar: ibreve
Encoding: 301 301 237
Width: 6
VWidth: 0
Flags: W
HStem: 9 1<0 2>
VStem: 0 2<9 10>
LayerCount: 2
Back
SplineSet
-1 11 m 1x30
 0 11 l 1
 0 10 l 1
 -1 10 l 1
 -1 11 l 1x30
1 8 m 1x98
 2 8 l 1x98
 2 0 l 1
 1 0 l 1x58
 1 8 l 1x98
2 10 m 1x34
 2 11 l 1
 3 11 l 1
 3 10 l 1
 2 10 l 1x34
2 10 m 1
 0 10 l 1
 0 9 l 1
 2 9 l 1
 2 10 l 1
EndSplineSet
Fore
Refer: 715 774 S 1 0 0 1 -2 0 2
EndChar

StartChar: iogonek
Encoding: 303 303 238
Width: 0
VWidth: 0
Flags: W
HStem: -2 1<1 2> -2 2<0 1>
VStem: 0 1<-1 0> 0 2<-2 -1>
LayerCount: 2
Back
SplineSet
0 0 m 1x50
 0 -2 l 1
 2 -2 l 1
 2 -1 l 1
 1 -1 l 1
 1 0 l 1
 0 0 l 1x50
1 8 m 1x90
 2 8 l 1x90
 2 0 l 1
 1 0 l 1x50
 1 8 l 1x90
1 11 m 1x30
 2 11 l 1
 2 9 l 1
 1 9 l 1
 1 11 l 1x30
EndSplineSet
Fore
Refer: 749 808 S 1 0 0 1 -1 0 2
EndChar

StartChar: dotlessi
Encoding: 305 305 239
Width: 3
VWidth: 0
Flags: W
HStem: -12 20G<1 2> 0 21G<1 2>
VStem: 1 1<0 8>
LayerCount: 2
Fore
SplineSet
1 8 m 1xa0
 2 8 l 1xa0
 2 0 l 1
 1 0 l 1x60
 1 8 l 1xa0
EndSplineSet
Validated: 1
EndChar

StartChar: IJ
Encoding: 306 306 240
Width: 5
VWidth: 0
Flags: W
HStem: -9 20G<1 2 3 4> -2 1<0 3> -1 21G<3 4> -1 21G<3 4> 0 21G<1 2>
VStem: 1 1<0 11> 3 1<-1 11>
LayerCount: 2
Back
SplineSet
3 11 m 1x98
 4 11 l 1x98
 4 -1 l 1
 3 -1 l 1x58
 3 11 l 1x98
1 11 m 1
 2 11 l 1x98
 2 0 l 1
 1 0 l 1x38
 1 11 l 1
3 -1 m 1x58
 1 -1 l 1
 1 -2 l 1
 3 -2 l 1
 3 -1 l 1x58
EndSplineSet
Fore
SplineSet
0 -2 m 1x46
 0 -1 l 1
 3 -1 l 1
 3 -2 l 1
 0 -2 l 1x46
3 -1 m 1
 3 11 l 1
 4 11 l 1x86
 4 -1 l 1x26
 3 -1 l 1
EndSplineSet
Refer: 40 73 S 1 0 0 1 0 0 2
EndChar

StartChar: ij
Encoding: 307 307 241
Width: 6
VWidth: 0
Flags: HW
HStem: -12 20G<1 2 3 4> -1 21G<3 4> 0 20G<1 2 3 4> 9 2<1 2 3 4>
VStem: 1 1<0 8 9 11> 3 1<-1 8 9 11>
LayerCount: 2
Back
SplineSet
3 9 m 1x1c
 3 11 l 1
 4 11 l 1
 4 9 l 1
 3 9 l 1x1c
3 8 m 1x8c
 4 8 l 1x8c
 4 -1 l 1
 3 -1 l 1x4c
 3 8 l 1x8c
1 8 m 1
 2 8 l 1x8c
 2 0 l 1
 1 0 l 1x2c
 1 8 l 1
1 11 m 1x1c
 2 11 l 1
 2 9 l 1
 1 9 l 1
 1 11 l 1x1c
3 -1 m 1x4c
 1 -1 l 1
 1 -2 l 1
 3 -2 l 1
 3 -1 l 1x4c
EndSplineSet
EndChar

StartChar: Jcircumflex
Encoding: 308 308 242
Width: 6
VWidth: 0
Flags: HW
HStem: 13 1<3 5>
VStem: 3 2<13 14>
LayerCount: 2
Back
SplineSet
2 12 m 1x38
 3 12 l 1
 3 13 l 1
 2 13 l 1
 2 12 l 1x38
1 3 m 1x70
 2 3 l 1
 2 1 l 1
 1 1 l 1
 1 3 l 1x70
5 13 m 1x38
 5 12 l 1x34
 6 12 l 1
 6 13 l 1
 5 13 l 1x38
5 13 m 1x38
 3 13 l 1
 3 14 l 1
 5 14 l 1
 5 13 l 1x38
4 1 m 1x74
 4 11 l 1
 5 11 l 1xb4
 5 1 l 1
 4 1 l 1x74
4 1 m 1x74
 2 1 l 1
 2 0 l 1
 4 0 l 1
 4 1 l 1x74
EndSplineSet
Fore
Refer: 41 74 S 1 0 0 1 0 0 2
Refer: 711 770 N 1 0 0 1 1 3 2
EndChar

StartChar: jcircumflex
Encoding: 309 309 243
Width: 6
VWidth: 0
Flags: W
HStem: 10 1<2 4>
VStem: 2 2<10 11>
LayerCount: 2
Back
SplineSet
1 9 m 1x0c
 2 9 l 1
 2 10 l 1x0a
 1 10 l 1
 1 9 l 1x0c
4 10 m 1
 4 9 l 1x09
 5 9 l 1
 5 10 l 1
 4 10 l 1
4 10 m 1x0a
 2 10 l 1
 2 11 l 1
 4 11 l 1
 4 10 l 1x0a
3 -1 m 1x44
 3 8 l 1
 4 8 l 1x81
 4 -1 l 1x21
 3 -1 l 1x44
3 -1 m 1x44
 3 -2 l 1
 1 -2 l 1
 1 -1 l 1
 3 -1 l 1x44
EndSplineSet
Fore
Refer: 711 770 S 1 0 0 1 0 0 2
EndChar

StartChar: uni0136
Encoding: 310 310 244
Width: 0
VWidth: 0
Flags: W
HStem: -2 1<2 3> -2 2<3 4> 0 21G<1 2 4 5> 3 2<3 4> 7 2<3 4> 9 2<4 5>
VStem: 1 1<0 5 7 11> 1 2<5 7> 2 2<-2 -1> 3 1<-1 0 3 5 7 9> 4 1<0 3 9 11>
LayerCount: 2
Back
SplineSet
3 0 m 1x8c
 3 -1 l 1x8c
 2 -1 l 1
 2 -2 l 1
 4 -2 l 1
 4 0 l 1x8a
 3 0 l 1x8c
1 11 m 1x1c
 2 11 l 1x1c
 2 7 l 1
 3 7 l 1
 3 9 l 1
 4 9 l 1x2c
 4 11 l 1
 5 11 l 1
 5 9 l 1x1a
 4 9 l 1
 4 7 l 1
 3 7 l 1
 3 5 l 1
 4 5 l 1
 4 3 l 1x6c
 5 3 l 1x6a
 5 0 l 1
 4 0 l 1x8a
 4 3 l 1
 3 3 l 1
 3 5 l 1
 2 5 l 1x4c
 2 0 l 1
 1 0 l 1x8c
 1 11 l 1x1c
EndSplineSet
Fore
Refer: 42 75 S 1 0 0 1 0 0 2
Refer: 748 807 S 1 0 0 1 1 0 2
EndChar

StartChar: uni0137
Encoding: 311 311 245
Width: 0
VWidth: 0
Flags: W
HStem: -2 1<2 3> -2 2<3 4>
VStem: 2 2<-2 -1> 3 1<-1 0>
LayerCount: 2
Back
SplineSet
3 0 m 1x4c
 3 -1 l 1
 2 -1 l 1
 2 -2 l 1
 4 -2 l 1
 4 0 l 1
 3 0 l 1x4c
1 11 m 1x8c
 2 11 l 1x8c
 2 6 l 1
 3 6 l 1
 3 5 l 1
 4 5 l 1
 4 2 l 1
 5 2 l 1
 5 0 l 1
 4 0 l 1
 4 2 l 1
 3 2 l 1
 3 5 l 1
 2 5 l 1
 2 0 l 1
 1 0 l 1x6c
 1 11 l 1x8c
4 7 m 1x1c
 4 8 l 1
 5 8 l 1
 5 7 l 1
 4 7 l 1x1c
4 7 m 1
 3 7 l 1
 3 6 l 1
 4 6 l 1x3c
 4 7 l 1
EndSplineSet
Fore
Refer: 748 807 S 1 0 0 1 1 0 2
EndChar

StartChar: kgreenlandic
Encoding: 312 312 246
Width: 6
VWidth: 0
Flags: W
HStem: 0 2<4 5> 5 1<2 3> 7 1<4 5>
VStem: 1 1<0 5 6 8> 4 1<0 2 7 8>
LayerCount: 2
Fore
SplineSet
1 8 m 1
 2 8 l 1
 2 6 l 1
 3 6 l 1
 3 5 l 1
 4 5 l 1
 4 2 l 1
 5 2 l 1
 5 0 l 1
 4 0 l 1
 4 2 l 1
 3 2 l 1
 3 5 l 1
 2 5 l 1
 2 0 l 1
 1 0 l 1
 1 8 l 1
4 7 m 1
 4 8 l 1
 5 8 l 1
 5 7 l 1
 4 7 l 1
4 7 m 1
 3 7 l 1
 3 6 l 1
 4 6 l 1
 4 7 l 1
EndSplineSet
Validated: 5
EndChar

StartChar: Lacute
Encoding: 313 313 247
Width: 6
VWidth: 0
Flags: W
HStem: -9 20G<1 2> 0 1<2 5>
VStem: 1 1<1 11>
LayerCount: 2
Back
SplineSet
1 12 m 1x28
 2 12 l 1
 2 13 l 1x24
 1 13 l 1
 1 12 l 1x28
1 11 m 1x88
 2 11 l 1x88
 2 1 l 1
 5 1 l 1
 5 0 l 1
 1 0 l 1x48
 1 11 l 1x88
3 14 m 1x24
 3 15 l 1
 4 15 l 1
 4 14 l 1x12
 3 14 l 1x24
3 14 m 1x24
 3 13 l 1
 2 13 l 1
 2 14 l 1
 3 14 l 1x24
EndSplineSet
Fore
Refer: 43 76 S 1 0 0 1 0 0 2
Refer: 710 769 S 1 0 0 1 0 4 2
EndChar

StartChar: uni013B
Encoding: 315 315 248
Width: 6
VWidth: 0
Flags: W
HStem: -9 20G<1 2> -2 1<2 3> -2 2<3 4> 0 1<2 5>
VStem: 1 1<1 11> 2 2<-2 -1> 3 1<-1 0>
LayerCount: 2
Back
SplineSet
1 11 m 1x94
 2 11 l 1x94
 2 1 l 1
 5 1 l 1
 5 0 l 1
 4 0 l 1x34
 4 -2 l 1
 2 -2 l 1
 2 -1 l 1x68
 3 -1 l 1
 3 0 l 1
 1 0 l 1x74
 1 11 l 1x94
EndSplineSet
Fore
Refer: 43 76 S 1 0 0 1 0 0 2
Refer: 748 807 S 1 0 0 1 1 0 2
EndChar

StartChar: Lcaron
Encoding: 317 317 249
Width: 6
VWidth: 0
Flags: W
HStem: -9 20G<1 2> 0 1<2 5> 7 1<3 4> 8 21G<4 5> 9 2<3 4>
VStem: 1 1<1 11> 3 1<7 8> 4 1<8 9>
LayerCount: 2
Back
SplineSet
3 11 m 1xb8
 5 11 l 1xb8
 5 8 l 1
 4 8 l 1xd4
 4 9 l 1xb4
 3 9 l 1
 3 11 l 1xb8
1 11 m 1
 2 11 l 1
 2 1 l 1
 5 1 l 1
 5 0 l 1xb4
 1 0 l 1
 1 11 l 1
4 8 m 1xd4
 3 8 l 1
 3 7 l 1xd8
 4 7 l 1
 4 8 l 1xd4
EndSplineSet
Fore
Refer: 43 76 S 1 0 0 1 0 0 2
Refer: 6 39 S 1 0 0 1 2 0 2
EndChar

StartChar: Ldot
Encoding: 319 319 250
Width: 6
VWidth: 0
Flags: W
HStem: -9 20G<1 2> 0 1<2 5> 5 1<3 4>
VStem: 1 1<1 11> 3 1<5 6>
LayerCount: 2
Back
SplineSet
3 6 m 1x38
 4 6 l 1
 4 5 l 1
 3 5 l 1
 3 6 l 1x38
1 11 m 1x98
 2 11 l 1x98
 2 1 l 1
 5 1 l 1
 5 0 l 1
 1 0 l 1x58
 1 11 l 1x98
EndSplineSet
Fore
SplineSet
3 6 m 1x38
 4 6 l 1
 4 5 l 1
 3 5 l 1
 3 6 l 1x38
EndSplineSet
Refer: 43 76 S 1 0 0 1 0 0 2
EndChar

StartChar: Lslash
Encoding: 321 321 251
Width: 6
VWidth: 0
Flags: W
HStem: -9 20G<1 2> 0 1<2 5> 5 1<0 1> 6 1<2 3>
VStem: 0 1<5 6> 1 1<1 11> 2 1<6 7>
LayerCount: 2
Back
SplineSet
1 11 m 1x82
 2 11 l 1x82
 2 7 l 1x12
 3 7 l 1
 3 6 l 1x14
 2 6 l 1x18
 2 1 l 1
 5 1 l 1
 5 0 l 1
 1 0 l 1
 1 5 l 1x62
 0 5 l 1
 0 6 l 1x68
 1 6 l 1x64
 1 11 l 1x82
EndSplineSet
Fore
SplineSet
0 5 m 1x28
 0 6 l 1
 1 6 l 1
 1 5 l 1
 0 5 l 1x28
2 7 m 1x14
 3 7 l 1
 3 6 l 1x12
 2 6 l 1
 2 7 l 1x14
EndSplineSet
Refer: 43 76 S 1 0 0 1 0 0 2
EndChar

StartChar: lacute
Encoding: 314 314 252
Width: 3
VWidth: 0
Flags: W
HStem: 12 1<1 2> 13 1<2 3>
VStem: 1 1<12 13> 2 1<13 14>
LayerCount: 2
Back
SplineSet
1 12 m 1x30
 2 12 l 1
 2 13 l 1x28
 1 13 l 1
 1 12 l 1x30
1 11 m 1x90
 2 11 l 1x90
 2 0 l 1
 1 0 l 1x50
 1 11 l 1x90
2 13 m 1x28
 2 14 l 1
 3 14 l 1
 3 13 l 1
 2 13 l 1x28
EndSplineSet
Fore
Refer: 655 714 N 1 0 0 1 0 3 2
EndChar

StartChar: uni013C
Encoding: 316 316 253
Width: 0
VWidth: 0
Flags: W
HStem: -2 1<1 2> -2 2<2 3>
VStem: 1 2<-2 -1> 2 1<-1 0>
LayerCount: 2
Back
SplineSet
3 0 m 1x44
 3 -2 l 1x44
 1 -2 l 1
 1 -1 l 1x28
 2 -1 l 1x24
 2 0 l 1x48
 3 0 l 1x44
1 11 m 1x88
 2 11 l 1x88
 2 0 l 1x48
 1 0 l 1x18
 1 11 l 1x88
EndSplineSet
Fore
Refer: 748 807 S 1 0 0 1 0 0 2
EndChar

StartChar: lcaron
Encoding: 318 318 254
Width: 6
VWidth: 0
Flags: W
HStem: 7 1<3 4> 8 21G<4 5> 9 2<3 4>
VStem: 3 1<7 8> 4 1<8 9>
LayerCount: 2
Back
SplineSet
3 11 m 1x38
 5 11 l 1x38
 5 8 l 1
 4 8 l 1x54
 4 9 l 1x34
 3 9 l 1
 3 11 l 1x38
1 11 m 1
 2 11 l 1x30
 2 0 l 1
 1 0 l 1x90
 1 11 l 1
4 8 m 1x54
 3 8 l 1
 3 7 l 1x58
 4 7 l 1
 4 8 l 1x54
EndSplineSet
Fore
Refer: 6 39 N 1 0 0 1 2 0 2
EndChar

StartChar: ldot
Encoding: 320 320 255
Width: 5
VWidth: 0
Flags: W
HStem: 5 1<3 4>
VStem: 3 1<5 6>
LayerCount: 2
Back
SplineSet
3 6 m 1x38
 4 6 l 1
 4 5 l 1
 3 5 l 1
 3 6 l 1x38
1 11 m 1x98
 2 11 l 1x98
 2 0 l 1
 1 0 l 1x58
 1 11 l 1x98
EndSplineSet
Fore
SplineSet
3 6 m 29
 4 6 l 25
 4 5 l 25
 3 5 l 25
 3 6 l 29
EndSplineSet
EndChar

StartChar: lslash
Encoding: 322 322 256
Width: 3
VWidth: 0
Flags: W
HStem: 5 1<0 1> 6 1<2 3>
VStem: 0 1<5 6> 2 1<6 7>
LayerCount: 2
Back
SplineSet
1 11 m 1xa0
 2 11 l 1xa0
 2 0 l 1
 1 0 l 1x60
 1 11 l 1xa0
EndSplineSet
Fore
SplineSet
2 7 m 29x70
 3 7 l 25
 3 6 l 25
 2 6 l 25
 2 7 l 29x70
0 5 m 25xb0
 0 6 l 25
 1 6 l 25
 1 5 l 25
 0 5 l 25xb0
EndSplineSet
EndChar

StartChar: Nacute
Encoding: 323 323 257
Width: 6
VWidth: 0
Flags: W
HStem: -9 20G<1 2 4 5> 0 21G<1 2 4 5>
VStem: 1 1<0 6 9 11> 1 2<6 9> 4 1<0 3 6 11>
LayerCount: 2
Back
SplineSet
2 12 m 1x26
 3 12 l 1
 3 13 l 1x2a
 2 13 l 1
 2 12 l 1x26
1 0 m 1x46
 1 11 l 1
 2 11 l 1
 2 9 l 1x86
 3 9 l 1
 3 6 l 1
 4 6 l 1
 4 11 l 1
 5 11 l 1x8a
 5 0 l 1
 4 0 l 1
 4 3 l 1
 3 3 l 1
 3 6 l 1x4a
 2 6 l 1
 2 0 l 1
 1 0 l 1x46
4 14 m 1x22
 4 15 l 1
 5 15 l 1
 5 14 l 1x12
 4 14 l 1x22
4 14 m 1x2a
 4 13 l 1
 3 13 l 1
 3 14 l 1
 4 14 l 1x2a
EndSplineSet
Fore
Refer: 45 78 S 1 0 0 1 0 0 2
Refer: 710 769 S 1 0 0 1 1 4 2
EndChar

StartChar: uni0145
Encoding: 325 325 258
Width: 6
VWidth: 0
Flags: W
HStem: -9 20G<1 2 4 5> -2 1<2 3> -2 2<3 4> 0 21G<1 2 4 5>
VStem: 1 1<0 6 9 11> 1 2<6 9> 2 2<-2 -1> 3 1<-1 0> 4 1<0 3 6 11>
LayerCount: 2
Back
SplineSet
1 0 m 1x14
 1 11 l 1
 2 11 l 1
 2 9 l 1x84
 3 9 l 1
 3 6 l 1
 4 6 l 1
 4 11 l 1
 5 11 l 1x89
 5 0 l 1x19
 4 0 l 1x42
 4 -2 l 1x41
 2 -2 l 1
 2 -1 l 1
 3 -1 l 1x26
 3 0 l 1
 4 0 l 1x46
 4 3 l 1x41
 3 3 l 1x42
 3 6 l 1x48
 2 6 l 1
 2 0 l 1
 1 0 l 1x14
EndSplineSet
Fore
Refer: 45 78 S 1 0 0 1 0 0 2
Refer: 748 807 S 1 0 0 1 1 0 2
EndChar

StartChar: Ncaron
Encoding: 327 327 259
Width: 6
VWidth: 0
Flags: W
HStem: -9 20G<1 2 4 5> 0 21G<1 2 4 5> 13 1<2 3 4 5>
VStem: 1 1<0 6 9 11> 1 2<6 9> 2 1<13 14> 4 1<0 3 6 11 13 14>
LayerCount: 2
Back
SplineSet
2 14 m 1x38
 3 14 l 1
 3 13 l 1
 2 13 l 1
 2 14 l 1x38
1 0 m 1x58
 1 11 l 1
 2 11 l 1
 2 9 l 1
 3 9 l 1
 3 6 l 1x98
 4 6 l 1
 4 11 l 1
 5 11 l 1x94
 5 0 l 1
 4 0 l 1
 4 3 l 1x54
 3 3 l 1
 3 6 l 1
 2 6 l 1
 2 0 l 1
 1 0 l 1x58
4 13 m 1x34
 4 14 l 1
 5 14 l 1
 5 13 l 1
 4 13 l 1x34
4 13 m 1
 3 13 l 1
 3 12 l 1x38
 4 12 l 1
 4 13 l 1
EndSplineSet
Fore
Refer: 45 78 S 1 0 0 1 0 0 2
Refer: 721 780 S 1 0 0 1 1 3 2
EndChar

StartChar: nacute
Encoding: 324 324 260
Width: 6
VWidth: 0
Flags: W
HStem: 9 1<2 3> 10 1<3 4>
VStem: 2 1<9 10> 3 1<10 11>
LayerCount: 2
Back
SplineSet
2 9 m 1x16
 3 9 l 1
 3 10 l 1
 2 10 l 1
 2 9 l 1x16
1 8 m 1x24
 2 8 l 1x24
 2 7 l 1x44
 3 7 l 1x48
 3 8 l 1
 4 8 l 1
 4 7 l 1
 5 7 l 1x22
 5 0 l 1
 4 0 l 1x82
 4 7 l 1x22
 3 7 l 1
 3 6 l 1x48
 2 6 l 1x44
 2 0 l 1
 1 0 l 1x84
 1 8 l 1x24
3 10 m 1x12
 3 11 l 1
 4 11 l 1
 4 10 l 1
 3 10 l 1x12
EndSplineSet
Fore
Refer: 655 714 N 1 0 0 1 1 0 2
EndChar

StartChar: uni0146
Encoding: 326 326 261
Width: 0
VWidth: 0
Flags: W
HStem: -2 1<2 3> -2 2<3 4>
VStem: 2 2<-2 -1> 3 1<-1 0>
LayerCount: 2
Back
SplineSet
3 0 m 1x98
 3 -1 l 1
 2 -1 l 1
 2 -2 l 1
 4 -2 l 1
 4 0 l 1
 3 0 l 1x98
1 8 m 1x38
 2 8 l 1x38
 2 7 l 1
 3 7 l 1x58
 3 8 l 1
 4 8 l 1
 4 7 l 1
 5 7 l 1x38
 5 0 l 1
 4 0 l 1x98
 4 7 l 1x38
 3 7 l 1
 3 6 l 1
 2 6 l 1x58
 2 0 l 1
 1 0 l 1x98
 1 8 l 1x38
EndSplineSet
Fore
Refer: 748 807 S 1 0 0 1 1 0 2
EndChar

StartChar: ncaron
Encoding: 328 328 262
Width: 6
VWidth: 0
Flags: W
HStem: 10 1<1 2 3 4>
VStem: 1 1<10 11> 3 1<10 11>
LayerCount: 2
Back
SplineSet
1 11 m 1x14
 2 11 l 1
 2 10 l 1
 1 10 l 1
 1 11 l 1x14
1 8 m 1x24
 2 8 l 1x24
 2 7 l 1x44
 3 7 l 1x48
 3 8 l 1
 4 8 l 1
 4 7 l 1
 5 7 l 1x22
 5 0 l 1
 4 0 l 1x82
 4 7 l 1x22
 3 7 l 1
 3 6 l 1x48
 2 6 l 1x44
 2 0 l 1
 1 0 l 1x84
 1 8 l 1x24
3 10 m 1x12
 3 11 l 1
 4 11 l 1
 4 10 l 1
 3 10 l 1x12
3 10 m 1
 2 10 l 1
 2 9 l 1x16
 3 9 l 1
 3 10 l 1
EndSplineSet
Fore
Refer: 721 780 N 1 0 0 1 0 0 2
EndChar

StartChar: napostrophe
Encoding: 329 329 263
Width: 6
VWidth: 0
Flags: W
HStem: 7 1<-2 -1> 8 21G<-1 0> 9 2<-2 -1>
VStem: -2 1<7 8> -1 1<8 9>
LayerCount: 2
Back
SplineSet
0 11 m 1x0c
 0 8 l 1
 -1 8 l 1x12
 -1 9 l 1x0a
 -2 9 l 1
 -2 11 l 1
 0 11 l 1x0c
1 8 m 1x8080
 2 8 l 1x8080
 2 7 l 1x2080
 3 7 l 1
 3 6 l 1x21
 2 6 l 1x2080
 2 0 l 1
 1 0 l 1x4080
 1 8 l 1x8080
4 7 m 1x20
 5 7 l 1x20
 5 0 l 1
 4 0 l 1x40
 4 7 l 1x20
4 7 m 1
 4 8 l 1
 3 8 l 1
 3 7 l 1x31
 4 7 l 1
-1 8 m 1x32
 -2 8 l 1
 -2 7 l 1x34
 -1 7 l 1
 -1 8 l 1x32
EndSplineSet
Fore
Refer: 6 39 N 1 0 0 1 -3 0 2
EndChar

StartChar: eng
Encoding: 331 331 264
Width: 6
VWidth: 0
Flags: W
HStem: -2 1<2 4> -1 1<4 5>
VStem: 2 2<-2 -1> 4 1<-1 0>
LayerCount: 2
Back
SplineSet
1 8 m 1x16
 2 8 l 1x16
 2 7 l 1x26
 3 7 l 1x2a
 3 8 l 1
 4 8 l 1
 4 7 l 1x1a
 3 7 l 1
 3 6 l 1x2a
 2 6 l 1x26
 2 0 l 1
 1 0 l 1x46
 1 8 l 1x16
4 -1 m 1x86
 2 -1 l 1
 2 -2 l 1
 4 -2 l 1
 4 -1 l 1x86
4 -1 m 1
 4 7 l 1
 5 7 l 1x12
 5 -1 l 1
 4 -1 l 1
EndSplineSet
Fore
SplineSet
2 -2 m 29xa0
 2 -1 l 25
 4 -1 l 25xa0
 4 0 l 25
 5 0 l 25
 5 -1 l 25x50
 4 -1 l 25
 4 -2 l 25
 2 -2 l 29xa0
EndSplineSet
EndChar

StartChar: Eng
Encoding: 330 330 265
Width: 6
VWidth: 0
Flags: W
HStem: -1 21G<4 5> 0 21G<1 2 4 5> 9 1<2 3> 10 1<3 4>
VStem: 1 2<9 10> 1 1<0 9 10 11> 4 1<-1 10>
LayerCount: 2
Fore
SplineSet
1 11 m 1x16
 2 11 l 1x16
 2 10 l 1x26
 3 10 l 1x2a
 3 11 l 1
 4 11 l 1
 4 10 l 1x1a
 3 10 l 1
 3 9 l 1x2a
 2 9 l 1x26
 2 0 l 1
 1 0 l 1x46
 1 11 l 1x16
4 -1 m 1x86
 2 -1 l 1
 2 -2 l 1
 4 -2 l 1
 4 -1 l 1x86
4 -1 m 1
 4 10 l 1
 5 10 l 1x12
 5 -1 l 1
 4 -1 l 1
EndSplineSet
Validated: 5
EndChar

StartChar: Omacron
Encoding: 332 332 266
Width: 6
VWidth: 0
Flags: W
HStem: -10 20G<1 2 4 5> 0 1<2 4> 1 21G<1 2 4 5> 10 1<2 4> 12 1<1 5>
VStem: 1 1<1 10> 2 2<0 1 10 11>
LayerCount: 2
Back
SplineSet
1 12 m 1x1c
 1 13 l 1
 5 13 l 1
 5 12 l 1
 1 12 l 1x1c
2 1 m 1x4c
 1 1 l 1x4c
 1 10 l 1
 2 10 l 1x8c
 2 1 l 1x4c
2 1 m 1
 2 0 l 1
 4 0 l 1
 4 1 l 1
 2 1 l 1
4 1 m 1
 4 10 l 1
 5 10 l 1x8c
 5 1 l 1
 4 1 l 1
2 10 m 1
 2 11 l 1
 4 11 l 1x2c
 4 10 l 1
 2 10 l 1
EndSplineSet
Fore
Refer: 46 79 S 1 0 0 1 0 0 2
Refer: 713 772 S 1 0 0 1 0 2 2
EndChar

StartChar: Obreve
Encoding: 334 334 267
Width: 6
VWidth: 0
Flags: W
HStem: -10 20G<1 2 4 5> 0 1<2 4> 1 21G<1 2 4 5> 10 1<2 4> 12 1<2 4>
VStem: 1 1<1 10> 2 2<0 1 10 11 12 13>
LayerCount: 2
Back
SplineSet
1 14 m 1x1c
 2 14 l 1
 2 13 l 1
 1 13 l 1
 1 14 l 1x1c
4 13 m 1
 4 14 l 1
 5 14 l 1
 5 13 l 1
 4 13 l 1
4 13 m 1
 2 13 l 1
 2 12 l 1
 4 12 l 1
 4 13 l 1
2 1 m 1x4c
 1 1 l 1x4c
 1 10 l 1
 2 10 l 1x8c
 2 1 l 1x4c
2 1 m 1
 2 0 l 1
 4 0 l 1
 4 1 l 1
 2 1 l 1
4 1 m 1
 4 10 l 1
 5 10 l 1x8c
 5 1 l 1
 4 1 l 1
2 10 m 1
 2 11 l 1
 4 11 l 1x2c
 4 10 l 1
 2 10 l 1
1 14 m 1x1c
 2 14 l 1
 2 13 l 1
 1 13 l 1
 1 14 l 1x1c
4 13 m 1
 4 14 l 1
 5 14 l 1
 5 13 l 1
 4 13 l 1
4 13 m 1
 2 13 l 1
 2 12 l 1
 4 12 l 1
 4 13 l 1
2 1 m 1x4c
 1 1 l 1x4c
 1 10 l 1
 2 10 l 1x8c
 2 1 l 1x4c
2 1 m 1
 2 0 l 1
 4 0 l 1
 4 1 l 1
 2 1 l 1
4 1 m 1
 4 10 l 1
 5 10 l 1x8c
 5 1 l 1
 4 1 l 1
2 10 m 1
 2 11 l 1
 4 11 l 1x2c
 4 10 l 1
 2 10 l 1
EndSplineSet
Fore
Refer: 46 79 S 1 0 0 1 0 0 2
Refer: 715 774 S 1 0 0 1 0 3 2
EndChar

StartChar: Ohungarumlaut
Encoding: 336 336 268
Width: 6
VWidth: 0
Flags: W
HStem: -10 20G<1 2 4 5> 0 1<2 4> 1 21G<1 2 4 5> 10 1<2 4> 12 1<1 2 4 5> 13 1<2 3 5 6>
VStem: 1 1<1 10 12 13> 2 1<13 14> 2 2<0 1 10 11> 4 1<12 13> 5 1<13 14>
LayerCount: 2
Back
SplineSet
4 12 m 1x11
 4 13 l 1
 5 13 l 1x11
 5 14 l 1
 6 14 l 1
 6 13 l 1x09
 5 13 l 1
 5 12 l 1
 4 12 l 1x11
1 12 m 1x15
 2 12 l 1x13
 2 13 l 1x0b
 1 13 l 1x0d
 1 12 l 1x15
2 1 m 1x45
 1 1 l 1x45
 1 10 l 1
 2 10 l 1x85
 2 1 l 1x45
2 1 m 1
 2 0 l 1x43
 4 0 l 1
 4 1 l 1
 2 1 l 1
4 1 m 1
 4 10 l 1
 5 10 l 1x81
 5 1 l 1
 4 1 l 1
2 13 m 1x0b
 2 14 l 1
 3 14 l 1
 3 13 l 1
 2 13 l 1x0b
2 10 m 1x85
 2 11 l 1
 4 11 l 1x23
 4 10 l 1
 2 10 l 1x85
EndSplineSet
Fore
Refer: 46 79 S 1 0 0 1 0 0 2
Refer: 720 779 S 1 0 0 1 0 3 2
EndChar

StartChar: omacron
Encoding: 333 333 269
Width: 6
VWidth: 0
Flags: W
HStem: 9 1<1 5>
LayerCount: 2
Back
SplineSet
1 9 m 1x1c
 1 10 l 1
 5 10 l 1
 5 9 l 1
 1 9 l 1x1c
1 1 m 1x4c
 1 7 l 1
 2 7 l 1
 2 8 l 1
 4 8 l 1x2c
 4 7 l 1x8c
 2 7 l 1x2c
 2 1 l 1
 1 1 l 1x4c
4 1 m 1x4c
 2 1 l 1
 2 0 l 1
 4 0 l 1
 4 1 l 1x4c
4 1 m 1
 4 7 l 1
 5 7 l 1x8c
 5 1 l 1
 4 1 l 1
EndSplineSet
Fore
Refer: 713 772 S 1 0 0 1 0 -1 2
EndChar

StartChar: obreve
Encoding: 335 335 270
Width: 6
VWidth: 0
Flags: W
HStem: 9 1<2 4>
VStem: 2 2<9 10>
LayerCount: 2
Back
SplineSet
1 11 m 1x1c
 2 11 l 1
 2 10 l 1
 1 10 l 1
 1 11 l 1x1c
1 1 m 1x4c
 1 7 l 1
 2 7 l 1
 2 8 l 1
 4 8 l 1x2c
 4 7 l 1x8c
 2 7 l 1x2c
 2 1 l 1
 1 1 l 1x4c
4 10 m 1x1c
 4 11 l 1
 5 11 l 1
 5 10 l 1
 4 10 l 1x1c
4 10 m 1
 2 10 l 1
 2 9 l 1
 4 9 l 1
 4 10 l 1
4 1 m 1x4c
 2 1 l 1
 2 0 l 1
 4 0 l 1
 4 1 l 1x4c
4 1 m 1
 4 7 l 1
 5 7 l 1x8c
 5 1 l 1
 4 1 l 1
EndSplineSet
Fore
Refer: 715 774 S 1 0 0 1 0 0 2
EndChar

StartChar: ohungarumlaut
Encoding: 337 337 271
Width: 6
VWidth: 0
Flags: W
HStem: 9 1<1 2 4 5> 10 1<2 3 5 6>
VStem: 1 1<9 10> 2 1<10 11> 4 1<9 10> 5 1<10 11>
LayerCount: 2
Back
SplineSet
4 9 m 1x12
 5 9 l 1
 5 10 l 1x11
 4 10 l 1
 4 9 l 1x12
1 9 m 1x18
 2 9 l 1
 2 10 l 1x14
 1 10 l 1
 1 9 l 1x18
1 1 m 1x4a
 1 7 l 1
 2 7 l 1x2a
 2 8 l 1
 4 8 l 1x26
 4 7 l 1x86
 2 7 l 1x2a
 2 1 l 1
 1 1 l 1x4a
4 1 m 1x46
 2 1 l 1x4a
 2 0 l 1
 4 0 l 1
 4 1 l 1x46
4 1 m 1
 4 7 l 1
 5 7 l 1x82
 5 1 l 1
 4 1 l 1
5 10 m 1x11
 5 11 l 1
 6 11 l 1
 6 10 l 1
 5 10 l 1x11
2 10 m 1x14
 2 11 l 1
 3 11 l 1
 3 10 l 1
 2 10 l 1x14
EndSplineSet
Fore
Refer: 720 779 N 1 0 0 1 0 0 2
EndChar

StartChar: OE
Encoding: 338 338 272
Width: 7
VWidth: 0
Flags: W
HStem: -10 20G<1 2> 0 1<2 3 4 6> 10 1<2 3 4 6>
VStem: 1 1<1 10> 3 2<5 6> 3 1<1 5 6 10>
LayerCount: 2
Fore
SplineSet
2 11 m 1x34
 6 11 l 1
 6 10 l 1
 4 10 l 1
 4 6 l 1x34
 5 6 l 1
 5 5 l 1x38
 4 5 l 1
 4 1 l 1
 6 1 l 1
 6 0 l 1
 2 0 l 1
 2 1 l 1
 1 1 l 1x74
 1 10 l 1
 2 10 l 1x94
 2 1 l 1
 3 1 l 1
 3 10 l 1x74
 2 10 l 1x94
 2 11 l 1x34
EndSplineSet
Validated: 5
EndChar

StartChar: oe
Encoding: 339 339 273
Width: 7
VWidth: 0
Flags: W
HStem: -13 20G<1 2 3 4> 0 1<2 3 4 5> 4 1<4 5> 7 1<2 3 4 5>
VStem: 1 1<1 7> 2 1<0 1 7 8> 3 1<1 4 5 7> 4 1<0 1 7 8> 5 1<1 3 5 7>
LayerCount: 2
Fore
SplineSet
4 8 m 1x11
 5 8 l 1
 5 7 l 1x11
 6 7 l 1
 6 4 l 1
 4 4 l 1
 4 1 l 1x7280
 3 1 l 1
 3 0 l 1
 2 0 l 1x74
 2 1 l 1
 1 1 l 1x78
 1 7 l 1
 2 7 l 1x88
 2 1 l 1x48
 3 1 l 1x44
 3 7 l 1x84
 4 7 l 1x82
 4 5 l 1
 5 5 l 1x2280
 5 7 l 1x31
 4 7 l 1x82
 4 8 l 1x11
2 8 m 1x14
 3 8 l 1x14
 3 7 l 1x84
 2 7 l 1x88
 2 8 l 1x14
4 1 m 1x42
 5 1 l 1x41
 5 3 l 1
 6 3 l 1
 6 1 l 1x4080
 5 1 l 1
 5 0 l 1
 4 0 l 1x41
 4 1 l 1x42
EndSplineSet
Validated: 5
EndChar

StartChar: Racute
Encoding: 340 340 274
Width: 5
VWidth: 0
Flags: W
LayerCount: 2
Back
SplineSet
1 0 m 1x83
 1 11 l 1
 4 11 l 1
 4 10 l 1
 5 10 l 1
 5 6 l 1x3280
 4 6 l 1x4280
 4 10 l 1
 2 10 l 1
 2 6 l 1x3280
 4 6 l 1x4280
 4 4 l 1x43
 5 4 l 1x4280
 5 0 l 1
 4 0 l 1x8280
 4 4 l 1
 3 4 l 1x43
 3 5 l 1
 2 5 l 1x23
 2 0 l 1
 1 0 l 1x83
2 12 m 1
 3 12 l 1
 3 13 l 1
 2 13 l 1x0b
 2 12 l 1
4 14 m 1
 4 13 l 1
 3 13 l 1
 3 14 l 1
 4 14 l 1
4 14 m 1
 4 15 l 1
 5 15 l 1
 5 14 l 1x0680
 4 14 l 1
EndSplineSet
Fore
Refer: 710 769 S 1 0 0 1 1 4 2
EndChar

StartChar: uni0156
Encoding: 342 342 275
Width: 0
VWidth: 0
Flags: W
HStem: -2 1<2 3> -2 2<3 4>
VStem: 2 2<-2 -1> 3 1<-1 0>
LayerCount: 2
Back
SplineSet
1 0 m 1x8c
 1 11 l 1
 4 11 l 1
 4 10 l 1
 5 10 l 1
 5 6 l 1x3c
 4 6 l 1x4c
 4 10 l 1
 2 10 l 1
 2 6 l 1x3c
 4 6 l 1
 4 4 l 1
 5 4 l 1x4c
 5 0 l 1
 4 0 l 1x8c
 4 4 l 1
 3 4 l 1x4c
 3 5 l 1
 2 5 l 1x2c
 2 0 l 1
 1 0 l 1x8c
3 0 m 1x8c
 3 -1 l 1
 2 -1 l 1
 2 -2 l 1
 4 -2 l 1
 4 0 l 1
 3 0 l 1x8c
EndSplineSet
Fore
Refer: 748 807 S 1 0 0 1 1 0 2
EndChar

StartChar: Rcaron
Encoding: 344 344 276
Width: 6
VWidth: 0
Flags: W
HStem: 13 1<1 2 3 4>
VStem: 1 1<13 14> 3 1<13 14>
LayerCount: 2
Back
SplineSet
1 0 m 1x86
 1 11 l 1
 4 11 l 1
 4 10 l 1
 5 10 l 1
 5 6 l 1x35
 4 6 l 1x45
 4 10 l 1
 2 10 l 1
 2 6 l 1x35
 4 6 l 1x45
 4 4 l 1x46
 5 4 l 1x45
 5 0 l 1
 4 0 l 1x85
 4 4 l 1
 3 4 l 1x46
 3 5 l 1
 2 5 l 1x26
 2 0 l 1
 1 0 l 1x86
1 14 m 1x0c
 2 14 l 1
 2 13 l 1
 1 13 l 1
 1 14 l 1x0c
3 13 m 1x0e
 2 13 l 1
 2 12 l 1
 3 12 l 1
 3 13 l 1x0e
3 13 m 1
 3 14 l 1
 4 14 l 1
 4 13 l 1
 3 13 l 1
EndSplineSet
Fore
Refer: 721 780 N 1 0 0 1 0 3 2
EndChar

StartChar: racute
Encoding: 341 341 277
Width: 5
VWidth: 0
Flags: W
HStem: 9 1<2 3> 10 1<3 4>
VStem: 2 1<9 10> 3 1<10 11>
LayerCount: 2
Back
SplineSet
2 9 m 1x16
 3 9 l 1
 3 10 l 1
 2 10 l 1
 2 9 l 1x16
1 8 m 1x24
 2 8 l 1x24
 2 7 l 1x44
 3 7 l 1x48
 3 8 l 1
 4 8 l 1
 4 7 l 1x22
 3 7 l 1
 3 6 l 1x48
 2 6 l 1x44
 2 0 l 1
 1 0 l 1x84
 1 8 l 1x24
3 10 m 1x12
 3 11 l 1
 4 11 l 1
 4 10 l 1
 3 10 l 1x12
EndSplineSet
Fore
Refer: 655 714 N 1 0 0 1 1 0 2
EndChar

StartChar: uni0157
Encoding: 343 343 278
Width: 0
VWidth: 0
Flags: W
HStem: -2 1<1 2> -2 2<2 3>
VStem: 1 2<-2 -1> 2 1<-1 0>
LayerCount: 2
Back
SplineSet
3 0 m 1x86
 3 -2 l 1x86
 1 -2 l 1
 1 -1 l 1
 2 -1 l 1x46
 2 0 l 1
 3 0 l 1x86
1 8 m 1x0e
 2 8 l 1x0e
 2 7 l 1
 3 7 l 1x16
 3 8 l 1
 4 8 l 1
 4 7 l 1x0e
 3 7 l 1
 3 6 l 1
 2 6 l 1
 2 0 l 1x96
 1 0 l 1x26
 1 8 l 1x0e
EndSplineSet
Fore
Refer: 748 807 S 1 0 0 1 0 0 2
EndChar

StartChar: rcaron
Encoding: 345 345 279
Width: 5
VWidth: 0
Flags: W
HStem: 10 1<1 2 3 4>
VStem: 1 1<10 11> 3 1<10 11>
LayerCount: 2
Back
SplineSet
1 11 m 1x14
 2 11 l 1
 2 10 l 1
 1 10 l 1
 1 11 l 1x14
1 8 m 1x24
 2 8 l 1x24
 2 7 l 1x44
 3 7 l 1x48
 3 8 l 1
 4 8 l 1
 4 7 l 1x22
 3 7 l 1
 3 6 l 1x48
 2 6 l 1x44
 2 0 l 1
 1 0 l 1x84
 1 8 l 1x24
3 10 m 1x12
 3 11 l 1
 4 11 l 1
 4 10 l 1
 3 10 l 1x12
3 10 m 1
 2 10 l 1
 2 9 l 1x16
 3 9 l 1
 3 10 l 1
EndSplineSet
Fore
Refer: 721 780 S 1 0 0 1 0 0 2
EndChar

StartChar: Sacute
Encoding: 346 346 280
Width: 5
VWidth: 0
Flags: W
LayerCount: 2
Back
SplineSet
2 12 m 1x96
 3 12 l 1
 3 13 l 1
 2 13 l 1
 2 12 l 1x96
1 3 m 1
 2 3 l 1
 2 1 l 1
 1 1 l 1
 1 3 l 1
4 14 m 1
 4 15 l 1
 5 15 l 1
 5 14 l 1x8e
 4 14 l 1
4 14 m 1x96
 4 13 l 1
 3 13 l 1
 3 14 l 1
 4 14 l 1x96
4 1 m 1
 2 1 l 1
 2 0 l 1
 4 0 l 1
 4 1 l 1
4 1 m 1
 4 5 l 1
 5 5 l 1
 5 1 l 1
 4 1 l 1
4 5 m 1
 4 6 l 1
 2 6 l 1
 2 5 l 1
 4 5 l 1
2 6 m 1
 1 6 l 1
 1 10 l 1
 2 10 l 1xa6
 2 6 l 1
4 10 m 1xc6
 5 10 l 1
 5 8 l 1
 4 8 l 1
 4 10 l 1xc6
4 10 m 1
 2 10 l 1
 2 11 l 1
 4 11 l 1xa6
 4 10 l 1
EndSplineSet
Fore
Refer: 710 769 S 1 0 0 1 1 4 2
EndChar

StartChar: Scircumflex
Encoding: 348 348 281
Width: 6
VWidth: 0
Flags: W
HStem: 13 1<2 4>
VStem: 2 2<13 14>
LayerCount: 2
Back
SplineSet
1 12 m 1x9c
 2 12 l 1
 2 13 l 1
 1 13 l 1
 1 12 l 1x9c
1 3 m 1
 2 3 l 1
 2 1 l 1
 1 1 l 1
 1 3 l 1
4 13 m 1
 4 12 l 1
 5 12 l 1
 5 13 l 1
 4 13 l 1
4 13 m 1
 2 13 l 1
 2 14 l 1
 4 14 l 1
 4 13 l 1
4 1 m 1
 2 1 l 1
 2 0 l 1
 4 0 l 1
 4 1 l 1
4 1 m 1
 4 5 l 1
 5 5 l 1
 5 1 l 1
 4 1 l 1
4 5 m 1
 4 6 l 1
 2 6 l 1
 2 5 l 1
 4 5 l 1
2 6 m 1
 1 6 l 1
 1 10 l 1
 2 10 l 1xbc
 2 6 l 1
4 10 m 1xdc
 5 10 l 1
 5 8 l 1
 4 8 l 1
 4 10 l 1xdc
4 10 m 1
 2 10 l 1
 2 11 l 1
 4 11 l 1xbc
 4 10 l 1
EndSplineSet
Fore
Refer: 711 770 S 1 0 0 1 0 3 2
EndChar

StartChar: Scedilla
Encoding: 350 350 282
Width: 0
VWidth: 0
Flags: W
HStem: -2 1<2 3> -2 2<3 4>
VStem: 2 2<-2 -1> 3 1<-1 0>
LayerCount: 2
Back
SplineSet
1 3 m 1x98
 2 3 l 1
 2 1 l 1
 1 1 l 1
 1 3 l 1x98
2 -1 m 1
 2 -2 l 1
 4 -2 l 1
 4 0 l 1
 4 1 l 1
 2 1 l 1
 2 0 l 1
 3 0 l 1
 3 -1 l 1
 2 -1 l 1
4 10 m 1xd8
 5 10 l 1
 5 8 l 1
 4 8 l 1
 4 10 l 1xd8
4 10 m 1
 2 10 l 1
 2 11 l 1
 4 11 l 1xb8
 4 10 l 1
2 10 m 1
 2 6 l 1
 1 6 l 1
 1 10 l 1
 2 10 l 1
2 6 m 1
 2 5 l 1
 4 5 l 1
 4 6 l 1
 2 6 l 1
4 5 m 1
 5 5 l 1
 5 1 l 1
 4 1 l 1
 4 5 l 1
EndSplineSet
Fore
Refer: 748 807 S 1 0 0 1 1 0 2
EndChar

StartChar: Scaron
Encoding: 352 352 283
Width: 6
VWidth: 0
Flags: W
HStem: 13 1<1 2 3 4>
VStem: 1 1<13 14> 3 1<13 14>
LayerCount: 2
Back
SplineSet
1 14 m 1x9c
 2 14 l 1
 2 13 l 1
 1 13 l 1
 1 14 l 1x9c
1 3 m 1
 2 3 l 1
 2 1 l 1
 1 1 l 1
 1 3 l 1
3 13 m 1
 3 14 l 1
 4 14 l 1
 4 13 l 1
 3 13 l 1
3 13 m 1
 2 13 l 1
 2 12 l 1
 3 12 l 1
 3 13 l 1
4 1 m 1
 2 1 l 1
 2 0 l 1
 4 0 l 1
 4 1 l 1
4 1 m 1
 4 5 l 1
 5 5 l 1
 5 1 l 1
 4 1 l 1
4 5 m 1
 4 6 l 1
 2 6 l 1
 2 5 l 1
 4 5 l 1
2 6 m 1
 1 6 l 1
 1 10 l 1
 2 10 l 1xbc
 2 6 l 1
4 10 m 1xdc
 5 10 l 1
 5 8 l 1
 4 8 l 1
 4 10 l 1xdc
4 10 m 1
 2 10 l 1
 2 11 l 1
 4 11 l 1xbc
 4 10 l 1
EndSplineSet
Fore
Refer: 721 780 N 1 0 0 1 0 3 2
EndChar

StartChar: sacute
Encoding: 347 347 284
Width: 6
VWidth: 0
Flags: W
HStem: 9 1<2 3> 10 1<3 4>
VStem: 2 1<9 10> 3 1<10 11>
LayerCount: 2
Back
SplineSet
2 9 m 1x8e
 3 9 l 1
 3 10 l 1
 2 10 l 1
 2 9 l 1x8e
1 3 m 1
 2 3 l 1
 2 1 l 1
 1 1 l 1
 1 3 l 1
4 1 m 1
 2 1 l 1
 2 0 l 1
 4 0 l 1
 4 1 l 1
4 1 m 1
 4 4 l 1
 5 4 l 1
 5 1 l 1
 4 1 l 1
4 4 m 1
 4 5 l 1
 2 5 l 1xce
 2 4 l 1
 4 4 l 1
2 5 m 1
 1 5 l 1
 1 7 l 1
 2 7 l 1
 2 5 l 1
4 7 m 1xae
 5 7 l 1
 5 6 l 1
 4 6 l 1
 4 7 l 1xae
4 7 m 1
 2 7 l 1xce
 2 8 l 1
 4 8 l 1x9e
 4 7 l 1
3 10 m 1
 3 11 l 1
 4 11 l 1
 4 10 l 1
 3 10 l 1
EndSplineSet
Fore
Refer: 655 714 N 1 0 0 1 1 0 2
EndChar

StartChar: scircumflex
Encoding: 349 349 285
Width: 6
VWidth: 0
Flags: W
HStem: 10 1<2 4>
VStem: 2 2<10 11>
LayerCount: 2
Back
SplineSet
1 9 m 1x8e
 2 9 l 1
 2 10 l 1
 1 10 l 1
 1 9 l 1x8e
1 3 m 1
 2 3 l 1
 2 1 l 1
 1 1 l 1
 1 3 l 1
4 10 m 1
 4 9 l 1
 5 9 l 1
 5 10 l 1
 4 10 l 1
4 10 m 1
 2 10 l 1
 2 11 l 1
 4 11 l 1
 4 10 l 1
4 1 m 1
 2 1 l 1
 2 0 l 1
 4 0 l 1
 4 1 l 1
4 1 m 1
 4 4 l 1
 5 4 l 1
 5 1 l 1
 4 1 l 1
4 4 m 1
 4 5 l 1
 2 5 l 1xce
 2 4 l 1
 4 4 l 1
2 5 m 1
 1 5 l 1
 1 7 l 1
 2 7 l 1
 2 5 l 1
4 7 m 1xae
 5 7 l 1
 5 6 l 1
 4 6 l 1
 4 7 l 1xae
4 7 m 1
 2 7 l 1xce
 2 8 l 1
 4 8 l 1x9e
 4 7 l 1
EndSplineSet
Fore
Refer: 711 770 S 1 0 0 1 0 0 2
EndChar

StartChar: scedilla
Encoding: 351 351 286
Width: 0
VWidth: 0
Flags: W
HStem: -2 1<2 3> -2 2<3 4>
VStem: 2 2<-2 -1> 3 1<-1 0>
LayerCount: 2
Back
SplineSet
1 3 m 1x8c
 2 3 l 1
 2 1 l 1
 1 1 l 1
 1 3 l 1x8c
3 -1 m 1
 2 -1 l 1
 2 -2 l 1
 4 -2 l 1
 4 0 l 1
 4 1 l 1
 2 1 l 1
 2 0 l 1
 3 0 l 1
 3 -1 l 1
4 7 m 1xac
 5 7 l 1
 5 6 l 1
 4 6 l 1
 4 7 l 1xac
4 7 m 1
 2 7 l 1xcc
 2 8 l 1
 4 8 l 1x9c
 4 7 l 1
2 7 m 1
 2 5 l 1
 1 5 l 1
 1 7 l 1
 2 7 l 1
2 5 m 1
 2 4 l 1
 4 4 l 1
 4 5 l 1
 2 5 l 1
4 4 m 1
 5 4 l 1
 5 1 l 1
 4 1 l 1
 4 4 l 1
EndSplineSet
Fore
Refer: 748 807 S 1 0 0 1 1 0 2
EndChar

StartChar: scaron
Encoding: 353 353 287
Width: 6
VWidth: 0
Flags: W
HStem: 10 1<1 2 3 4>
VStem: 1 1<10 11> 3 1<10 11>
LayerCount: 2
Back
SplineSet
1 11 m 1x8e
 2 11 l 1
 2 10 l 1
 1 10 l 1
 1 11 l 1x8e
1 3 m 1
 2 3 l 1
 2 1 l 1
 1 1 l 1
 1 3 l 1
3 10 m 1
 3 11 l 1
 4 11 l 1
 4 10 l 1
 3 10 l 1
3 10 m 1
 2 10 l 1
 2 9 l 1
 3 9 l 1
 3 10 l 1
4 1 m 1
 2 1 l 1
 2 0 l 1
 4 0 l 1
 4 1 l 1
4 1 m 1
 4 4 l 1
 5 4 l 1
 5 1 l 1
 4 1 l 1
4 4 m 1
 4 5 l 1
 2 5 l 1xce
 2 4 l 1
 4 4 l 1
2 5 m 1
 1 5 l 1
 1 7 l 1
 2 7 l 1
 2 5 l 1
4 7 m 1xae
 5 7 l 1
 5 6 l 1
 4 6 l 1
 4 7 l 1xae
4 7 m 1
 2 7 l 1xce
 2 8 l 1
 4 8 l 1x9e
 4 7 l 1
EndSplineSet
Fore
Refer: 721 780 N 1 0 0 1 0 0 2
EndChar

StartChar: uni0162
Encoding: 354 354 288
Width: 0
VWidth: 0
Flags: W
HStem: -2 1<3 4> -2 2<4 5>
VStem: 3 2<-2 -1> 4 1<-1 0>
LayerCount: 2
Back
SplineSet
1 11 m 1x60
 6 11 l 1
 6 10 l 1
 4 10 l 1x60
 4 0 l 1
 3 0 l 1xa0
 3 10 l 1
 1 10 l 1
 1 11 l 1x60
3 -1 m 1
 3 -2 l 1
 5 -2 l 1
 5 0 l 1
 4 0 l 1xa0
 4 -1 l 1
 3 -1 l 1
EndSplineSet
Fore
Refer: 748 807 S 1 0 0 1 2 0 2
EndChar

StartChar: Tcaron
Encoding: 356 356 289
Width: 7
VWidth: 0
Flags: W
HStem: 13 1<2 3 4 5>
VStem: 2 1<13 14> 4 1<13 14>
LayerCount: 2
Back
SplineSet
2 14 m 1x30
 3 14 l 1
 3 13 l 1
 2 13 l 1
 2 14 l 1x30
1 11 m 1x48
 6 11 l 1
 6 10 l 1
 4 10 l 1x48
 4 0 l 1
 3 0 l 1x88
 3 10 l 1
 1 10 l 1
 1 11 l 1x48
4 13 m 1x24
 4 14 l 1
 5 14 l 1
 5 13 l 1
 4 13 l 1x24
4 13 m 1
 3 13 l 1x34
 3 12 l 1x28
 4 12 l 1
 4 13 l 1
EndSplineSet
Fore
Refer: 721 780 N 1 0 0 1 1 3 2
EndChar

StartChar: Tbar
Encoding: 358 358 290
Width: 5
VWidth: 0
Flags: W
HStem: 5 1<2 5>
VStem: 2 3<5 6>
LayerCount: 2
Back
SplineSet
1 11 m 1x70
 6 11 l 1
 6 10 l 1
 4 10 l 1
 4 6 l 1
 5 6 l 1
 5 5 l 1
 4 5 l 1x70
 4 0 l 1
 3 0 l 1x90
 3 5 l 1
 2 5 l 1
 2 6 l 1
 3 6 l 1
 3 10 l 1
 1 10 l 1
 1 11 l 1x70
EndSplineSet
Fore
Refer: 762 821 S 1 0 0 1 1 0 2
EndChar

StartChar: uni0163
Encoding: 355 355 291
Width: 0
VWidth: 0
Flags: W
HStem: -2 1<3 4> -2 2<4 5>
VStem: 3 2<-2 -1> 4 1<-1 0>
LayerCount: 2
Back
SplineSet
2 11 m 1x84
 3 11 l 1x84
 3 8 l 1
 5 8 l 1
 5 7 l 1
 3 7 l 1x0c
 3 1 l 1
 2 1 l 1x14
 2 7 l 1
 1 7 l 1
 1 8 l 1
 2 8 l 1x0c
 2 11 l 1x84
3 -1 m 1x24
 4 -1 l 1x24
 4 0 l 1
 5 0 l 1
 5 1 l 1
 3 1 l 1
 3 0 l 1
 4 0 l 1
 5 0 l 1
 5 -2 l 1x54
 3 -2 l 1
 3 -1 l 1x24
EndSplineSet
Fore
Refer: 748 807 S 1 0 0 1 2 0 2
EndChar

StartChar: tcaron
Encoding: 357 357 292
Width: 7
VWidth: 0
Flags: W
HStem: 9 1<4 5> 10 21G<5 6> 11 2<4 5>
VStem: 4 1<9 10> 5 1<10 11>
LayerCount: 2
Back
SplineSet
4 9 m 1x1c
 4 10 l 1
 5 10 l 1
 5 11 l 1
 4 11 l 1
 4 13 l 1
 6 13 l 1
 6 10 l 1
 5 10 l 1
 5 9 l 1
 4 9 l 1x1c
2 11 m 1x8c
 3 11 l 1x8c
 3 8 l 1
 5 8 l 1
 5 7 l 1
 3 7 l 1x2c
 3 1 l 1
 2 1 l 1x4c
 2 7 l 1
 1 7 l 1
 1 8 l 1
 2 8 l 1x2c
 2 11 l 1x8c
3 1 m 1x4c
 3 0 l 1
 5 0 l 1
 5 1 l 1
 3 1 l 1x4c
EndSplineSet
Fore
Refer: 6 39 N 1 0 0 1 3 2 2
EndChar

StartChar: tbar
Encoding: 359 359 293
Width: 5
VWidth: 0
Flags: W
HStem: 5 1<1 4>
VStem: 1 3<5 6>
LayerCount: 2
Back
SplineSet
2 11 m 1x88
 3 11 l 1x88
 3 8 l 1
 5 8 l 1
 5 7 l 1
 3 7 l 1
 3 6 l 1
 5 6 l 1
 5 5 l 1
 3 5 l 1x38
 3 1 l 1
 2 1 l 1x48
 2 5 l 1
 1 5 l 1
 1 6 l 1
 2 6 l 1
 2 7 l 1
 1 7 l 1
 1 8 l 1
 2 8 l 1x38
 2 11 l 1x88
3 1 m 1x48
 3 0 l 1
 5 0 l 1
 5 1 l 1
 3 1 l 1x48
EndSplineSet
Fore
Refer: 762 821 S 1 0 0 1 0 0 2
EndChar

StartChar: Utilde
Encoding: 360 360 294
Width: 6
VWidth: 0
Flags: HW
HStem: 13 1<2 3 4 5>
VStem: 2 1<13 14> 4 1<13 14>
LayerCount: 2
Back
SplineSet
1 12 m 1x34
 2 12 l 1
 2 13 l 1x2c
 1 13 l 1
 1 12 l 1x34
1 11 m 1x94
 2 11 l 1x94
 2 1 l 1
 1 1 l 1x54
 1 11 l 1x94
4 13 m 1x24
 4 14 l 1
 5 14 l 1
 5 13 l 1
 4 13 l 1x24
4 13 m 1
 3 13 l 1
 3 12 l 1x2c
 4 12 l 1
 4 13 l 1
3 13 m 1
 2 13 l 1
 2 14 l 1
 3 14 l 1
 3 13 l 1
4 1 m 1x44
 4 11 l 1
 5 11 l 1x84
 5 1 l 1
 4 1 l 1x44
4 1 m 1x4c
 2 1 l 1x54
 2 0 l 1
 4 0 l 1
 4 1 l 1x4c
EndSplineSet
Fore
Refer: 712 771 S 1 0 0 1 0 3 2
EndChar

StartChar: Umacron
Encoding: 362 362 295
Width: 6
VWidth: 0
Flags: W
HStem: 12 1<1 5>
LayerCount: 2
Back
SplineSet
1 12 m 1x38
 1 13 l 1
 5 13 l 1
 5 12 l 1
 1 12 l 1x38
1 11 m 1x98
 2 11 l 1x98
 2 1 l 1
 1 1 l 1x58
 1 11 l 1x98
4 1 m 1x58
 4 11 l 1
 5 11 l 1x98
 5 1 l 1
 4 1 l 1x58
4 1 m 1x58
 2 1 l 1
 2 0 l 1
 4 0 l 1
 4 1 l 1x58
EndSplineSet
Fore
Refer: 713 772 S 1 0 0 1 0 2 2
EndChar

StartChar: Ubreve
Encoding: 364 364 296
Width: 6
VWidth: 0
Flags: W
HStem: 12 1<2 4>
VStem: 2 2<12 13>
LayerCount: 2
Back
SplineSet
1 14 m 1x38
 2 14 l 1
 2 13 l 1
 1 13 l 1
 1 14 l 1x38
1 11 m 1x98
 2 11 l 1x98
 2 1 l 1
 1 1 l 1x58
 1 11 l 1x98
4 13 m 1x38
 4 14 l 1
 5 14 l 1
 5 13 l 1
 4 13 l 1x38
4 13 m 1
 2 13 l 1
 2 12 l 1
 4 12 l 1
 4 13 l 1
4 1 m 1x58
 4 11 l 1
 5 11 l 1x98
 5 1 l 1
 4 1 l 1x58
4 1 m 1x58
 2 1 l 1
 2 0 l 1
 4 0 l 1
 4 1 l 1x58
EndSplineSet
Fore
Refer: 715 774 S 1 0 0 1 0 3 2
EndChar

StartChar: Uring
Encoding: 366 366 297
Width: 6
VWidth: 0
Flags: W
HStem: 12 1<2 4> 13 2<1 2 4 5>
VStem: 1 1<13 15> 2 2<12 13 15 16>
LayerCount: 2
Back
SplineSet
2 16 m 1x1c
 4 16 l 1
 4 15 l 1
 5 15 l 1
 5 13 l 1x1c
 4 13 l 1x2c
 4 15 l 1
 2 15 l 1x1c
 2 13 l 1x2c
 1 13 l 1
 1 15 l 1
 2 15 l 1
 2 16 l 1x1c
1 11 m 1x8c
 2 11 l 1x8c
 2 1 l 1
 1 1 l 1x4c
 1 11 l 1x8c
2 13 m 1x2c
 4 13 l 1
 4 12 l 1
 2 12 l 1
 2 13 l 1x2c
4 1 m 1x4c
 4 11 l 1
 5 11 l 1x8c
 5 1 l 1
 4 1 l 1x4c
4 1 m 1x4c
 2 1 l 1
 2 0 l 1
 4 0 l 1
 4 1 l 1x4c
EndSplineSet
Fore
Refer: 719 778 S 1 0 0 1 0 2 2
EndChar

StartChar: Uhungarumlaut
Encoding: 368 368 298
Width: 6
VWidth: 0
Flags: W
HStem: 12 1<1 2 4 5> 13 1<2 3 5 6>
VStem: 1 1<12 13> 2 1<13 14> 4 1<12 13> 5 1<13 14>
LayerCount: 2
Back
SplineSet
4 12 m 1x24
 5 12 l 1
 5 13 l 1x22
 4 13 l 1
 4 12 l 1x24
1 12 m 1x30
 2 12 l 1
 2 13 l 1x28
 1 13 l 1
 1 12 l 1x30
1 11 m 1x90
 2 11 l 1x90
 2 1 l 1
 1 1 l 1x50
 1 11 l 1x90
4 1 m 1x44
 4 11 l 1
 5 11 l 1x84
 5 1 l 1
 4 1 l 1x44
4 1 m 1x4c
 2 1 l 1x54
 2 0 l 1
 4 0 l 1
 4 1 l 1x4c
5 13 m 1x22
 5 14 l 1
 6 14 l 1
 6 13 l 1
 5 13 l 1x22
2 13 m 1x28
 2 14 l 1
 3 14 l 1
 3 13 l 1
 2 13 l 1x28
EndSplineSet
Fore
Refer: 720 779 N 1 0 0 1 0 3 2
EndChar

StartChar: Uogonek
Encoding: 370 370 299
Width: 0
VWidth: 0
Flags: W
HStem: -2 1<4 5> -2 2<3 4>
VStem: 3 1<-1 0> 3 2<-2 -1>
LayerCount: 2
Back
SplineSet
1 11 m 1x88
 2 11 l 1x88
 2 1 l 1
 1 1 l 1x18
 1 11 l 1x88
4 0 m 1x4c
 4 -1 l 1x2c
 5 -1 l 1
 5 -2 l 1x2a
 3 -2 l 1
 3 0 l 1
 4 0 l 1x4c
4 0 m 1x5c
 4 1 l 1x5a
 2 1 l 1
 2 0 l 1
 3 0 l 1
 4 0 l 1x5c
4 1 m 1
 4 11 l 1
 5 11 l 1x8a
 5 1 l 1
 4 1 l 1
EndSplineSet
Fore
Refer: 749 808 S 1 0 0 1 2 0 2
EndChar

StartChar: utilde
Encoding: 361 361 300
Width: 6
VWidth: 0
Flags: HW
HStem: 10 1<2 3 4 5>
VStem: 2 1<10 11> 4 1<10 11>
LayerCount: 2
Back
SplineSet
1 9 m 1x1a
 2 9 l 1
 2 10 l 1x16
 1 10 l 1
 1 9 l 1x1a
1 8 m 1x8a
 2 8 l 1x8a
 2 1 l 1
 1 1 l 1x2a
 1 8 l 1x8a
4 10 m 1x12
 4 11 l 1
 5 11 l 1
 5 10 l 1
 4 10 l 1x12
4 10 m 1
 3 10 l 1
 3 9 l 1x16
 4 9 l 1
 4 10 l 1
3 10 m 1
 2 10 l 1
 2 11 l 1
 3 11 l 1
 3 10 l 1
3 1 m 1x26
 3 2 l 1
 4 2 l 1x26
 4 8 l 1
 5 8 l 1x86
 5 0 l 1
 4 0 l 1x46
 4 1 l 1
 3 1 l 1x26
3 1 m 1
 2 1 l 1x2a
 2 0 l 1
 3 0 l 1x46
 3 1 l 1
EndSplineSet
Fore
Refer: 712 771 S 1 0 0 1 0 0 2
EndChar

StartChar: umacron
Encoding: 363 363 301
Width: 6
VWidth: 0
Flags: W
HStem: 9 1<1 5>
LayerCount: 2
Back
SplineSet
1 9 m 1x1a
 1 10 l 1
 5 10 l 1
 5 9 l 1
 1 9 l 1x1a
1 8 m 1x88
 2 8 l 1x88
 2 1 l 1
 1 1 l 1x28
 1 8 l 1x88
3 1 m 1x2c
 3 2 l 1x2c
 4 2 l 1x2a
 4 8 l 1
 5 8 l 1x8a
 5 0 l 1
 4 0 l 1x4a
 4 1 l 1x2a
 3 1 l 1x2c
3 1 m 1
 2 1 l 1x2c
 2 0 l 1
 3 0 l 1x4c
 3 1 l 1
EndSplineSet
Fore
Refer: 713 772 S 1 0 0 1 0 -1 2
EndChar

StartChar: ubreve
Encoding: 365 365 302
Width: 6
VWidth: 0
Flags: W
HStem: 9 1<2 4>
VStem: 2 2<9 10>
LayerCount: 2
Back
SplineSet
1 11 m 1x1c
 2 11 l 1
 2 10 l 1
 1 10 l 1
 1 11 l 1x1c
1 8 m 1x8c
 2 8 l 1x8c
 2 1 l 1
 1 1 l 1x2c
 1 8 l 1x8c
4 10 m 1x1c
 4 11 l 1
 5 11 l 1
 5 10 l 1
 4 10 l 1x1c
4 10 m 1
 2 10 l 1
 2 9 l 1
 4 9 l 1
 4 10 l 1
3 1 m 1x2c
 3 2 l 1
 4 2 l 1x2c
 4 8 l 1
 5 8 l 1x8c
 5 0 l 1
 4 0 l 1x4c
 4 1 l 1
 3 1 l 1x2c
3 1 m 1
 2 1 l 1x2c
 2 0 l 1
 3 0 l 1x4c
 3 1 l 1
EndSplineSet
Fore
Refer: 715 774 S 1 0 0 1 0 0 2
EndChar

StartChar: uring
Encoding: 367 367 303
Width: 6
VWidth: 0
Flags: W
HStem: 9 1<2 4> 10 2<1 2 4 5>
VStem: 1 1<10 12> 2 2<9 10 12 13>
LayerCount: 2
Back
SplineSet
2 9 m 1x1c
 4 9 l 1
 4 10 l 1
 2 10 l 1
 2 9 l 1x1c
1 8 m 1x8c
 2 8 l 1x8c
 2 1 l 1
 1 1 l 1x2c
 1 8 l 1x8c
2 12 m 1x1c
 2 13 l 1
 4 13 l 1
 4 12 l 1
 2 12 l 1x1c
2 12 m 1
 2 10 l 1
 1 10 l 1
 1 12 l 1
 2 12 l 1
4 12 m 1
 5 12 l 1
 5 10 l 1
 4 10 l 1
 4 12 l 1
3 1 m 1x2c
 3 2 l 1
 4 2 l 1x2c
 4 8 l 1
 5 8 l 1x8c
 5 0 l 1
 4 0 l 1x4c
 4 1 l 1
 3 1 l 1x2c
3 1 m 1
 2 1 l 1x2c
 2 0 l 1
 3 0 l 1x4c
 3 1 l 1
EndSplineSet
Fore
Refer: 719 778 S 1 0 0 1 0 -1 2
EndChar

StartChar: uhungarumlaut
Encoding: 369 369 304
Width: 6
VWidth: 0
Flags: W
HStem: 9 1<1 2 4 5> 10 1<2 3 5 6>
VStem: 1 1<9 10> 2 1<10 11> 4 1<9 10> 5 1<10 11>
LayerCount: 2
Back
SplineSet
4 9 m 1x12
 5 9 l 1
 5 10 l 1
 4 10 l 1
 4 9 l 1x12
1 9 m 1x1a
 2 9 l 1
 2 10 l 1x16
 1 10 l 1
 1 9 l 1x1a
1 8 m 1x8a
 2 8 l 1x8a
 2 1 l 1
 1 1 l 1x2a
 1 8 l 1x8a
3 1 m 1x26
 3 2 l 1
 4 2 l 1x26
 4 8 l 1
 5 8 l 1x86
 5 0 l 1
 4 0 l 1x46
 4 1 l 1
 3 1 l 1x26
3 1 m 1
 2 1 l 1x2a
 2 0 l 1
 3 0 l 1x46
 3 1 l 1
5 10 m 1x12
 5 11 l 1
 6 11 l 1
 6 10 l 1
 5 10 l 1x12
2 10 m 1x16
 2 11 l 1
 3 11 l 1
 3 10 l 1
 2 10 l 1x16
EndSplineSet
Fore
Refer: 720 779 N 1 0 0 1 0 0 2
EndChar

StartChar: uogonek
Encoding: 371 371 305
Width: 0
VWidth: 0
Flags: W
HStem: -2 1<4 5> -2 2<3 4>
VStem: 3 1<-1 0> 3 2<-2 -1>
LayerCount: 2
Back
SplineSet
3 -2 m 1x58
 5 -2 l 1
 5 -1 l 1
 4 -1 l 1
 4 0 l 1x54
 3 0 l 1
 3 -2 l 1x58
1 8 m 1x90
 2 8 l 1x90
 2 1 l 1
 1 1 l 1x30
 1 8 l 1x90
3 1 m 1x38
 3 2 l 1x38
 4 2 l 1x34
 4 8 l 1
 5 8 l 1x94
 5 0 l 1
 4 0 l 1x54
 4 1 l 1x34
 3 1 l 1x38
3 1 m 1
 2 1 l 1x38
 2 0 l 1
 3 0 l 1x58
 3 1 l 1
EndSplineSet
Fore
Refer: 749 808 S 1 0 0 1 2 0 2
EndChar

StartChar: Wcircumflex
Encoding: 372 372 306
Width: 6
VWidth: 0
Flags: W
HStem: 13 1<2 4>
VStem: 2 2<13 14>
LayerCount: 2
Back
SplineSet
2 12 m 1x2a
 3 12 l 1
 3 13 l 1x26
 2 13 l 1
 2 12 l 1x2a
1 11 m 1xb2
 2 11 l 1xb2
 2 2 l 1x72
 3 2 l 1
 3 0 l 1
 2 0 l 1x6a
 2 2 l 1
 1 2 l 1x72
 1 11 l 1xb2
4 13 m 1x26
 4 12 l 1
 5 12 l 1
 5 13 l 1
 4 13 l 1x26
4 13 m 1
 3 13 l 1
 3 14 l 1
 4 14 l 1
 4 13 l 1
3 2 m 1x6a
 3 11 l 1
 4 11 l 1xa6
 4 2 l 1x66
 3 2 l 1x6a
4 2 m 1x66
 5 2 l 1x66
 5 11 l 1
 6 11 l 1xa6
 6 2 l 1
 5 2 l 1
 5 0 l 1
 4 0 l 1
 4 2 l 1x66
EndSplineSet
Fore
Refer: 711 770 S 1 0 0 1 0 3 2
EndChar

StartChar: wcircumflex
Encoding: 373 373 307
Width: 6
VWidth: 0
Flags: W
HStem: 10 1<3 5>
VStem: 3 2<10 11>
LayerCount: 2
Back
SplineSet
2 9 m 1x2e
 3 9 l 1
 3 10 l 1
 2 10 l 1
 2 9 l 1x2e
1 8 m 1xaa
 2 8 l 1xaa
 2 1 l 1x6a
 3 1 l 1x72
 3 8 l 1
 4 8 l 1xa6
 4 1 l 1x66
 3 1 l 1
 3 0 l 1
 1 0 l 1x72
 1 8 l 1xaa
4 10 m 1x26
 4 9 l 1
 5 9 l 1
 5 10 l 1
 4 10 l 1x26
4 10 m 1
 3 10 l 1
 3 11 l 1
 4 11 l 1
 4 10 l 1
4 1 m 1x66
 5 1 l 1x66
 5 8 l 1
 6 8 l 1xa6
 6 1 l 1
 5 1 l 1
 5 0 l 1
 4 0 l 1
 4 1 l 1x66
EndSplineSet
Fore
Refer: 711 770 S 1 0 0 1 1 0 2
EndChar

StartChar: Ycircumflex
Encoding: 374 374 308
Width: 6
VWidth: 0
Flags: W
HStem: 13 1<2 4>
VStem: 2 2<13 14>
LayerCount: 2
Back
SplineSet
2 12 m 1x0a
 3 12 l 1
 3 13 l 1x06
 2 13 l 1
 2 12 l 1x0a
1 11 m 1x32
 2 11 l 1x32
 2 8 l 1x52
 3 8 l 1
 3 5 l 1
 2 5 l 1x4a
 2 8 l 1x52
 1 8 l 1
 1 11 l 1x32
4 13 m 1x06
 4 12 l 1
 5 12 l 1
 5 13 l 1
 4 13 l 1x06
4 13 m 1
 3 13 l 1
 3 14 l 1
 4 14 l 1
 4 13 l 1
3 5 m 1x4a
 4 5 l 1x46
 4 0 l 1
 3 0 l 1x86
 3 5 l 1x4a
4 5 m 1
 4 8 l 1
 5 8 l 1x46
 5 11 l 1
 6 11 l 1
 6 8 l 1x26
 5 8 l 1
 5 5 l 1
 4 5 l 1
EndSplineSet
Fore
Refer: 711 770 S 1 0 0 1 0 3 2
EndChar

StartChar: Ydieresis
Encoding: 376 376 309
Width: 7
VWidth: 0
Flags: W
HStem: 12 1<2 3 4 5>
VStem: 2 1<12 13> 4 1<12 13>
LayerCount: 2
Back
SplineSet
4 12 m 1x12
 4 13 l 1
 5 13 l 1
 5 12 l 1
 4 12 l 1x12
2 12 m 1x16
 2 13 l 1
 3 13 l 1
 3 12 l 1
 2 12 l 1x16
1 11 m 1x2a
 2 11 l 1x2a
 2 8 l 1x4a
 3 8 l 1
 3 5 l 1
 2 5 l 1x46
 2 8 l 1x4a
 1 8 l 1
 1 11 l 1x2a
3 5 m 1x46
 4 5 l 1x46
 4 0 l 1
 3 0 l 1x86
 3 5 l 1x46
4 5 m 1
 4 8 l 1
 5 8 l 1x42
 5 11 l 1
 6 11 l 1
 6 8 l 1x22
 5 8 l 1
 5 5 l 1
 4 5 l 1
EndSplineSet
Fore
Refer: 716 775 N 1 0 0 1 3 2 2
Refer: 716 775 N 1 0 0 1 1 2 2
EndChar

StartChar: ycircumflex
Encoding: 375 375 310
Width: 6
VWidth: 0
Flags: W
HStem: 10 1<3 5>
VStem: 3 2<10 11>
LayerCount: 2
Back
SplineSet
2 9 m 1x05
 3 9 l 1
 3 10 l 1x03
 2 10 l 1
 2 9 l 1x05
1 8 m 1x19
 2 8 l 1x19
 2 5 l 1x29
 3 5 l 1
 3 2 l 1
 2 2 l 1x25
 2 5 l 1x29
 1 5 l 1
 1 8 l 1x19
4 10 m 1x03
 4 9 l 1
 5 9 l 1
 5 10 l 1
 4 10 l 1x03
4 10 m 1
 3 10 l 1
 3 11 l 1
 4 11 l 1
 4 10 l 1
5 5 m 1x21
 5 8 l 1
 6 8 l 1
 6 5 l 1x11
 5 5 l 1x21
5 5 m 1x23
 5 2 l 1
 4 2 l 1
 4 5 l 1
 5 5 l 1x23
4 2 m 1
 4 -1 l 1
 3 -1 l 1x83
 3 2 l 1x25
 4 2 l 1
3 -1 m 1
 1 -1 l 1
 1 -2 l 1x4b
 3 -2 l 1
 3 -1 l 1
EndSplineSet
Fore
Refer: 711 770 S 1 0 0 1 1 0 2
EndChar

StartChar: Zacute
Encoding: 377 377 311
Width: 5
VWidth: 0
Flags: W
LayerCount: 2
Back
SplineSet
2 12 m 1x92
 3 12 l 1
 3 13 l 1x91
 2 13 l 1
 2 12 l 1x92
1 11 m 1xa480
 5 11 l 1
 5 9 l 1xc480
 4 9 l 1
 4 6 l 1xc1
 3 6 l 1xc2
 3 9 l 1
 4 9 l 1xc1
 4 10 l 1
 1 10 l 1
 1 11 l 1xa480
4 14 m 1x91
 4 15 l 1
 5 15 l 1
 5 14 l 1x8880
 4 14 l 1x91
4 14 m 1x91
 4 13 l 1
 3 13 l 1
 3 14 l 1
 4 14 l 1x91
3 6 m 1x82
 3 3 l 1x82
 2 3 l 1
 2 1 l 1
 5 1 l 1
 5 0 l 1
 1 0 l 1
 1 3 l 1
 2 3 l 1x8480
 2 6 l 1
 3 6 l 1x82
EndSplineSet
Fore
Refer: 710 769 S 1 0 0 1 1 4 2
EndChar

StartChar: Zdotaccent
Encoding: 379 379 312
Width: 3
VWidth: 0
Flags: W
HStem: 12 1<2 3>
VStem: 2 1<12 13>
LayerCount: 2
Back
SplineSet
2 12 m 1x96
 2 13 l 1
 3 13 l 1
 3 12 l 1
 2 12 l 1x96
1 11 m 1xba
 5 11 l 1
 5 9 l 1
 4 9 l 1
 4 6 l 1
 3 6 l 1
 3 9 l 1
 4 9 l 1xd6
 4 10 l 1
 1 10 l 1
 1 11 l 1xba
3 6 m 1
 3 3 l 1x96
 2 3 l 1
 2 1 l 1
 5 1 l 1
 5 0 l 1
 1 0 l 1
 1 3 l 1
 2 3 l 1x9a
 2 6 l 1
 3 6 l 1
EndSplineSet
Fore
Refer: 716 775 S 1 0 0 1 1 2 2
EndChar

StartChar: Zcaron
Encoding: 381 381 313
Width: 6
VWidth: 0
Flags: W
HStem: 13 1<1 2 3 4>
VStem: 1 1<13 14> 3 1<13 14>
LayerCount: 2
Back
SplineSet
1 14 m 1x9c
 2 14 l 1
 2 13 l 1
 1 13 l 1
 1 14 l 1x9c
1 11 m 1xbc
 5 11 l 1
 5 9 l 1
 4 9 l 1
 4 6 l 1
 3 6 l 1
 3 9 l 1
 4 9 l 1xdc
 4 10 l 1
 1 10 l 1
 1 11 l 1xbc
3 13 m 1
 3 14 l 1
 4 14 l 1
 4 13 l 1
 3 13 l 1
3 13 m 1
 2 13 l 1
 2 12 l 1
 3 12 l 1
 3 13 l 1
3 6 m 1
 3 3 l 1
 2 3 l 1
 2 1 l 1
 5 1 l 1
 5 0 l 1
 1 0 l 1
 1 3 l 1
 2 3 l 1
 2 6 l 1
 3 6 l 1
EndSplineSet
Fore
Refer: 721 780 N 1 0 0 1 0 3 2
EndChar

StartChar: zacute
Encoding: 378 378 314
Width: 6
VWidth: 0
Flags: W
HStem: 9 1<2 3> 10 1<3 4>
VStem: 2 1<9 10> 3 1<10 11>
LayerCount: 2
Back
SplineSet
2 9 m 1x0c
 3 9 l 1
 3 10 l 1x0a
 2 10 l 1
 2 9 l 1x0c
1 8 m 1x5a
 5 8 l 1
 5 6 l 1x2a
 4 6 l 1
 4 4 l 1x4a
 3 4 l 1x8c
 3 6 l 1
 4 6 l 1
 4 7 l 1
 1 7 l 1
 1 8 l 1x5a
3 4 m 1x8c
 3 2 l 1
 2 2 l 1
 2 4 l 1
 3 4 l 1x8c
2 2 m 1
 1 2 l 1
 1 0 l 1
 5 0 l 1
 5 1 l 1
 2 1 l 1
 2 2 l 1
3 10 m 1x0a
 3 11 l 1
 4 11 l 1
 4 10 l 1
 3 10 l 1x0a
EndSplineSet
Fore
Refer: 655 714 N 1 0 0 1 1 0 2
EndChar

StartChar: zdotaccent
Encoding: 380 380 315
Width: 3
VWidth: 0
Flags: W
HStem: 9 1<2 3>
VStem: 2 1<9 10>
LayerCount: 2
Back
SplineSet
2 9 m 1x0e
 2 10 l 1
 3 10 l 1
 3 9 l 1
 2 9 l 1x0e
1 8 m 1x5e
 5 8 l 1
 5 6 l 1x2e
 4 6 l 1
 4 4 l 1x4e
 3 4 l 1x8e
 3 6 l 1
 4 6 l 1
 4 7 l 1
 1 7 l 1
 1 8 l 1x5e
3 4 m 1x8e
 3 2 l 1
 2 2 l 1
 2 4 l 1
 3 4 l 1x8e
2 2 m 1
 1 2 l 1
 1 0 l 1
 5 0 l 1
 5 1 l 1
 2 1 l 1
 2 2 l 1
EndSplineSet
Fore
Refer: 716 775 S 1 0 0 1 1 -1 2
EndChar

StartChar: zcaron
Encoding: 382 382 316
Width: 6
VWidth: 0
Flags: W
HStem: 10 1<1 2 3 4>
VStem: 1 1<10 11> 3 1<10 11>
LayerCount: 2
Back
SplineSet
1 11 m 1x0c
 2 11 l 1
 2 10 l 1
 1 10 l 1
 1 11 l 1x0c
1 8 m 1x5d
 5 8 l 1
 5 6 l 1x2d
 4 6 l 1
 4 4 l 1x4d
 3 4 l 1x8a
 3 6 l 1
 4 6 l 1
 4 7 l 1
 1 7 l 1
 1 8 l 1x5d
3 10 m 1
 3 11 l 1
 4 11 l 1
 4 10 l 1
 3 10 l 1
3 10 m 1
 2 10 l 1x0d
 2 9 l 1x0a
 3 9 l 1
 3 10 l 1
3 4 m 1x8a
 3 2 l 1
 2 2 l 1
 2 4 l 1
 3 4 l 1x8a
2 2 m 1
 1 2 l 1
 1 0 l 1x8c
 5 0 l 1
 5 1 l 1
 2 1 l 1
 2 2 l 1
EndSplineSet
Fore
Refer: 721 780 N 1 0 0 1 0 0 2
EndChar

StartChar: longs
Encoding: 383 383 317
Width: 6
VWidth: 0
Flags: W
HStem: 0 21G<2 3> 5 1<1 2> 10 1<3 5>
VStem: 1 2<5 6> 2 1<0 5 6 10>
LayerCount: 2
Fore
SplineSet
1 6 m 1x50
 2 6 l 1
 2 10 l 1
 3 10 l 1
 3 11 l 1
 5 11 l 1
 5 10 l 1
 3 10 l 1x68
 3 0 l 1
 2 0 l 1x88
 2 5 l 1x48
 1 5 l 1
 1 6 l 1x50
EndSplineSet
Validated: 5
EndChar

StartChar: uni0180
Encoding: 384 384 318
Width: 5
VWidth: 0
Flags: W
HStem: 9 1<0 3>
VStem: 0 3<9 10>
LayerCount: 2
Back
SplineSet
3 8 m 1x0880
 4 8 l 1
 4 7 l 1
 5 7 l 1
 5 1 l 1x2880
 4 1 l 1
 4 0 l 1
 3 0 l 1x4080
 3 1 l 1x42
 4 1 l 1
 4 7 l 1x4880
 3 7 l 1x12
 3 8 l 1x0880
0 10 m 1x45
 1 10 l 1x45
 1 11 l 1
 2 11 l 1x81
 2 10 l 1
 3 10 l 1
 3 9 l 1
 2 9 l 1
 2 7 l 1x1580
 3 7 l 1
 3 6 l 1x16
 2 6 l 1
 2 2 l 1x35
 3 2 l 1x36
 3 1 l 1x42
 2 1 l 1x21
 2 0 l 1
 1 0 l 1
 1 9 l 1
 0 9 l 1
 0 10 l 1x45
EndSplineSet
Fore
Refer: 762 821 S 1 0 0 1 -1 4 2
EndChar

StartChar: uni0181
Encoding: 385 385 319
Width: 6
VWidth: 0
Flags: W
HStem: -10 20G<4 5> 0 1<2 4> 1 21G<4 5> 5 1<2 4> 9 2<-1 0> 10 1<0 1 2 4>
VStem: -1 2<10 11> -1 1<9 10> 1 1<1 5 6 10> 1 3<0 1 5 6 10 11> 4 1<1 5 6 10>
LayerCount: 2
Back
SplineSet
4 1 m 1x43
 4 5 l 1x53
 5 5 l 1x5240
 5 1 l 1x2240
 4 1 l 1x43
4 1 m 1
 4 0 l 1
 1 0 l 1x57
 1 10 l 1
 0 10 l 1x5680
 0 9 l 1
 -1 9 l 1
 -1 11 l 1x0a80
 1 11 l 1
 4 11 l 1x06c0
 4 10 l 1x82c0
 2 10 l 1
 2 6 l 1x16c0
 4 6 l 1
 4 5 l 1x17
 2 5 l 1
 2 1 l 1x5680
 4 1 l 1
4 6 m 1
 4 10 l 1
 5 10 l 1x8240
 5 6 l 1x1240
 4 6 l 1
EndSplineSet
Fore
SplineSet
-1 9 m 1x09
 -1 11 l 1x0a
 1 11 l 1
 1 10 l 1x06
 0 10 l 1x05
 0 9 l 1
 -1 9 l 1x09
EndSplineSet
Refer: 33 66 S 1 0 0 1 0 0 2
EndChar

StartChar: uni0182
Encoding: 386 386 320
Width: 6
VWidth: 0
Flags: W
HStem: 0 1<2 4> 1 21G<4 5> 5 1<2 4> 10 1<2 4>
VStem: 1 3<0 1 5 6 10 11> 1 1<1 5 6 10>
LayerCount: 2
Fore
SplineSet
4 11 m 1xb8
 4 10 l 1xb8
 2 10 l 1
 2 6 l 1xb4
 4 6 l 1
 4 5 l 1xb8
 2 5 l 1
 2 1 l 1xb4
 4 1 l 1
 4 0 l 1
 1 0 l 1
 1 11 l 1
 4 11 l 1xb8
5 5 m 1
 5 1 l 1x48
 4 1 l 1
 4 5 l 1
 5 5 l 1
EndSplineSet
EndChar

StartChar: uni0183
Encoding: 387 387 321
Width: 6
VWidth: 0
Flags: W
HStem: 10 1<1 4>
VStem: 1 3<10 11>
LayerCount: 2
Back
SplineSet
1 11 m 1x8a
 2 11 l 1
 4 11 l 1
 4 10 l 1
 2 10 l 1
 2 7 l 1xab
 3 7 l 1
 3 6 l 1xac
 2 6 l 1
 2 2 l 1x6a
 3 2 l 1x6c
 3 1 l 1x8c
 4 1 l 1
 4 0 l 1
 3 0 l 1x89
 3 1 l 1x8c
 2 1 l 1x4a
 2 0 l 1
 1 0 l 1
 1 11 l 1x8a
3 8 m 1x19
 4 8 l 1
 4 7 l 1
 5 7 l 1
 5 1 l 1x59
 4 1 l 1
 4 7 l 1x99
 3 7 l 1x2c
 3 8 l 1x19
1 11 m 1x8a
 2 11 l 1
 4 11 l 1
 4 10 l 1
 2 10 l 1
 2 7 l 1xab
 3 7 l 1
 3 6 l 1xac
 2 6 l 1
 2 2 l 1x6a
 3 2 l 1x6c
 3 1 l 1x8c
 4 1 l 1
 4 0 l 1
 3 0 l 1x89
 3 1 l 1x8c
 2 1 l 1x4a
 2 0 l 1
 1 0 l 1
 1 11 l 1x8a
3 8 m 1x19
 4 8 l 1
 4 7 l 1
 5 7 l 1
 5 1 l 1x59
 4 1 l 1
 4 7 l 1x99
 3 7 l 1x2c
 3 8 l 1x19
EndSplineSet
Fore
SplineSet
4 10 m 29
 1 10 l 25
 1 11 l 25
 4 11 l 25
 4 10 l 29
EndSplineSet
EndChar

StartChar: uni0184
Encoding: 388 388 322
Width: 6
VWidth: 0
Flags: W
HStem: -9 20G<1 2> 0 1<2 4> 1 21G<4 5> 5 1<2 4> 9 1<0 1>
VStem: 0 2<9 10> 1 3<0 1 5 6> 1 1<1 5 6 9 10 11>
LayerCount: 2
Fore
SplineSet
1 10 m 1x59
 1 11 l 1
 2 11 l 1x81
 2 6 l 1x11
 4 6 l 1
 4 5 l 1x12
 2 5 l 1
 2 1 l 1x51
 4 1 l 1
 4 0 l 1
 1 0 l 1x52
 1 9 l 1x59
 0 9 l 1
 0 10 l 1x5c
 1 10 l 1x59
5 5 m 1x52
 5 1 l 1x22
 4 1 l 1
 4 5 l 1
 5 5 l 1x52
EndSplineSet
EndChar

StartChar: uni0185
Encoding: 389 389 323
Width: 6
VWidth: 0
Flags: W
HStem: -9 20G<1 2> 0 1<3 4> 1 1<2 3> 6 1<2 3> 7 1<3 4> 9 1<0 1>
VStem: 0 2<9 10> 1 2<1 2 6 7> 1 1<0 1 2 6 7 9 10 11> 3 1<0 1 7 8>
LayerCount: 2
Back
SplineSet
3 8 m 1x0840
 4 8 l 1
 4 7 l 1
 5 7 l 1
 5 1 l 1x2840
 4 1 l 1
 4 7 l 1x4840
 3 7 l 1x11
 3 8 l 1x0840
1 11 m 1x8080
 2 11 l 1x8080
 2 7 l 1x1080
 3 7 l 1
 3 6 l 1x11
 2 6 l 1
 2 2 l 1x3080
 3 2 l 1x31
 3 1 l 1x41
 4 1 l 1
 4 0 l 1
 3 0 l 1x4040
 3 1 l 1x41
 2 1 l 1x2080
 2 0 l 1
 1 0 l 1
 1 9 l 1x4480
 0 9 l 1
 0 10 l 1x46
 1 10 l 1x4480
 1 11 l 1x8080
EndSplineSet
Fore
SplineSet
3 8 m 1x0840
 4 8 l 1
 4 7 l 1
 5 7 l 1
 5 1 l 1x2840
 4 1 l 1
 4 7 l 1x4840
 3 7 l 1x11
 3 8 l 1x0840
1 11 m 1x8080
 2 11 l 1x8080
 2 7 l 1x1080
 3 7 l 1
 3 6 l 1x11
 2 6 l 1
 2 2 l 1x3080
 3 2 l 1x31
 3 1 l 1x41
 4 1 l 1
 4 0 l 1
 3 0 l 1x4040
 3 1 l 1x41
 2 1 l 1x2080
 2 0 l 1
 1 0 l 1
 1 9 l 1x4480
 0 9 l 1
 0 10 l 1x46
 1 10 l 1x4480
 1 11 l 1x8080
EndSplineSet
EndChar

StartChar: uni0186
Encoding: 390 390 324
Width: 6
VWidth: 0
Flags: W
HStem: -11 21G<1 2 4 5> 0 1<2 4> 1 20G<1 2 4 5> 10 1<2 4>
VStem: 1 1<1 4 7 10> 2 2<0 1 10 11> 4 1<1 10>
LayerCount: 2
Back
SplineSet
2 10 m 1x88
 2 7 l 1
 1 7 l 1
 1 10 l 1
 2 10 l 1x88
2 10 m 1
 2 11 l 1
 4 11 l 1x14
 4 10 l 1x84
 2 10 l 1
4 10 m 1x84
 5 10 l 1x84
 5 1 l 1x24
 4 1 l 1x44
 4 10 l 1x84
2 1 m 1x48
 1 1 l 1x28
 1 4 l 1
 2 4 l 1
 2 1 l 1x48
2 1 m 1x48
 4 1 l 1
 4 0 l 1
 2 0 l 1x44
 2 1 l 1x48
EndSplineSet
Fore
Refer: 34 67 S -1 0 0 -1 6 11 2
EndChar

StartChar: uni0187
Encoding: 391 391 325
Width: 6
VWidth: 0
Flags: HW
HStem: 10 1<5 6>
VStem: 5 1<10 11>
LayerCount: 2
Back
SplineSet
6 11 m 1x70
 6 10 l 1
 5 10 l 1
 5 7 l 1
 4 7 l 1
 4 10 l 1
 2 10 l 1x70
 2 1 l 1
 1 1 l 1xb0
 1 10 l 1
 2 10 l 1
 2 11 l 1
 4 11 l 1
 4 10 l 1
 5 10 l 1
 5 11 l 1
 6 11 l 1x70
4 1 m 1xb0
 2 1 l 1
 2 0 l 1
 4 0 l 1
 4 1 l 1xb0
4 1 m 1
 4 4 l 1
 5 4 l 1
 5 1 l 1
 4 1 l 1
EndSplineSet
Fore
SplineSet
5 11 m 25
 6 11 l 25
 6 10 l 25
 5 10 l 25
 5 11 l 25
EndSplineSet
Refer: 34 67 S 1 0 0 1 0 0 2
EndChar

StartChar: uni0188
Encoding: 392 392 326
Width: 6
VWidth: 0
Flags: W
HStem: 7 1<5 6>
VStem: 5 1<7 8>
LayerCount: 2
Back
SplineSet
5 8 m 1x12
 6 8 l 1
 6 7 l 1x12
 5 7 l 1
 5 5 l 1
 4 5 l 1x22
 4 7 l 1x24
 2 7 l 1x18
 2 8 l 1
 4 8 l 1x14
 4 7 l 1x24
 5 7 l 1x22
 5 8 l 1x12
2 7 m 1x58
 2 1 l 1x98
 1 1 l 1
 1 7 l 1
 2 7 l 1x58
2 1 m 1
 4 1 l 1
 4 0 l 1
 2 0 l 1x84
 2 1 l 1
4 1 m 1
 4 3 l 1
 5 3 l 1
 5 1 l 1x42
 4 1 l 1
EndSplineSet
Fore
SplineSet
5 8 m 29
 6 8 l 25
 6 7 l 25
 5 7 l 25
 5 8 l 29
EndSplineSet
EndChar

StartChar: uni018A
Encoding: 394 394 328
Width: 6
VWidth: 0
Flags: HW
HStem: 9 2<-1 0> 10 1<0 1>
VStem: -1 2<10 11> -1 1<9 10>
LayerCount: 2
Back
SplineSet
4 1 m 1x4f
 4 0 l 1
 1 0 l 1
 1 10 l 1
 0 10 l 1x4f
 0 9 l 1
 -1 9 l 1
 -1 11 l 1x17
 1 11 l 1
 4 11 l 1x0f
 4 10 l 1x87
 2 10 l 1
 2 1 l 1
 4 1 l 1x4f
4 1 m 1
 4 10 l 1
 5 10 l 1x87
 5 1 l 1x27
 4 1 l 1
EndSplineSet
Fore
SplineSet
-1 9 m 25x90
 -1 11 l 25xa0
 1 11 l 25
 1 10 l 25x60
 0 10 l 25x50
 0 9 l 25
 -1 9 l 25x90
EndSplineSet
Refer: 35 68 S 1 0 0 1 0 0 2
EndChar

StartChar: uni018B
Encoding: 395 395 329
Width: 6
VWidth: 0
Flags: W
HStem: 0 1<2 4> 5 1<2 4> 10 1<2 4>
VStem: 1 1<1 5> 2 3<0 1 5 6 10 11> 4 1<1 5 6 10>
CounterMasks: 1 e0
LayerCount: 2
Fore
SplineSet
2 11 m 1xe8
 5 11 l 1
 5 0 l 1
 2 0 l 1xe8
 2 1 l 1
 1 1 l 1
 1 5 l 1
 2 5 l 1
 2 1 l 1
 4 1 l 1
 4 5 l 1
 2 5 l 1xf4
 2 6 l 1xe8
 4 6 l 1
 4 10 l 1xe4
 2 10 l 1
 2 11 l 1xe8
EndSplineSet
Validated: 5
EndChar

StartChar: uni018C
Encoding: 396 396 330
Width: 6
VWidth: 0
Flags: W
HStem: 10 1<2 5>
VStem: 2 3<10 11>
LayerCount: 2
Back
SplineSet
5 11 m 1x6b
 5 0 l 1
 4 0 l 1x83
 4 1 l 1
 3 1 l 1
 3 2 l 1
 4 2 l 1
 4 6 l 1
 3 6 l 1
 3 7 l 1
 4 7 l 1
 4 10 l 1
 2 10 l 1
 2 11 l 1
 4 11 l 1
 5 11 l 1x6b
2 1 m 1x45
 2 0 l 1
 3 0 l 1x83
 3 1 l 1x43
 2 1 l 1x45
2 1 m 1x55
 1 1 l 1
 1 7 l 1
 2 7 l 1
 2 1 l 1x55
2 7 m 1
 2 8 l 1
 3 8 l 1x13
 3 7 l 1x23
 2 7 l 1
EndSplineSet
Fore
SplineSet
2 10 m 29
 2 11 l 25
 5 11 l 25
 5 10 l 25
 2 10 l 29
EndSplineSet
EndChar

StartChar: uni018E
Encoding: 398 398 331
Width: 6
VWidth: 0
Flags: W
HStem: 0 1<1 4> 5 1<2 4> 10 1<1 4>
VStem: 4 1<1 5 6 10>
CounterMasks: 1 e0
LayerCount: 2
Back
SplineSet
5 11 m 1
 5 0 l 1
 1 0 l 1
 1 1 l 1
 4 1 l 1
 4 5 l 1
 2 5 l 1
 2 6 l 1
 4 6 l 1
 4 10 l 1
 1 10 l 1
 1 11 l 1
 5 11 l 1
EndSplineSet
Fore
Refer: 36 69 S -1 0 0 -1 6 11 2
EndChar

StartChar: uni018F
Encoding: 399 399 332
Width: 6
VWidth: 0
Flags: W
HStem: -10 20G<4 5> 0 1<2 4> 1 21G<1 2 4 5> 5 1<2 4> 10 1<2 4>
VStem: 1 1<1 5> 2 2<0 1 10 11> 4 1<1 5 6 10>
LayerCount: 2
Fore
SplineSet
2 10 m 1x0a
 1 10 l 1
 1 9 l 1x0c
 2 9 l 1
 2 10 l 1x0a
2 10 m 1x0a
 2 11 l 1
 4 11 l 1x0a
 4 10 l 1x82
 2 10 l 1x0a
4 10 m 1x82
 5 10 l 1x81
 5 1 l 1x21
 4 1 l 1x42
 4 5 l 1
 2 5 l 1
 2 1 l 1x55
 1 1 l 1x25
 1 6 l 1
 4 6 l 1x15
 4 10 l 1x82
2 1 m 1x44
 4 1 l 1
 4 0 l 1
 2 0 l 1x42
 2 1 l 1x44
EndSplineSet
Validated: 5
EndChar

StartChar: uni0190
Encoding: 400 400 333
Width: 6
VWidth: 0
Flags: W
HStem: 1 1<4 5> 9 1<4 5> 10 1<2 4>
VStem: 1 1<1 5 6 10> 4 1<1 2 9 10>
LayerCount: 2
Fore
SplineSet
4 1 m 1x98
 4 2 l 1
 5 2 l 1
 5 1 l 1
 4 1 l 1x98
4 1 m 1
 2 1 l 1
 2 0 l 1
 4 0 l 1
 4 1 l 1
2 1 m 1
 1 1 l 1
 1 5 l 1
 2 5 l 1
 2 1 l 1
2 5 m 1
 4 5 l 1
 4 6 l 1
 2 6 l 1
 2 5 l 1
2 6 m 1
 1 6 l 1
 1 10 l 1
 2 10 l 1xb8
 2 6 l 1
4 10 m 1xd8
 5 10 l 1
 5 9 l 1
 4 9 l 1
 4 10 l 1xd8
4 10 m 1
 2 10 l 1
 2 11 l 1
 4 11 l 1xb8
 4 10 l 1
EndSplineSet
Validated: 5
EndChar

StartChar: uni0191
Encoding: 401 401 334
Width: 6
VWidth: 0
Flags: W
HStem: 1 21G<1 2> 5 1<2 4> 10 1<2 5>
VStem: 1 1<1 5 6 10>
LayerCount: 2
Fore
SplineSet
1 11 m 1x30
 5 11 l 1
 5 10 l 1
 2 10 l 1
 2 6 l 1
 4 6 l 1
 4 5 l 1
 2 5 l 1x70
 2 1 l 1
 1 1 l 1x90
 1 11 l 1x30
1 1 m 1x90
 0 1 l 1
 0 0 l 1
 1 0 l 1
 1 1 l 1x90
EndSplineSet
EndChar

StartChar: florin
Encoding: 402 402 335
Width: 6
VWidth: 0
Flags: W
HStem: -10 20G<2 3> 1 21G<2 3> 5 1<1 2 3 5>
VStem: 2 1<1 5 6 10>
LayerCount: 2
Fore
SplineSet
1 6 m 1x30
 2 6 l 1x30
 2 10 l 1
 3 10 l 1x90
 3 6 l 1
 5 6 l 1
 5 5 l 1
 3 5 l 1x30
 3 1 l 1
 2 1 l 1x50
 2 5 l 1
 1 5 l 1
 1 6 l 1x30
2 1 m 1x50
 1 1 l 1
 1 0 l 1
 2 0 l 1
 2 1 l 1x50
3 10 m 1x90
 3 11 l 1
 5 11 l 1
 5 10 l 1
 3 10 l 1x90
EndSplineSet
EndChar

StartChar: uni0193
Encoding: 403 403 336
Width: 6
VWidth: 0
Flags: W
HStem: -10 20G<1 2 4 5> 0 1<2 4> 1 21G<1 2 4 5> 4 1<3 4> 7 21G<4 5> 10 1<2 4 5 6>
VStem: 1 1<1 10> 2 2<0 1 10 11> 4 1<1 4 7 10> 5 1<10 11>
LayerCount: 2
Back
SplineSet
4 10 m 1x0d
 2 10 l 1x85
 2 11 l 1
 4 11 l 1
 4 10 l 1x0d
4 10 m 1x0d
 5 10 l 1
 5 11 l 1
 6 11 l 1
 6 10 l 1
 5 10 l 1x0d
 5 7 l 1
 4 7 l 1x15
 4 10 l 1x0d
2 10 m 1x84
 2 1 l 1
 1 1 l 1x44
 1 10 l 1
 2 10 l 1x84
4 1 m 1x45
 4 4 l 1x25
 3 4 l 1
 3 5 l 1
 5 5 l 1x26
 5 1 l 1
 4 1 l 1x45
4 1 m 1x45
 2 1 l 1
 2 0 l 1
 4 0 l 1
 4 1 l 1x45
EndSplineSet
Fore
SplineSet
5 11 m 1x0440
 6 11 l 1
 6 10 l 1x0440
 5 10 l 1x8080
 5 11 l 1x0440
EndSplineSet
Refer: 38 71 S 1 0 0 1 0 0 2
EndChar

StartChar: uni0195
Encoding: 405 405 337
Width: 9
VWidth: 0
Flags: W
HStem: -9 20G<1 2> 0 1<5 7> 1 21G<4 5 7 8> 6 1<2 3> 7 1<3 4>
VStem: 1 2<6 7> 1 1<0 6 7 11> 4 1<1 7> 5 2<0 1> 7 1<1 8>
LayerCount: 2
Fore
SplineSet
2 11 m 1x82
 2 7 l 1x12
 3 7 l 1
 3 6 l 1x14
 2 6 l 1
 2 0 l 1
 1 0 l 1x52
 1 11 l 1
 2 11 l 1x82
7 1 m 1x4080
 7 0 l 1
 5 0 l 1x4080
 5 1 l 1x41
 7 1 l 1x4080
7 1 m 1
 7 8 l 1
 8 8 l 1x4840
 8 1 l 1x2040
 7 1 l 1
5 1 m 1x49
 4 1 l 1x21
 4 7 l 1
 5 7 l 1
 5 1 l 1x49
4 7 m 1x0d
 3 7 l 1x15
 3 8 l 1
 4 8 l 1
 4 7 l 1x0d
EndSplineSet
EndChar

StartChar: uni0197
Encoding: 407 407 338
Width: 3
VWidth: 0
Flags: HW
HStem: 5 1<0 3>
VStem: 0 3<5 6>
LayerCount: 2
Back
SplineSet
1 11 m 1x90
 2 11 l 1x90
 2 6 l 1
 3 6 l 1
 3 5 l 1
 2 5 l 1x30
 2 0 l 1
 1 0 l 1x50
 1 5 l 1
 0 5 l 1
 0 6 l 1
 1 6 l 1x30
 1 11 l 1x90
EndSplineSet
Fore
Refer: 40 73 N 1 0 0 1 0 0 2
Refer: 762 821 N 1 0 0 1 -1 0 2
EndChar

StartChar: uni0198
Encoding: 408 408 339
Width: 13
VWidth: 0
Flags: W
HStem: 9 1<6 7> 10 1<5 6>
VStem: 5 1<10 11> 6 1<9 10>
LayerCount: 2
Back
SplineSet
1 11 m 1x0a
 2 11 l 1
 2 7 l 1x2a
 3 7 l 1x2c
 3 9 l 1
 4 9 l 1
 4 7 l 1x29
 3 7 l 1
 3 5 l 1x6c
 4 5 l 1
 4 3 l 1x69
 5 3 l 1x6880
 5 0 l 1
 4 0 l 1x8080
 4 3 l 1
 3 3 l 1x41
 3 5 l 1x44
 2 5 l 1x42
 2 0 l 1
 1 0 l 1x82
 1 11 l 1x0a
4 9 m 1x21
 4 11 l 1x1080
 6 11 l 1
 6 10 l 1
 5 10 l 1x0880
 5 9 l 1x1080
 4 9 l 1x21
6 10 m 1x08
 6 9 l 1
 7 9 l 1x10
 7 10 l 1
 6 10 l 1x08
EndSplineSet
Fore
SplineSet
6 9 m 29x90
 6 10 l 25xa0
 7 10 l 25
 7 9 l 25
 6 9 l 29x90
6 10 m 25
 5 10 l 25
 5 11 l 25
 6 11 l 25x60
 6 10 l 25
EndSplineSet
EndChar

StartChar: uni0199
Encoding: 409 409 340
Width: 6
VWidth: 0
Flags: W
HStem: -10 20G<1 2> 0 2<4 5> 6 1<3 4> 7 1<4 5> 10 1<2 4>
VStem: 1 2<5 6> 1 1<0 5 6 10> 3 1<2 5 6 7> 4 1<0 2 7 8>
LayerCount: 2
Fore
SplineSet
4 2 m 1x41
 3 2 l 1x41
 3 5 l 1x44
 4 5 l 1
 4 2 l 1x41
4 2 m 1
 5 2 l 1
 5 0 l 1
 4 0 l 1x4080
 4 2 l 1
2 10 m 1x8280
 2 11 l 1
 4 11 l 1
 4 10 l 1x0a80
 2 10 l 1x8280
2 10 m 1x82
 2 6 l 1x22
 3 6 l 1
 3 5 l 1x24
 2 5 l 1
 2 0 l 1
 1 0 l 1x62
 1 10 l 1
 2 10 l 1x82
3 6 m 1x24
 3 7 l 1
 4 7 l 1
 4 6 l 1x21
 3 6 l 1x24
4 7 m 1
 4 8 l 1
 5 8 l 1
 5 7 l 1x1080
 4 7 l 1
EndSplineSet
EndChar

StartChar: uni019A
Encoding: 410 410 341
Width: 5
VWidth: 0
Flags: W
HStem: 5 1<0 3>
VStem: 0 3<5 6>
LayerCount: 2
Back
SplineSet
1 11 m 1x90
 2 11 l 1x90
 2 6 l 1
 3 6 l 1
 3 5 l 1
 2 5 l 1x30
 2 0 l 1
 1 0 l 1x50
 1 5 l 1
 0 5 l 1
 0 6 l 1
 1 6 l 1x30
 1 11 l 1x90
EndSplineSet
Fore
Refer: 762 821 S 1 0 0 1 -1 0 2
EndChar

StartChar: uni019C
Encoding: 412 412 342
Width: 7
VWidth: 0
Flags: W
HStem: -9 20G<1 2 3 4 5 6> 0 1<4 5>
VStem: 1 1<1 11> 3 1<1 11> 4 2<0 1> 5 1<1 11>
LayerCount: 2
Fore
SplineSet
6 11 m 1xb4
 6 0 l 1
 4 0 l 1x68
 4 1 l 1
 3 1 l 1x70
 3 11 l 1
 4 11 l 1xb0
 4 1 l 1
 5 1 l 1x74
 5 11 l 1
 6 11 l 1xb4
3 1 m 1x70
 2 1 l 1
 2 0 l 1
 3 0 l 1
 3 1 l 1x70
2 1 m 1
 1 1 l 1x60
 1 11 l 1
 2 11 l 1xa0
 2 1 l 1
EndSplineSet
Validated: 5
EndChar

StartChar: uni019D
Encoding: 413 413 343
Width: 6
VWidth: 0
Flags: W
HStem: -9 20G<1 2 4 5> -2 1<0 1> -1 1<1 2> 0 21G<1 2 4 5>
VStem: 0 1<-2 -1> 1 1<-1 0 0 6 9 11> 1 2<6 9> 4 1<0 3 6 11>
LayerCount: 2
Back
SplineSet
0 -1 m 1x70
 0 -2 l 1
 1 -2 l 1
 1 -1 l 1
 0 -1 l 1x70
3 6 m 1
 4 6 l 1
 4 11 l 1
 5 11 l 1xb0
 5 0 l 1
 4 0 l 1
 4 3 l 1
 3 3 l 1
 3 6 l 1
3 6 m 1
 2 6 l 1
 2 3.33066907388e-16 l 1
 2 -1 l 1
 1 -1 l 1x70
 1 11 l 1
 2 11 l 1
 2 9 l 1
 3 9 l 1
 3 6 l 1
EndSplineSet
Fore
SplineSet
0 -2 m 1x49
 0 -1 l 1
 1 -1 l 1
 1 -2 l 1
 0 -2 l 1x49
1 -1 m 1
 1 0 l 1
 2 0 l 1
 2 -1 l 1x25
 1 -1 l 1
EndSplineSet
Refer: 45 78 S 1 0 0 1 0 0 2
EndChar

StartChar: uni019E
Encoding: 414 414 344
Width: 6
VWidth: 0
Flags: W
HStem: -2 3<4 5>
VStem: 4 1<-2 1>
LayerCount: 2
Back
SplineSet
1 8 m 1x14
 2 8 l 1x14
 2 7 l 1x24
 3 7 l 1x28
 3 8 l 1
 4 8 l 1
 4 7 l 1
 5 7 l 1x18
 5 -2 l 1
 4 -2 l 1x88
 4 7 l 1x18
 3 7 l 1
 3 6 l 1x28
 2 6 l 1x24
 2 0 l 1
 1 0 l 1x44
 1 8 l 1x14
EndSplineSet
Fore
Refer: 750 809 N 1 0 0 1 3 1 2
EndChar

StartChar: Ohorn
Encoding: 416 416 345
Width: 6
VWidth: 0
Flags: W
HStem: -10 20G<1 2 4 5> 0 1<2 4> 1 21G<1 2 4 5> 10 1<2 4>
VStem: 1 1<1 10> 2 2<0 1 10 11>
LayerCount: 2
Back
SplineSet
6 9 m 1x3c
 6 10 l 1
 7 10 l 1
 7 8 l 1x4c
 5 8 l 1x2c
 5 1 l 1
 4 1 l 1x8c
 4 10 l 1
 5 10 l 1
 5 9 l 1
 6 9 l 1x3c
2 1 m 1x8c
 1 1 l 1x8c
 1 10 l 1
 2 10 l 1x1c
 2 1 l 1x8c
2 1 m 1
 2 0 l 1
 4 0 l 1
 4 1 l 1
 2 1 l 1
2 10 m 1x1c
 2 11 l 1
 4 11 l 1
 4 10 l 1
 2 10 l 1x1c
EndSplineSet
Fore
Refer: 46 79 S 1 0 0 1 0 0 2
Refer: 736 795 S 1 0 0 1 4 -1 2
EndChar

StartChar: ohorn
Encoding: 417 417 346
Width: 8
VWidth: 0
Flags: W
LayerCount: 2
Back
SplineSet
6 7 m 1x5c
 6 8 l 1
 7 8 l 1x3c
 7 6 l 1
 5 6 l 1x5c
 5 1 l 1
 4 1 l 1x9c
 4 7 l 1
 2 7 l 1
 2 8 l 1
 4 8 l 1
 4 7 l 1x3c
 5 7 l 1
 6 7 l 1x5c
1 1 m 1x9c
 1 7 l 1
 2 7 l 1x3c
 2 1 l 1
 1 1 l 1x9c
4 1 m 1x9c
 2 1 l 1
 2 0 l 1
 4 0 l 1
 4 1 l 1x9c
EndSplineSet
Fore
Refer: 736 795 N 1 0 0 1 4 -3 2
EndChar

StartChar: uni01A4
Encoding: 420 420 347
Width: 6
VWidth: 0
Flags: W
HStem: 9 2<-1 0> 10 1<0 1>
VStem: -1 2<10 11> -1 1<9 10>
LayerCount: 2
Back
SplineSet
4 6 m 1x26
 4 10 l 1
 5 10 l 1x86
 5 6 l 1
 4 6 l 1x26
4 6 m 1x2e
 4 5 l 1
 2 5 l 1x2e
 2 0 l 1
 1 0 l 1x46
 1 10 l 1
 0 10 l 1x0e
 0 9 l 1
 -1 9 l 1
 -1 11 l 1x16
 1 11 l 1
 4 11 l 1x0e
 4 10 l 1x86
 2 10 l 1
 2 6 l 1
 4 6 l 1x2e
EndSplineSet
Fore
SplineSet
-1 9 m 29x90
 -1 11 l 25xa0
 1 11 l 25
 1 10 l 25x60
 0 10 l 25x50
 0 9 l 25
 -1 9 l 29x90
EndSplineSet
EndChar

StartChar: uni01A5
Encoding: 421 421 348
Width: 6
VWidth: 0
Flags: W
HStem: 8 1<1 2> 9 1<2 4>
VStem: 1 1<8 9> 2 2<9 10>
LayerCount: 2
Back
SplineSet
2 9 m 1x83
 2 10 l 1
 4 10 l 1
 4 9 l 1x0b
 2 9 l 1x83
2 9 m 1x83
 2 8 l 1
 2 7 l 1x13
 3 7 l 1
 3 6 l 1x15
 2 6 l 1
 2 2 l 1x33
 3 2 l 1
 3 1 l 1x35
 2 1 l 1x33
 2 -2 l 1
 1 -2 l 1x43
 1 8 l 1
 1 9 l 1
 2 9 l 1x83
3 1 m 1x25
 3 0 l 1
 4 0 l 1
 4 1 l 1
 3 1 l 1x25
3 7 m 1x15
 4 7 l 1
 4 8 l 1
 3 8 l 1
 3 7 l 1x15
4 1 m 1x31
 4 7 l 1
 5 7 l 1
 5 1 l 1
 4 1 l 1x31
EndSplineSet
Fore
SplineSet
1 8 m 29xa0
 1 9 l 25
 2 9 l 25xa0
 2 10 l 25
 4 10 l 25
 4 9 l 25x50
 2 9 l 25
 2 8 l 25
 1 8 l 29xa0
EndSplineSet
EndChar

StartChar: uni01A7
Encoding: 423 423 349
Width: 6
VWidth: 0
Flags: W
HStem: 0 1<2 4> 1 2<4 5> 5 1<2 4> 8 2<1 2> 10 1<2 4>
VStem: 1 1<1 5 8 10> 2 2<0 1 5 6 10 11> 4 1<1 3 6 10>
LayerCount: 2
Fore
SplineSet
5 3 m 1x61
 5 1 l 1x61
 4 1 l 1
 4 0 l 1
 2 0 l 1xa2
 2 1 l 1xa4
 4 1 l 1xa2
 4 3 l 1
 5 3 l 1x61
2 1 m 1xa4
 1 1 l 1x64
 1 5 l 1
 2 5 l 1
 2 1 l 1xa4
2 5 m 1
 2 6 l 1
 4 6 l 1
 4 5 l 1x22
 2 5 l 1
4 6 m 1
 4 10 l 1x2a
 5 10 l 1
 5 6 l 1x29
 4 6 l 1
4 10 m 1
 2 10 l 1
 2 8 l 1
 1 8 l 1
 1 10 l 1
 2 10 l 1x34
 2 11 l 1
 4 11 l 1
 4 10 l 1
EndSplineSet
Validated: 5
EndChar

StartChar: uni01A8
Encoding: 424 424 350
Width: 6
VWidth: 0
Flags: W
HStem: 0 1<2 4> 1 2<4 5> 4 1<2 4> 5 2<4 5> 6 1<1 2> 7 1<2 4>
VStem: 1 1<1 4 6 7> 2 2<0 1 4 5 7 8> 4 1<1 3 5 7>
LayerCount: 2
Fore
SplineSet
5 3 m 1x4080
 5 1 l 1x4080
 4 1 l 1x81
 4 3 l 1
 5 3 l 1x4080
2 7 m 1x0a
 2 6 l 1
 1 6 l 1
 1 7 l 1
 2 7 l 1x0a
2 7 m 1
 2 8 l 1
 4 8 l 1x05
 4 7 l 1x11
 2 7 l 1
4 7 m 1x11
 5 7 l 1
 5 5 l 1x1080
 4 5 l 1x21
 4 7 l 1x11
4 5 m 1x21
 4 4 l 1x21
 2 4 l 1x22
 2 5 l 1
 4 5 l 1x21
2 4 m 1x62
 2 1 l 1xa2
 1 1 l 1
 1 4 l 1
 2 4 l 1x62
2 1 m 1
 4 1 l 1
 4 0 l 1
 2 0 l 1x81
 2 1 l 1
EndSplineSet
EndChar

StartChar: uni01AB
Encoding: 427 427 351
Width: 0
VWidth: 0
Flags: W
HStem: -2 1<2 4> -1 1<4 5>
VStem: 2 2<-2 -1> 4 1<-1 0>
LayerCount: 2
Back
SplineSet
3 -1 m 1x24
 4 -1 l 1x24
 4 0 l 1
 5 0 l 1
 5 -2 l 1x44
 3 -2 l 1
 3 -1 l 1x24
2 11 m 1x84
 3 11 l 1x84
 3 8 l 1
 5 8 l 1
 5 7 l 1
 3 7 l 1x0c
 3 1 l 1
 2 1 l 1x14
 2 7 l 1
 1 7 l 1
 1 8 l 1
 2 8 l 1x0c
 2 11 l 1x84
5 0 m 1x54
 5 1 l 1
 3 1 l 1
 3 0 l 1
 4 0 l 1
 5 0 l 1x54
EndSplineSet
Fore
Refer: 742 801 S 1 0 0 1 1 0 2
EndChar

StartChar: uni01AC
Encoding: 428 428 352
Width: 7
VWidth: 0
Flags: W
HStem: 0 21G<3 4> 9 1<1 2> 10 1<2 3 4 6>
VStem: 1 1<9 10> 3 1<0 10>
LayerCount: 2
Fore
SplineSet
2 10 m 1x58
 2 9 l 1
 1 9 l 1
 1 10 l 1
 2 10 l 1x58
2 10 m 1
 2 11 l 1
 6 11 l 1
 6 10 l 1
 4 10 l 1x38
 4 0 l 1
 3 0 l 1x98
 3 10 l 1x38
 2 10 l 1
EndSplineSet
EndChar

StartChar: uni01AE
Encoding: 430 430 353
Width: 0
VWidth: 0
Flags: W
HStem: -2 1<4 6> -1 1<3 4>
VStem: 3 1<-1 0> 4 2<-2 -1>
LayerCount: 2
Back
SplineSet
1 11 m 1x30
 6 11 l 1
 6 10 l 1
 4 10 l 1x30
 4 0 l 1
 4 -1 l 1
 3 -1 l 1x90
 3 0 l 1
 3 10 l 1
 1 10 l 1
 1 11 l 1x30
4 -1 m 1x90
 4 -2 l 1
 5 -2 l 1
 5 -1 l 1x50
 4 -1 l 1x90
EndSplineSet
Fore
Refer: 743 802 S 1 0 0 1 2 0 2
EndChar

StartChar: uni01AD
Encoding: 429 429 354
Width: 6
VWidth: 0
Flags: W
HStem: 10 1<3 5>
VStem: 3 2<10 11>
LayerCount: 2
Back
SplineSet
3 10 m 1x88
 3 11 l 1
 5 11 l 1
 5 10 l 1x84
 3 10 l 1x88
3 10 m 1x88
 3 8 l 1x18
 5 8 l 1
 5 7 l 1x14
 3 7 l 1
 3 1 l 1x58
 2 1 l 1x28
 2 7 l 1
 1 7 l 1
 1 8 l 1
 2 8 l 1x18
 2 10 l 1
 3 10 l 1x88
3 1 m 1x48
 5 1 l 1
 5 0 l 1
 3 0 l 1x44
 3 1 l 1x48
EndSplineSet
Fore
SplineSet
3 10 m 29
 3 11 l 25
 5 11 l 25
 5 10 l 25
 3 10 l 29
EndSplineSet
EndChar

StartChar: Uhorn
Encoding: 431 431 355
Width: 8
VWidth: 0
Flags: W
LayerCount: 2
Back
SplineSet
6 11 m 1x58
 7 11 l 1
 7 9 l 1x58
 5 9 l 1x38
 5 1 l 1
 4 1 l 1x98
 4 11 l 1
 5 11 l 1x58
 5 10 l 1
 6 10 l 1x38
 6 11 l 1x58
1 11 m 1
 2 11 l 1x58
 2 1 l 1
 1 1 l 1x98
 1 11 l 1
4 1 m 1x98
 2 1 l 1
 2 0 l 1
 4 0 l 1
 4 1 l 1x98
EndSplineSet
Fore
Refer: 736 795 N 1 0 0 1 4 0 2
EndChar

StartChar: uhorn
Encoding: 432 432 356
Width: 8
VWidth: 0
Flags: W
LayerCount: 2
Back
SplineSet
6 7 m 1x1a
 6 8 l 1
 7 8 l 1
 7 6 l 1x2a
 5 6 l 1x1a
 5 0 l 1
 4 0 l 1x8a
 4 1 l 1x4a
 3 1 l 1
 3 2 l 1x4c
 4 2 l 1
 4 8 l 1
 5 8 l 1x6a
 5 7 l 1
 6 7 l 1x1a
1 8 m 1
 2 8 l 1
 2 1 l 1
 1 1 l 1x68
 1 8 l 1
3 1 m 1x4c
 2 1 l 1x4c
 2 0 l 1
 3 0 l 1x8c
 3 1 l 1x4c
EndSplineSet
Fore
Refer: 736 795 N 1 0 0 1 4 -3 2
EndChar

StartChar: uni01B2
Encoding: 434 434 357
Width: 7
VWidth: 0
Flags: W
HStem: -11 20G<5 6> -9 20G<1 2> 0 2<3 4> 9 1<4 5>
VStem: 1 1<6 11> 2 1<2 6> 4 1<2 6 9 10>
LayerCount: 2
Fore
SplineSet
1 11 m 1x4a
 2 11 l 1
 2 6 l 1x4a
 3 6 l 1
 3 2 l 1
 4 2 l 1x26
 4 6 l 1
 5 6 l 1
 5 9 l 1
 6 9 l 1x86
 6 6 l 1
 5 6 l 1
 5 2 l 1
 4 2 l 1
 4 0 l 1
 3 0 l 1
 3 2 l 1
 2 2 l 1x26
 2 6 l 1
 1 6 l 1
 1 11 l 1x4a
4 10 m 1x12
 5 10 l 1x12
 5 9 l 1x82
 4 9 l 1
 4 10 l 1x12
EndSplineSet
Validated: 5
EndChar

StartChar: uni01B3
Encoding: 435 435 358
Width: 7
VWidth: 0
Flags: W
HStem: 0 21G<3 4> 5 3<2 3 4 5> 9 1<7 8> 10 1<6 7>
VStem: 1 1<8 11> 2 1<5 8> 3 1<0 5> 4 1<5 8> 5 1<8 10> 6 1<10 11> 7 1<9 10>
LayerCount: 2
Fore
SplineSet
1 11 m 1x58
 2 11 l 1
 2 8 l 1x58
 3 8 l 1
 3 5 l 1
 2 5 l 1x54
 2 8 l 1
 1 8 l 1
 1 11 l 1x58
3 5 m 1x44
 4 5 l 1x42
 4 0 l 1
 3 0 l 1x82
 3 5 l 1x44
4 5 m 1
 4 8 l 1
 5 8 l 1
 5 5 l 1x41
 4 5 l 1
5 8 m 1
 5 10 l 1
 6 10 l 1
 6 8 l 1x5080
 5 8 l 1
7 10 m 1x2040
 8 10 l 1
 8 9 l 1
 7 9 l 1x2020
 7 10 l 1x2040
7 10 m 1x2040
 6 10 l 1x1080
 6 11 l 1
 7 11 l 1x1040
 7 10 l 1x2040
EndSplineSet
Validated: 5
EndChar

StartChar: uni01B4
Encoding: 436 436 359
Width: 7
VWidth: 0
Flags: W
HStem: -1 21G<3 4> -1 21G<3 4> 2 3<2 3 4 5> 6 1<7 8> 7 1<6 7>
VStem: 1 1<5 8> 2 1<2 5> 3 1<-1 2> 4 1<2 5> 5 1<5 7> 6 1<7 8> 7 1<6 7>
LayerCount: 2
Fore
SplineSet
1 8 m 1x2c
 2 8 l 1
 2 5 l 1x2c
 3 5 l 1
 3 2 l 1
 2 2 l 1x2a
 2 5 l 1
 1 5 l 1
 1 8 l 1x2c
5 5 m 1x2080
 5 2 l 1x2080
 4 2 l 1x21
 4 5 l 1
 5 5 l 1x2080
5 5 m 1
 5 7 l 1
 6 7 l 1
 6 5 l 1x2840
 5 5 l 1
7 7 m 1x1020
 8 7 l 1
 8 6 l 1
 7 6 l 1x1010
 7 7 l 1x1020
7 7 m 1x1020
 6 7 l 1x0840
 6 8 l 1
 7 8 l 1x0820
 7 7 l 1x1020
4 2 m 1x21
 4 -1 l 1
 3 -1 l 1x81
 3 2 l 1x22
 4 2 l 1x21
3 -1 m 1
 1 -1 l 1
 1 -2 l 1x45
 3 -2 l 1
 3 -1 l 1
EndSplineSet
Validated: 5
EndChar

StartChar: uni01B5
Encoding: 437 437 360
Width: 5
VWidth: 0
Flags: HW
HStem: 5 1<1.33333 5.33332>
VStem: 1.33333 3.99999<5 6>
LayerCount: 2
Back
SplineSet
1 11 m 1xe4
 5 11 l 1
 5 8 l 1xe4
 4 8 l 1
 4 6 l 1xc8
 5 6 l 1
 5 5 l 1
 3 5 l 1
 3 3 l 1xd4
 2 3 l 1
 2 1 l 1
 5 1 l 1
 5 0 l 1
 1 0 l 1
 1 3 l 1
 2 3 l 1xe4
 2 5 l 1xd0
 1 5 l 1
 1 6 l 1
 3 6 l 1
 3 8 l 1
 4 8 l 1xe8
 4 10 l 1
 1 10 l 1
 1 11 l 1xe4
EndSplineSet
Fore
Refer: 762 821 S 1.33333 0 0 1 -0.33301 0 2
EndChar

StartChar: uni01B6
Encoding: 438 438 361
Width: 5
VWidth: 0
Flags: HW
HStem: 4 1<1.33333 5.33332>
VStem: 1.33333 3.99999<4 5>
LayerCount: 2
Back
SplineSet
1 8 m 1x2c80
 5 8 l 1
 5 6 l 1x2c80
 4 6 l 1x29
 4 5 l 1x19
 5 5 l 1
 5 4 l 1x1880
 3 4 l 1
 3 2 l 1xaa80
 2 2 l 1xac
 2 1 l 1
 5 1 l 1
 5 0 l 1x4c80
 1 0 l 1
 1 2 l 1
 2 2 l 1x8c80
 2 4 l 1x9a
 1 4 l 1
 1 5 l 1
 3 5 l 1x9d
 3 6 l 1
 4 6 l 1x2d
 4 7 l 1
 1 7 l 1
 1 8 l 1x2c80
EndSplineSet
Fore
Refer: 762 821 S 1.33333 0 0 1 -0.33301 -1 2
EndChar

StartChar: uni01BB
Encoding: 443 443 362
Width: 5
VWidth: 0
Flags: HW
HStem: 5 1<1.33333 5.33332>
VStem: 1.33333 3.99999<5 6>
LayerCount: 2
Back
SplineSet
4 10 m 1x8680
 2 10 l 1x8a80
 2 11 l 1
 4 11 l 1
 4 10 l 1x8680
4 10 m 1xc680
 5 10 l 1xc680
 5 7 l 1x9280
 4 7 l 1xc3
 4 10 l 1xc680
4 7 m 1xc3
 4 6 l 1xa3
 5 6 l 1
 5 5 l 1xa280
 3 5 l 1
 3 3 l 1xc3
 2 3 l 1
 2 1 l 1
 5 1 l 1
 5 0 l 1xc280
 1 0 l 1
 1 3 l 1
 2 3 l 1
 2 5 l 1
 1 5 l 1
 1 6 l 1
 3 6 l 1xa3
 3 7 l 1
 4 7 l 1xc3
2 10 m 1x8a
 2 8 l 1
 1 8 l 1
 1 10 l 1
 2 10 l 1x8a
EndSplineSet
Fore
Refer: 762 821 S 1.33333 0 0 1 -0.33301 0 2
EndChar

StartChar: uni01BC
Encoding: 444 444 363
Width: 6
VWidth: 0
Flags: W
HStem: 0 1<1 4> 1 1<0 1> 6 1<2 4> 10 1<2 5>
VStem: 0 1<1 2> 1 3<0 1 6 7> 4 1<1 6>
LayerCount: 2
Fore
SplineSet
1 11 m 1xb4
 5 11 l 1
 5 10 l 1xb2
 2 10 l 1
 2 7 l 1
 4 7 l 1
 4 6 l 1xb4
 5 6 l 1
 5 1 l 1x72
 4 1 l 1
 4 6 l 1
 1 6 l 1
 1 11 l 1xb4
1 1 m 1xb8
 0 1 l 1
 0 2 l 1
 1 2 l 1x78
 1 1 l 1xb8
1 1 m 1xb8
 4 1 l 1
 4 0 l 1
 1 0 l 1xb4
 1 1 l 1xb8
EndSplineSet
Validated: 5
EndChar

StartChar: uni01BD
Encoding: 445 445 364
Width: 6
VWidth: 0
Flags: W
HStem: -2 1<1 4> -1 1<0 1> 4 1<2 4> 7 1<2 5>
VStem: 0 1<-1 0> 1 3<-2 -1 4 5> 4 1<-1 4>
LayerCount: 2
Fore
SplineSet
1 8 m 1xb4
 5 8 l 1
 5 7 l 1xb2
 2 7 l 1
 2 5 l 1
 4 5 l 1
 4 4 l 1xb4
 5 4 l 1
 5 -1 l 1x72
 4 -1 l 1
 4 4 l 1
 1 4 l 1
 1 8 l 1xb4
1 -1 m 1xb8
 0 -1 l 1
 0 0 l 1
 1 0 l 1x78
 1 -1 l 1xb8
1 -1 m 1xb8
 4 -1 l 1
 4 -2 l 1
 1 -2 l 1xb4
 1 -1 l 1xb8
EndSplineSet
Validated: 5
EndChar

StartChar: uni01BF
Encoding: 447 447 366
Width: 6
VWidth: 0
Flags: W
HStem: -2 21G<1 2> 0 1<2 3> 1 1<3 4> 6 1<2 3> 7 1<3 4>
VStem: 1 2<0 1 6 7> 1 1<-2 0 1 6 7 8> 3 1<1 2 7 8>
LayerCount: 2
Fore
SplineSet
2 8 m 1x0a
 2 7 l 1x12
 3 7 l 1
 3 6 l 1x14
 2 6 l 1
 2 1 l 1x52
 3 1 l 1x54
 3 2 l 1
 4 2 l 1
 4 1 l 1x21
 3 1 l 1
 3 0 l 1x44
 2 0 l 1x42
 2 -2 l 1
 1 -2 l 1x82
 1 8 l 1
 2 8 l 1x0a
3 8 m 1x09
 4 8 l 1
 4 7 l 1
 5 7 l 1
 5 2 l 1
 4 2 l 1
 4 7 l 1x29
 3 7 l 1x14
 3 8 l 1x09
EndSplineSet
Validated: 5
EndChar

StartChar: uni01C0
Encoding: 448 448 367
Width: 3
VWidth: 0
Flags: W
HStem: -9 20G<1 2> -2 21G<1 2>
VStem: 1 1<-2 11>
LayerCount: 2
Fore
SplineSet
1 11 m 1xa0
 2 11 l 1xa0
 2 -2 l 1
 1 -2 l 1x60
 1 11 l 1xa0
EndSplineSet
Validated: 1
EndChar

StartChar: uni01C1
Encoding: 449 449 368
Width: 5
VWidth: 0
Flags: W
HStem: -9 20G<1 2 3 4> -2 21G<1 2 3 4>
VStem: 1 1<-2 11> 3 1<-2 11>
LayerCount: 2
Fore
SplineSet
3 11 m 1xb0
 4 11 l 1xb0
 4 -2 l 1
 3 -2 l 1x70
 3 11 l 1xb0
1 11 m 1
 2 11 l 1xb0
 2 -2 l 1
 1 -2 l 1x70
 1 11 l 1
EndSplineSet
Validated: 1
EndChar

StartChar: uni01C2
Encoding: 450 450 369
Width: 3
VWidth: 0
Flags: W
HStem: -9 20G<1 2> -2 21G<1 2> 4 1<0 1 2 3> 6 1<0 1 2 3>
VStem: 0 3<4 5 6 7> 1 1<-2 4 5 6 7 11>
LayerCount: 2
Fore
SplineSet
1 11 m 1x84
 2 11 l 1x84
 2 7 l 1x14
 3 7 l 1
 3 6 l 1x18
 2 6 l 1
 2 5 l 1x34
 3 5 l 1
 3 4 l 1x38
 2 4 l 1x34
 2 -2 l 1
 1 -2 l 1x44
 1 4 l 1x24
 0 4 l 1
 0 5 l 1x28
 1 5 l 1
 1 6 l 1x34
 0 6 l 1
 0 7 l 1x38
 1 7 l 1x34
 1 11 l 1x84
EndSplineSet
Validated: 1
EndChar

StartChar: uni01C3
Encoding: 451 451 370
Width: 3
VWidth: 0
Flags: W
HStem: -9 20G<1 2> 0 2<1 2>
VStem: 1 1<0 2 4 11>
LayerCount: 2
Fore
SplineSet
1 4 m 1xa0
 1 11 l 1
 2 11 l 1
 2 4 l 1
 1 4 l 1xa0
1 0 m 1x60
 1 2 l 1
 2 2 l 1
 2 0 l 1
 1 0 l 1x60
EndSplineSet
Validated: 1
EndChar

StartChar: uni01C4
Encoding: 452 452 371
Width: 11
VWidth: 0
Flags: HW
HStem: 13 1<6 7 8 9>
VStem: 6 1<13 14> 8 1<13 14>
LayerCount: 2
Back
SplineSet
1 11 m 1x9580
 4 11 l 1
 4 10 l 1x9580
 5 10 l 1x9380
 5 1 l 1x4380
 4 1 l 1
 4 10 l 1
 2 10 l 1
 2 1 l 1
 4 1 l 1
 4 0 l 1
 1 0 l 1
 1 11 l 1x9580
6 11 m 1
 10 11 l 1
 10 9 l 1
 9 9 l 1
 9 6 l 1
 8 6 l 1
 8 3 l 1
 7 3 l 1
 7 1 l 1
 10 1 l 1
 10 0 l 1
 6 0 l 1
 6 3 l 1
 7 3 l 1
 7 6 l 1
 8 6 l 1
 8 9 l 1
 9 9 l 1xa180
 9 10 l 1
 6 10 l 1
 6 11 l 1
6 14 m 1x0980
 7 14 l 1
 7 13 l 1
 6 13 l 1
 6 14 l 1x0980
8 13 m 1
 7 13 l 1
 7 12 l 1
 8 12 l 1
 8 13 l 1
8 13 m 1
 8 14 l 1
 9 14 l 1
 9 13 l 1
 8 13 l 1
EndSplineSet
Fore
Refer: 35 68 S 1 0 0 1 0 0 2
Refer: 313 381 N 1 0 0 1 5 0 2
EndChar

StartChar: uni01C5
Encoding: 453 453 372
Width: 11
VWidth: 0
Flags: HW
HStem: 10 1<6 7 8 9>
VStem: 6 1<10 11> 8 1<10 11>
LayerCount: 2
Back
SplineSet
1 11 m 1x86
 4 11 l 1
 4 10 l 1x86
 5 10 l 1
 5 1 l 1x85
 4 1 l 1
 4 10 l 1
 2 10 l 1
 2 1 l 1
 4 1 l 1
 4 0 l 1
 1 0 l 1
 1 11 l 1x86
6 8 m 1xaca0
 10 8 l 1
 10 6 l 1x94a0
 9 6 l 1
 9 4 l 1xa4a0
 8 4 l 1
 8 2 l 1
 7 2 l 1
 7 4 l 1
 8 4 l 1xc440
 8 6 l 1
 9 6 l 1
 9 7 l 1
 6 7 l 1
 6 8 l 1xaca0
6 11 m 1
 7 11 l 1
 7 10 l 1
 6 10 l 1
 6 11 l 1
7 2 m 1xc440
 6 2 l 1
 6 0 l 1xc480
 10 0 l 1
 10 1 l 1
 7 1 l 1
 7 2 l 1xc440
8 10 m 1x8420
 7 10 l 1x84a0
 7 9 l 1x8440
 8 9 l 1
 8 10 l 1x8420
8 10 m 1
 8 11 l 1
 9 11 l 1
 9 10 l 1
 8 10 l 1
EndSplineSet
Fore
Refer: 35 68 S 1 0 0 1 0 0 2
Refer: 316 382 N 1 0 0 1 5 0 2
EndChar

StartChar: uni01C6
Encoding: 454 454 373
Width: 11
VWidth: 0
Flags: W
HStem: 10 1<6 7 8 9>
VStem: 6 1<10 11> 8 1<10 11>
LayerCount: 2
Back
SplineSet
5 11 m 1x4ac0
 5 0 l 1
 4 0 l 1x80c0
 4 1 l 1
 3 1 l 1
 3 2 l 1
 4 2 l 1
 4 6 l 1
 3 6 l 1
 3 7 l 1
 4 7 l 1
 4 11 l 1
 5 11 l 1x4ac0
6 8 m 1x1450
 10 8 l 1x1450
 10 6 l 1x0850
 9 6 l 1
 9 4 l 1x1050
 8 4 l 1
 8 2 l 1
 7 2 l 1
 7 4 l 1
 8 4 l 1x2060
 8 6 l 1
 9 6 l 1
 9 7 l 1
 6 7 l 1
 6 8 l 1x1450
6 11 m 1x0260
 7 11 l 1
 7 10 l 1
 6 10 l 1
 6 11 l 1x0260
2 1 m 1x4140
 2 0 l 1
 3 0 l 1x80c0
 3 1 l 1x40c0
 2 1 l 1x4140
2 1 m 1x4540
 1 1 l 1
 1 7 l 1
 2 7 l 1
 2 1 l 1x4540
7 2 m 1x2060
 6 2 l 1x2060
 6 0 l 1
 10 0 l 1x8060
 10 1 l 1
 7 1 l 1x4060
 7 2 l 1x2060
8 10 m 1x0250
 7 10 l 1
 7 9 l 1x0260
 8 9 l 1
 8 10 l 1x0250
8 10 m 1x0250
 8 11 l 1
 9 11 l 1
 9 10 l 1
 8 10 l 1x0250
2 7 m 1x0540
 2 8 l 1
 3 8 l 1x04c0
 3 7 l 1x08c0
 2 7 l 1x0540
EndSplineSet
Fore
Refer: 316 382 N 1 0 0 1 5 0 2
EndChar

StartChar: uni01C7
Encoding: 455 455 374
Width: 8
VWidth: 0
Flags: HW
LayerCount: 2
Back
SplineSet
6 11 m 1x8c
 7 11 l 1x8c
 7 -1 l 1
 6 -1 l 1x4c
 6 11 l 1x8c
1 11 m 1
 2 11 l 1x8c
 2 1 l 1
 5 1 l 1
 5 0 l 1
 1 0 l 1x1c
 1 11 l 1
6 -1 m 1x4c
 3 -1 l 1x2c
 3 -2 l 5
 6 -2 l 1
 6 -1 l 1x4c
EndSplineSet
Fore
Refer: 43 76 N 1 0 0 1 0 0 2
EndChar

StartChar: uni01C8
Encoding: 456 456 375
Width: 8
VWidth: 0
Flags: HW
LayerCount: 2
Back
SplineSet
6 11 m 1x0e
 7 11 l 1
 7 9 l 1
 6 9 l 1
 6 11 l 1x0e
6 8 m 1x86
 7 8 l 1x86
 7 -1 l 1
 6 -1 l 1x46
 6 8 l 1x86
1 11 m 1x1e
 2 11 l 1
 2 1 l 1
 5 1 l 1
 5 0 l 1
 1 0 l 1
 1 11 l 1x1e
6 -1 m 1x46
 4 -1 l 1x26
 4 -2 l 1
 6 -2 l 1
 6 -1 l 1x46
EndSplineSet
Fore
Refer: 43 76 N 1 0 0 1 0 0 2
EndChar

StartChar: uni01C9
Encoding: 457 457 376
Width: 13
VWidth: 0
LayerCount: 2
Back
SplineSet
3 8 m 1x8c
 4 8 l 1x8c
 4 -1 l 1
 3 -1 l 1x4c
 3 8 l 1x8c
3 11 m 1x1c
 4 11 l 1
 4 9 l 1
 3 9 l 1
 3 11 l 1x1c
1 11 m 1
 2 11 l 1x1c
 2 0 l 1
 1 0 l 1x2c
 1 11 l 1
3 -1 m 1x4c
 1 -1 l 1
 1 -2 l 1
 3 -2 l 1
 3 -1 l 1x4c
EndSplineSet
EndChar

StartChar: uni01CA
Encoding: 458 458 377
Width: 8
VWidth: 0
Flags: HW
LayerCount: 2
Back
SplineSet
6 11 m 1x84
 7 11 l 1x84
 7 -1 l 1
 6 -1 l 1x44
 6 11 l 1x84
1 0 m 1x2c
 1 11 l 1
 2 11 l 1
 2 9 l 1x8c
 3 9 l 1
 3 6 l 1
 4 6 l 1
 4 11 l 1
 5 11 l 1x94
 5 0 l 1
 4 0 l 1
 4 3 l 1
 3 3 l 1
 3 6 l 1x34
 2 6 l 1
 2 0 l 1
 1 0 l 1x2c
6 -1 m 1x44
 3 -1 l 1
 3 -2 l 5
 6 -2 l 1
 6 -1 l 1x44
EndSplineSet
Fore
Refer: 45 78 N 1 0 0 1 0 0 2
EndChar

StartChar: uni01CB
Encoding: 459 459 378
Width: 8
VWidth: 0
Flags: HW
LayerCount: 2
Back
SplineSet
6 11 m 1x13
 7 11 l 1
 7 9 l 1
 6 9 l 1
 6 11 l 1x13
6 8 m 1x83
 7 8 l 1x83
 7 -1 l 1
 6 -1 l 1x43
 6 8 l 1x83
1 0 m 1x27
 1 11 l 1
 2 11 l 1
 2 9 l 1x17
 3 9 l 1
 3 6 l 1
 4 6 l 1
 4 11 l 1
 5 11 l 1x1b
 5 0 l 1
 4 0 l 1
 4 3 l 1
 3 3 l 1
 3 6 l 1x2b
 2 6 l 1
 2 0 l 1
 1 0 l 1x27
6 -1 m 1x43
 4 -1 l 1
 4 -2 l 1
 6 -2 l 1
 6 -1 l 1x43
EndSplineSet
Fore
Refer: 45 78 N 1 0 0 1 0 0 2
EndChar

StartChar: uni01CC
Encoding: 460 460 379
Width: 9
VWidth: 0
Flags: W
LayerCount: 2
Back
SplineSet
6 8 m 1x1180
 7 8 l 1x1180
 7 -1 l 1
 6 -1 l 1x8180
 6 8 l 1x1180
6 11 m 1x0980
 7 11 l 1
 7 9 l 1
 6 9 l 1
 6 11 l 1x0980
1 8 m 1x1380
 2 8 l 1x1380
 2 7 l 1x2380
 3 7 l 1x2580
 3 8 l 1
 4 8 l 1
 4 7 l 1
 5 7 l 1x1580
 5 0 l 1
 4 0 l 1x4580
 4 7 l 1x1580
 3 7 l 1
 3 6 l 1x2580
 2 6 l 1x2380
 2 0 l 1
 1 0 l 1x4380
 1 8 l 1x1380
6 -1 m 1x8180
 4 -1 l 1
 4 -2 l 1
 6 -2 l 1
 6 -1 l 1x8180
EndSplineSet
EndChar

StartChar: uni01CD
Encoding: 461 461 380
Width: 6
VWidth: 0
Flags: HW
HStem: 13 1<1 2 3 4>
VStem: 1 1<13 14> 3 1<13 14>
LayerCount: 2
Back
SplineSet
1 0 m 1x45
 1 10 l 1
 2 10 l 1
 2 11 l 1
 4 11 l 1x15
 4 10 l 1x85
 2 10 l 1
 2 6 l 1
 4 6 l 1x35
 4 10 l 1
 5 10 l 1x85
 5 0 l 1
 4 0 l 1x45
 4 5 l 1
 2 5 l 1x25
 2 0 l 1
 1 0 l 1x45
1 14 m 1x0c
 2 14 l 1
 2 13 l 1
 1 13 l 1
 1 14 l 1x0c
3 13 m 1x0e
 2 13 l 1
 2 12 l 1
 3 12 l 1
 3 13 l 1x0e
3 13 m 1
 3 14 l 1
 4 14 l 1
 4 13 l 1
 3 13 l 1
EndSplineSet
Fore
Refer: 32 65 S 1 0 0 1 0 0 2
Refer: 721 780 N 1 0 0 1 0 3 2
EndChar

StartChar: uni01CE
Encoding: 462 462 381
Width: 6
VWidth: 0
Flags: W
HStem: 10 1<1 2 3 4>
VStem: 1 1<10 11> 3 1<10 11>
LayerCount: 2
Back
SplineSet
1 11 m 1x06
 2 11 l 1
 2 10 l 1
 1 10 l 1
 1 11 l 1x06
2 1 m 1x56
 1 1 l 1x26
 1 4 l 1
 2 4 l 1
 2 1 l 1x56
2 1 m 1x47
 3 1 l 1
 3 0 l 1
 2 0 l 1
 2 1 l 1x47
2 4 m 1x3680
 2 5 l 1
 4 5 l 1x3680
 4 7 l 1
 5 7 l 1x8680
 5 0 l 1
 4 0 l 1x4680
 4 1 l 1x2680
 3 1 l 1x47
 3 2 l 1x27
 4 2 l 1
 4 4 l 1
 2 4 l 1x3680
4 7 m 1x8680
 2 7 l 1
 2 8 l 1
 4 8 l 1x0e80
 4 7 l 1x8680
2 7 m 1
 1 7 l 1
 1 6 l 1
 2 6 l 1
 2 7 l 1
3 10 m 1x07
 2 10 l 1
 2 9 l 1
 3 9 l 1
 3 10 l 1x07
3 10 m 1
 3 11 l 1
 4 11 l 1
 4 10 l 1
 3 10 l 1
EndSplineSet
Fore
Refer: 721 780 N 1 0 0 1 0 0 2
EndChar

StartChar: uni01CF
Encoding: 463 463 382
Width: 3
VWidth: 0
Flags: W
HStem: -9 20G<1 2> 0 21G<1 2> 13 1<0 1 2 3>
VStem: 0 1<13 14> 1 1<0 11> 2 1<13 14>
LayerCount: 2
Back
SplineSet
0 14 m 1x30
 1 14 l 1
 1 13 l 1
 0 13 l 1
 0 14 l 1x30
1 11 m 1x88
 2 11 l 1x88
 2 0 l 1
 1 0 l 1x48
 1 11 l 1x88
2 13 m 1x24
 2 14 l 1
 3 14 l 1
 3 13 l 1
 2 13 l 1x24
2 13 m 1
 1 13 l 1x34
 1 12 l 1x28
 2 12 l 1
 2 13 l 1
EndSplineSet
Fore
Refer: 40 73 S 1 0 0 1 0 0 2
Refer: 721 780 S 1 0 0 1 -1 3 2
EndChar

StartChar: uni01D0
Encoding: 464 464 383
Width: 3
VWidth: 0
Flags: W
HStem: 10 1<0 1 2 3>
VStem: 0 1<10 11> 2 1<10 11>
LayerCount: 2
Back
SplineSet
0 11 m 1x30
 1 11 l 1
 1 10 l 1
 0 10 l 1
 0 11 l 1x30
1 8 m 1x88
 2 8 l 1x88
 2 0 l 1
 1 0 l 1x48
 1 8 l 1x88
2 10 m 1x24
 2 11 l 1
 3 11 l 1
 3 10 l 1
 2 10 l 1x24
2 10 m 1
 1 10 l 1x34
 1 9 l 1x28
 2 9 l 1
 2 10 l 1
EndSplineSet
Fore
Refer: 721 780 N 1 0 0 1 -1 0 2
EndChar

StartChar: uni01D1
Encoding: 465 465 384
Width: 6
VWidth: 0
Flags: HW
HStem: 13 1<1 2 3 4>
VStem: 1 1<13 14> 3 1<13 14>
LayerCount: 2
Back
SplineSet
1 14 m 1x1c
 2 14 l 1
 2 13 l 1
 1 13 l 1
 1 14 l 1x1c
4 1 m 1x4c
 4 10 l 1
 5 10 l 1x8c
 5 1 l 1
 4 1 l 1x4c
4 1 m 1x4c
 2 1 l 1
 2 0 l 1
 4 0 l 1
 4 1 l 1x4c
2 1 m 1
 1 1 l 1x4c
 1 10 l 1
 2 10 l 1x8c
 2 1 l 1
3 13 m 1x1c
 2 13 l 1
 2 12 l 1
 3 12 l 1
 3 13 l 1x1c
3 13 m 1
 3 14 l 1
 4 14 l 1
 4 13 l 1
 3 13 l 1
2 10 m 1x8c
 2 11 l 1
 4 11 l 1x2c
 4 10 l 1
 2 10 l 1x8c
EndSplineSet
Fore
Refer: 46 79 N 1 0 0 1 0 0 2
Refer: 721 780 N 1 0 0 1 0 3 2
EndChar

StartChar: uni01D2
Encoding: 466 466 385
Width: 6
VWidth: 0
Flags: W
HStem: 10 1<1 2 3 4>
VStem: 1 1<10 11> 3 1<10 11>
LayerCount: 2
Back
SplineSet
1 1 m 1x4c
 1 7 l 1
 2 7 l 1
 2 8 l 1
 4 8 l 1x2c
 4 7 l 1x8c
 2 7 l 1x2c
 2 1 l 1
 1 1 l 1x4c
1 11 m 1x1c
 2 11 l 1
 2 10 l 1
 1 10 l 1
 1 11 l 1x1c
4 7 m 1x8c
 5 7 l 1x8c
 5 1 l 1
 4 1 l 1x4c
 4 7 l 1x8c
4 1 m 1x4c
 2 1 l 1
 2 0 l 1
 4 0 l 1
 4 1 l 1x4c
3 10 m 1x1c
 2 10 l 1
 2 9 l 1
 3 9 l 1
 3 10 l 1x1c
3 10 m 1
 3 11 l 1
 4 11 l 1
 4 10 l 1
 3 10 l 1
EndSplineSet
Fore
Refer: 721 780 N 1 0 0 1 0 0 2
EndChar

StartChar: uni01D3
Encoding: 467 467 386
Width: 5
VWidth: 0
Flags: W
HStem: 13 1<1 2 3 4>
VStem: 1 1<13 14> 3 1<13 14>
LayerCount: 2
Back
SplineSet
1 14 m 1x38
 2 14 l 1
 2 13 l 1
 1 13 l 1
 1 14 l 1x38
1 11 m 1x98
 2 11 l 1x98
 2 1 l 1
 1 1 l 1x58
 1 11 l 1x98
3 13 m 1x38
 3 14 l 1
 4 14 l 1
 4 13 l 1
 3 13 l 1x38
3 13 m 1
 2 13 l 1
 2 12 l 1
 3 12 l 1
 3 13 l 1
4 1 m 1x58
 4 11 l 1
 5 11 l 1x98
 5 1 l 1
 4 1 l 1x58
4 1 m 1x58
 2 1 l 1
 2 0 l 1
 4 0 l 1
 4 1 l 1x58
EndSplineSet
Fore
Refer: 721 780 S 1 0 0 1 0 3 2
EndChar

StartChar: uni01D4
Encoding: 468 468 387
Width: 5
VWidth: 0
Flags: W
HStem: 10 1<1 2 3 4>
VStem: 1 1<10 11> 3 1<10 11>
LayerCount: 2
Back
SplineSet
1 11 m 1x1c
 2 11 l 1
 2 10 l 1
 1 10 l 1
 1 11 l 1x1c
1 8 m 1x8c
 2 8 l 1x8c
 2 1 l 1
 1 1 l 1x2c
 1 8 l 1x8c
3 10 m 1x1c
 3 11 l 1
 4 11 l 1
 4 10 l 1
 3 10 l 1x1c
3 10 m 1
 2 10 l 1
 2 9 l 1
 3 9 l 1
 3 10 l 1
3 1 m 1x2c
 3 2 l 1
 4 2 l 1x2c
 4 8 l 1
 5 8 l 1x8c
 5 0 l 1
 4 0 l 1x4c
 4 1 l 1
 3 1 l 1x2c
3 1 m 1
 2 1 l 1x2c
 2 0 l 1
 3 0 l 1x4c
 3 1 l 1
EndSplineSet
Fore
Refer: 721 780 S 1 0 0 1 0 0 2
EndChar

StartChar: uni01D6
Encoding: 470 470 388
Width: 6
VWidth: 0
Flags: W
HStem: 9 1<1 2 4 5> 11 1<1 5>
VStem: 1 1<9 10> 4 1<9 10>
LayerCount: 2
Back
SplineSet
1 11 m 1x0c
 1 12 l 1
 5 12 l 1
 5 11 l 1
 1 11 l 1x0c
4 9 m 1x1c
 4 10 l 1
 5 10 l 1
 5 9 l 1
 4 9 l 1x1c
1 9 m 1
 1 10 l 1
 2 10 l 1
 2 9 l 1
 1 9 l 1
1 8 m 1x8c
 2 8 l 1x8c
 2 1 l 1
 1 1 l 1x2c
 1 8 l 1x8c
3 1 m 1x2c
 3 2 l 1
 4 2 l 1x2c
 4 8 l 1
 5 8 l 1x8c
 5 0 l 1
 4 0 l 1x4c
 4 1 l 1
 3 1 l 1x2c
3 1 m 1
 2 1 l 1x2c
 2 0 l 1
 3 0 l 1x4c
 3 1 l 1
EndSplineSet
Fore
Refer: 713 772 S 1 0 0 1 0 1 2
Refer: 717 776 N 1 0 0 1 0 -1 2
EndChar

StartChar: uni01D5
Encoding: 469 469 389
Width: 6
VWidth: 0
Flags: W
HStem: 12 1<1 2 4 5> 14 1<1 5>
VStem: 1 1<12 13> 4 1<12 13>
LayerCount: 2
Back
SplineSet
1 15 m 1x18
 5 15 l 1
 5 14 l 1
 1 14 l 1
 1 15 l 1x18
4 12 m 1x38
 4 13 l 1
 5 13 l 1
 5 12 l 1
 4 12 l 1x38
1 12 m 1
 1 13 l 1
 2 13 l 1
 2 12 l 1
 1 12 l 1
1 11 m 1x98
 2 11 l 1x98
 2 1 l 1
 1 1 l 1x58
 1 11 l 1x98
4 1 m 1x58
 4 11 l 1
 5 11 l 1x98
 5 1 l 1
 4 1 l 1x58
4 1 m 1x58
 2 1 l 1
 2 0 l 1
 4 0 l 1
 4 1 l 1x58
EndSplineSet
Fore
Refer: 154 220 S 1 0 0 1 0 0 2
Refer: 713 772 N 1 0 0 1 0 4 2
EndChar

StartChar: uni01D7
Encoding: 471 471 390
Width: 5
VWidth: 0
Flags: W
HStem: 12 1<1 2 4 5>
VStem: 1 1<12 13> 4 1<12 13>
LayerCount: 2
Back
SplineSet
2 14 m 1x0c
 3 14 l 1
 3 15 l 1
 2 15 l 1
 2 14 l 1x0c
4 12 m 1x2c
 4 13 l 1
 5 13 l 1
 5 12 l 1
 4 12 l 1x2c
1 12 m 1
 1 13 l 1
 2 13 l 1
 2 12 l 1
 1 12 l 1
1 11 m 1x8c
 2 11 l 1x8c
 2 1 l 1
 1 1 l 1x4c
 1 11 l 1x8c
4 16 m 1x1c
 4 17 l 1
 5 17 l 1
 5 16 l 1
 4 16 l 1x1c
4 16 m 1
 4 15 l 1
 3 15 l 1
 3 16 l 1
 4 16 l 1
4 1 m 1x4c
 4 11 l 1
 5 11 l 1x8c
 5 1 l 1
 4 1 l 1x4c
4 1 m 1x4c
 2 1 l 1
 2 0 l 1
 4 0 l 1
 4 1 l 1x4c
EndSplineSet
Fore
Refer: 154 220 S 1 0 0 1 0 0 2
Refer: 710 769 N 1 0 0 1 1 6 2
EndChar

StartChar: uni01D8
Encoding: 472 472 391
Width: 6
VWidth: 0
Flags: W
HStem: 9 1<1 2 4 5> 11 1<2 3> 12 1<3 4>
VStem: 1 1<9 10> 2 1<11 12> 3 1<12 13> 4 1<9 10>
LayerCount: 2
Back
SplineSet
2 11 m 1x0c
 3 11 l 1
 3 12 l 1
 2 12 l 1
 2 11 l 1x0c
4 9 m 1x1c
 4 10 l 1
 5 10 l 1
 5 9 l 1
 4 9 l 1x1c
1 9 m 1
 1 10 l 1
 2 10 l 1
 2 9 l 1
 1 9 l 1
1 8 m 1x8c
 2 8 l 1x8c
 2 1 l 1
 1 1 l 1x2c
 1 8 l 1x8c
3 1 m 1x2c
 3 2 l 1
 4 2 l 1x2c
 4 8 l 1
 5 8 l 1x8c
 5 0 l 1
 4 0 l 1x4c
 4 1 l 1
 3 1 l 1x2c
3 1 m 1
 2 1 l 1x2c
 2 0 l 1
 3 0 l 1x4c
 3 1 l 1
3 12 m 1
 3 13 l 1
 4 13 l 1
 4 12 l 1
 3 12 l 1
EndSplineSet
Fore
Refer: 655 714 S 1 0 0 1 1 2 2
Refer: 717 776 N 1 0 0 1 0 -1 2
EndChar

StartChar: uni01DA
Encoding: 474 474 392
Width: 6
VWidth: 0
Flags: W
HStem: 9 1<1 2 4 5> 12 1<1 2 3 4>
VStem: 1 1<9 10 12 13> 3 1<12 13> 4 1<9 10>
LayerCount: 2
Back
SplineSet
1 13 m 1x0e
 2 13 l 1
 2 12 l 1
 1 12 l 1
 1 13 l 1x0e
4 9 m 1x16
 4 10 l 1
 5 10 l 1
 5 9 l 1
 4 9 l 1x16
1 9 m 1
 1 10 l 1
 2 10 l 1
 2 9 l 1
 1 9 l 1
1 8 m 1x86
 2 8 l 1x86
 2 1 l 1
 1 1 l 1x26
 1 8 l 1x86
3 12 m 1x0e
 3 13 l 1
 4 13 l 1
 4 12 l 1
 3 12 l 1x0e
3 12 m 1
 2 12 l 1
 2 11 l 1
 3 11 l 1
 3 12 l 1
3 1 m 1x26
 3 2 l 1
 4 2 l 1x26
 4 8 l 1
 5 8 l 1x86
 5 0 l 1
 4 0 l 1x46
 4 1 l 1
 3 1 l 1x26
3 1 m 1
 2 1 l 1x26
 2 0 l 1
 3 0 l 1x46
 3 1 l 1
EndSplineSet
Fore
Refer: 721 780 S 1 0 0 1 0 2 2
Refer: 717 776 N 1 0 0 1 0 -1 2
EndChar

StartChar: uni01DC
Encoding: 476 476 393
Width: 6
VWidth: 0
Flags: W
HStem: 9 1<1 2 4 5> 11 1<3 4> 12 1<2 3>
VStem: 1 1<9 10> 2 1<12 13> 3 1<11 12> 4 1<9 10>
LayerCount: 2
Back
SplineSet
4 11 m 1x0c
 4 12 l 1
 3 12 l 1
 3 11 l 1
 4 11 l 1x0c
4 9 m 1x1c
 4 10 l 1
 5 10 l 1
 5 9 l 1
 4 9 l 1x1c
1 9 m 1
 1 10 l 1
 2 10 l 1
 2 9 l 1
 1 9 l 1
1 8 m 1x8c
 2 8 l 1x8c
 2 1 l 1
 1 1 l 1x2c
 1 8 l 1x8c
3 1 m 1x2c
 3 2 l 1
 4 2 l 1x2c
 4 8 l 1
 5 8 l 1x8c
 5 0 l 1
 4 0 l 1x4c
 4 1 l 1
 3 1 l 1x2c
3 1 m 1
 2 1 l 1x2c
 2 0 l 1
 3 0 l 1x4c
 3 1 l 1
3 12 m 1
 2 12 l 1
 2 13 l 1
 3 13 l 1
 3 12 l 1
EndSplineSet
Fore
Refer: 656 715 S 1 0 0 1 1 2 2
Refer: 717 776 N 1 0 0 1 0 -1 2
EndChar

StartChar: uni01D9
Encoding: 473 473 394
Width: 6
VWidth: 0
Flags: W
HStem: 12 1<1 2 4 5> 15 1<1 2 3 4>
VStem: 1 1<12 13 15 16> 3 1<15 16> 4 1<12 13>
LayerCount: 2
Back
SplineSet
1 16 m 1x1c
 2 16 l 1
 2 15 l 1
 1 15 l 1
 1 16 l 1x1c
4 12 m 1x2c
 4 13 l 1
 5 13 l 1
 5 12 l 1
 4 12 l 1x2c
1 12 m 1
 1 13 l 1
 2 13 l 1
 2 12 l 1
 1 12 l 1
1 11 m 1x8c
 2 11 l 1x8c
 2 1 l 1
 1 1 l 1x4c
 1 11 l 1x8c
3 15 m 1x1c
 3 16 l 1
 4 16 l 1
 4 15 l 1
 3 15 l 1x1c
3 15 m 1
 2 15 l 1
 2 14 l 1
 3 14 l 1
 3 15 l 1
4 1 m 1x4c
 4 11 l 1
 5 11 l 1x8c
 5 1 l 1
 4 1 l 1x4c
4 1 m 1x4c
 2 1 l 1
 2 0 l 1
 4 0 l 1
 4 1 l 1x4c
EndSplineSet
Fore
Refer: 721 780 S 1 0 0 1 0 5 2
Refer: 154 220 N 1 0 0 1 0 0 2
EndChar

StartChar: uni01DB
Encoding: 475 475 395
Width: 5
VWidth: 0
Flags: W
HStem: 12 1<1 2 4 5> 14 1<3 4> 15 1<2 3> 16 1<1 2>
VStem: 1 1<12 13 16 17> 2 1<15 16> 3 1<14 15> 4 1<12 13>
LayerCount: 2
Back
SplineSet
4 14 m 1x0c
 4 15 l 1
 3 15 l 1
 3 14 l 1
 4 14 l 1x0c
4 12 m 1x2c
 4 13 l 1
 5 13 l 1
 5 12 l 1
 4 12 l 1x2c
1 12 m 1
 1 13 l 1
 2 13 l 1
 2 12 l 1
 1 12 l 1
1 11 m 1x8c
 2 11 l 1x8c
 2 1 l 1
 1 1 l 1x4c
 1 11 l 1x8c
2 16 m 1x1c
 1 16 l 1
 1 17 l 1
 2 17 l 1
 2 16 l 1x1c
2 16 m 1
 3 16 l 1
 3 15 l 1
 2 15 l 1
 2 16 l 1
4 1 m 1x4c
 4 11 l 1
 5 11 l 1x8c
 5 1 l 1
 4 1 l 1x4c
4 1 m 1x4c
 2 1 l 1
 2 0 l 1
 4 0 l 1
 4 1 l 1x4c
EndSplineSet
Fore
Refer: 154 220 S 1 0 0 1 0 0 2
Refer: 709 768 N 1 0 0 1 0 6 2
EndChar

StartChar: uni01DD
Encoding: 477 477 396
Width: 6
VWidth: 0
Flags: W
HStem: 0 1<2 4> 1 21G<1 2 4 5> 3 1<2 4> 5 2<1 2> 7 1<2 4>
VStem: 1 1<1 3 5 7> 2 2<0 1 7 8> 4 1<1 3 4 7>
LayerCount: 2
Fore
SplineSet
2 7 m 1x14
 2 5 l 1
 1 5 l 1
 1 7 l 1
 2 7 l 1x14
2 7 m 1
 2 8 l 1
 4 8 l 1
 4 7 l 1x0a
 2 7 l 1
4 7 m 1
 5 7 l 1x29
 5 1 l 1x41
 4 1 l 1x82
 4 3 l 1
 2 3 l 1
 2 1 l 1xa5
 1 1 l 1x45
 1 4 l 1
 4 4 l 1x25
 4 7 l 1
2 1 m 1x84
 4 1 l 1
 4 0 l 1
 2 0 l 1x82
 2 1 l 1x84
EndSplineSet
Validated: 5
EndChar

StartChar: uni01DE
Encoding: 478 478 397
Width: 6
VWidth: 0
Flags: W
HStem: -10 20G<4 5> 0 21G<1 2 4 5> 5 1<2 4> 10 1<2 4> 12 1<1 2 4 5> 14 1<1 5>
VStem: 1 1<0 5 6 10 12 13> 4 1<0 5 6 10 12 13>
LayerCount: 2
Back
SplineSet
1 0 m 1x46
 1 10 l 1
 2 10 l 1
 2 11 l 1
 4 11 l 1x16
 4 10 l 1x86
 2 10 l 1
 2 6 l 1
 4 6 l 1x36
 4 10 l 1
 5 10 l 1x86
 5 0 l 1
 4 0 l 1x46
 4 5 l 1
 2 5 l 1x26
 2 0 l 1
 1 0 l 1x46
1 12 m 1x0e
 1 13 l 1
 2 13 l 1
 2 12 l 1
 1 12 l 1x0e
4 12 m 1
 4 13 l 1
 5 13 l 1
 5 12 l 1
 4 12 l 1
1 14 m 1
 1 15 l 1
 5 15 l 1
 5 14 l 1
 1 14 l 1
EndSplineSet
Fore
Refer: 130 196 S 1 0 0 1 0 0 2
Refer: 713 772 N 1 0 0 1 0 4 2
EndChar

StartChar: uni01DF
Encoding: 479 479 398
Width: 6
VWidth: 0
Flags: W
HStem: 9 1<1 2 4 5> 11 1<1 5>
VStem: 1 1<9 10> 4 1<9 10>
LayerCount: 2
Back
SplineSet
1 9 m 1x06
 1 10 l 1
 2 10 l 1
 2 9 l 1
 1 9 l 1x06
4 9 m 1x0440
 4 10 l 1
 5 10 l 1
 5 9 l 1
 4 9 l 1x0440
1 11 m 1x0640
 1 12 l 1
 5 12 l 1
 5 11 l 1
 1 11 l 1x0640
2 1 m 1x56
 1 1 l 1x26
 1 4 l 1
 2 4 l 1
 2 1 l 1x56
2 1 m 1x46
 3 1 l 1
 3 0 l 1
 2 0 l 1x45
 2 1 l 1x46
2 4 m 1x3640
 2 5 l 1
 4 5 l 1x3540
 4 7 l 1
 5 7 l 1x8540
 5 0 l 1
 4 0 l 1x4540
 4 1 l 1x2540
 3 1 l 1x4540
 3 2 l 1x2480
 4 2 l 1
 4 4 l 1
 2 4 l 1x3640
4 7 m 1x8540
 2 7 l 1
 2 8 l 1
 4 8 l 1x0d40
 4 7 l 1x8540
2 7 m 1
 1 7 l 1
 1 6 l 1x0e
 2 6 l 1
 2 7 l 1
EndSplineSet
Fore
Refer: 713 772 S 1 0 0 1 0 1 2
Refer: 717 776 N 1 0 0 1 0 -1 2
EndChar

StartChar: uni01E0
Encoding: 480 480 399
Width: 6
VWidth: 0
Flags: W
HStem: -10 20G<4 5> 0 21G<1 2 4 5> 5 1<2 4> 10 1<2 4> 12 1<2 3> 14 1<1 5>
VStem: 1 1<0 5 6 10> 2 1<12 13> 4 1<0 5 6 10>
LayerCount: 2
Back
SplineSet
1 0 m 1x4280
 1 10 l 1
 2 10 l 1x1280
 2 11 l 1
 4 11 l 1x1180
 4 10 l 1x8180
 2 10 l 1
 2 6 l 1
 4 6 l 1x3280
 4 10 l 1
 5 10 l 1x8280
 5 0 l 1
 4 0 l 1x4280
 4 5 l 1
 2 5 l 1x2280
 2 0 l 1
 1 0 l 1x4280
2 12 m 1x0980
 2 13 l 1
 3 13 l 1
 3 12 l 1
 2 12 l 1x0980
1 14 m 1x0680
 1 15 l 1
 5 15 l 1
 5 14 l 1
 1 14 l 1x0680
EndSplineSet
Fore
Refer: 489 550 N 1 0 0 1 0 0 2
Refer: 713 772 N 1 0 0 1 0 4 2
EndChar

StartChar: uni01E1
Encoding: 481 481 400
Width: 6
VWidth: 0
Flags: W
HStem: 0 1<2 3> 1 1<3 4> 4 1<2 4> 6 1<1 2> 7 1<2 4> 9 1<2 3> 11 1<1 5>
VStem: 1 1<1 4 6 7> 2 1<0 1 9 10> 3 2<1 2> 4 1<0 1 2 4 5 7>
LayerCount: 2
Back
SplineSet
2 9 m 1x0640
 2 10 l 1
 3 10 l 1
 3 9 l 1
 2 9 l 1x0640
1 11 m 1x0720
 1 12 l 1
 5 12 l 1
 5 11 l 1
 1 11 l 1x0720
2 1 m 1x57
 1 1 l 1x27
 1 4 l 1
 2 4 l 1
 2 1 l 1x57
2 1 m 1x47
 3 1 l 1
 3 0 l 1
 2 0 l 1x4640
 2 1 l 1x47
2 4 m 1x3720
 2 5 l 1
 4 5 l 1x3660
 4 7 l 1x8680
 5 7 l 1x8620
 5 0 l 1
 4 0 l 1x4620
 4 1 l 1x2620
 3 1 l 1x4660
 3 2 l 1x2660
 4 2 l 1
 4 4 l 1
 2 4 l 1x3720
4 7 m 1x8680
 2 7 l 1
 2 8 l 1
 4 8 l 1x0e80
 4 7 l 1x8680
2 7 m 1
 1 7 l 1
 1 6 l 1x0f
 2 6 l 1x0e40
 2 7 l 1
EndSplineSet
Fore
Refer: 490 551 N 1 0 0 1 0 0 2
Refer: 713 772 N 1 0 0 1 0 1 2
EndChar

StartChar: uni01E2
Encoding: 482 482 401
Width: 6
VWidth: 0
Flags: W
HStem: 12 1<1.25 6.25>
LayerCount: 2
Back
SplineSet
1 0 m 1
 1 10 l 1
 2 10 l 1
 2 11 l 1
 6 11 l 1
 6 10 l 1
 4 10 l 1
 4 6 l 1
 5 6 l 1
 5 5 l 1
 4 5 l 1
 4 1 l 1
 6 1 l 1
 6 0 l 1
 3 0 l 1
 3 5 l 1
 2 5 l 1
 2 0 l 1
 1 0 l 1
1 13 m 1
 6 13 l 1
 6 12 l 1
 1 12 l 1
 1 13 l 1
2 10 m 1
 2 6 l 1
 3 6 l 1
 3 10 l 1
 2 10 l 1
EndSplineSet
Fore
Refer: 713 772 S 1.25 0 0 1 0 2 2
EndChar

